<svg width="428" height="420" viewBox="0 0 428 420" fill="none" xmlns="http://www.w3.org/2000/svg">
<g clip-path="url(#clip0)">
<path d="M427.21 282.15H263.34V187.3H427.21V282.15ZM264.34 281.15H426.21V188.3H264.34V281.15Z" fill="#696969"/>
<path d="M393.4 237.87H285.27V241.04H393.4V237.87Z" fill="#F0F0F0"/>
<path d="M400.85 249.7H285.27V253.16H400.85V249.7Z" fill="#F0F0F0"/>
<path d="M400.85 261.66H285.27V265.12H400.85V261.66Z" fill="#F0F0F0"/>
<path d="M323.06 220.71H285.27V228.94H323.06V220.71Z" fill="#F0F0F0"/>
<path d="M426.71 187.8H263.85V202.9H426.71V187.8Z" fill="#696969"/>
<path d="M414.17 200.64C413.97 200.45 416.06 197.92 418.86 194.99C421.66 192.06 424.09 189.86 424.3 190.06C424.51 190.26 422.41 192.79 419.61 195.71C416.81 198.63 414.34 200.84 414.17 200.64Z" fill="white"/>
<path d="M424.34 200.64C424.13 200.84 421.7 198.64 418.9 195.71C416.1 192.78 414.01 190.26 414.21 190.06C414.41 189.86 416.86 192.06 419.65 194.99C422.44 197.92 424.51 200.49 424.34 200.64Z" fill="white"/>
<path d="M225.54 0H62.68V93.85H225.54V0Z" fill="#E6E6E6"/>
<path d="M192.24 50.07H84.11V53.24H192.24V50.07Z" fill="#F0F0F0"/>
<path d="M199.69 61.89H84.11V65.35H199.69V61.89Z" fill="#F0F0F0"/>
<path d="M199.69 73.85H84.11V77.31H199.69V73.85Z" fill="#F0F0F0"/>
<path d="M121.9 32.9H84.11V41.13H121.9V32.9Z" fill="#F0F0F0"/>
<path d="M225.54 0H62.68V15.1H225.54V0Z" fill="#696969"/>
<path d="M212.45 12.77C212.25 12.57 214.34 10.04 217.14 7.12C219.94 4.2 222.37 1.98 222.58 2.18C222.79 2.38 220.69 4.91 217.89 7.84C215.09 10.77 212.66 12.97 212.45 12.77Z" fill="white"/>
<path d="M222.58 12.77C222.37 12.97 219.94 10.77 217.14 7.84C214.34 4.91 212.25 2.38 212.45 2.18C212.65 1.98 215.1 4.18 217.89 7.12C220.68 10.06 222.79 12.57 222.58 12.77Z" fill="white"/>
<path d="M163.86 174.33H0V79.49H163.86V174.33ZM1 173.33H162.86V80.49H1V173.33Z" fill="#696969"/>
<path d="M130.06 130.06H21.93V133.23H130.06V130.06Z" fill="#F0F0F0"/>
<path d="M137.51 141.88H21.93V145.34H137.51V141.88Z" fill="#F0F0F0"/>
<path d="M137.51 153.84H21.93V157.3H137.51V153.84Z" fill="#F0F0F0"/>
<path d="M59.72 112.89H21.93V121.12H59.72V112.89Z" fill="#F0F0F0"/>
<path d="M163.36 79.99H0.5V95.09H163.36V79.99Z" fill="#696969"/>
<path d="M352.97 196.07H160.67V368.23H352.97V196.07Z" fill="#E6E6E6"/>
<path d="M170.34 141.84H19.7V298.35H170.34V141.84Z" fill="#F0F0F0"/>
<path d="M170.34 141.84H19.7V158.89H170.34V141.84Z" fill="#696969"/>
<path d="M32.14 150.19C32.1126 150.811 31.9033 151.41 31.5383 151.912C31.1733 152.415 30.6686 152.8 30.0869 153.018C29.5052 153.236 28.8722 153.279 28.2665 153.14C27.6609 153.002 27.1092 152.688 26.6802 152.239C26.2512 151.79 25.9637 151.224 25.8534 150.613C25.7431 150.001 25.815 149.371 26.06 148.8C26.305 148.229 26.7124 147.743 27.2316 147.401C27.7507 147.06 28.3587 146.879 28.98 146.88C29.8376 146.901 30.6519 147.261 31.2443 147.882C31.8367 148.502 32.1588 149.332 32.14 150.19Z" fill="white"/>
<path d="M44.97 150.19C44.9426 150.81 44.7336 151.409 44.369 151.911C44.0045 152.414 43.5004 152.798 42.9192 153.017C42.3381 153.236 41.7056 153.279 41.1002 153.141C40.4948 153.003 39.9431 152.691 39.5137 152.243C39.0842 151.794 38.7959 151.23 38.6845 150.619C38.5731 150.008 38.6436 149.378 38.8871 148.807C39.1306 148.236 39.5364 147.749 40.0543 147.406C40.5721 147.064 41.1791 146.881 41.8 146.88C42.2255 146.889 42.6451 146.982 43.0347 147.153C43.4243 147.325 43.7764 147.571 44.0708 147.878C44.3651 148.186 44.5961 148.548 44.7504 148.945C44.9047 149.341 44.9793 149.764 44.97 150.19Z" fill="white"/>
<path d="M57.8 150.19C57.7726 150.81 57.5636 151.409 57.199 151.911C56.8345 152.414 56.3303 152.798 55.7492 153.017C55.1681 153.236 54.5356 153.279 53.9302 153.141C53.3248 153.003 52.7731 152.691 52.3437 152.243C51.9142 151.794 51.6259 151.23 51.5145 150.619C51.4031 150.008 51.4736 149.378 51.7171 148.807C51.9606 148.236 52.3664 147.749 52.8843 147.406C53.4021 147.064 54.0091 146.881 54.63 146.88C55.0555 146.889 55.4751 146.982 55.8647 147.153C56.2543 147.325 56.6064 147.571 56.9008 147.878C57.1951 148.186 57.4261 148.548 57.5804 148.945C57.7347 149.341 57.8093 149.764 57.8 150.19Z" fill="white"/>
<path d="M405.7 34.23H213.4V225.89H405.7V34.23Z" fill="#F0F0F0"/>
<path d="M405.7 34.23H213.4V56.68H405.7V34.23Z" fill="#696969"/>
<path d="M229.77 45.22C229.733 46.0336 229.458 46.8185 228.978 47.4771C228.499 48.1358 227.837 48.6393 227.075 48.9252C226.312 49.2112 225.482 49.2669 224.688 49.0856C223.894 48.9043 223.171 48.4938 222.608 47.9052C222.045 47.3165 221.667 46.5756 221.521 45.7742C221.376 44.9729 221.468 44.1464 221.788 43.3972C222.108 42.6481 222.64 42.0093 223.32 41.56C223.999 41.1108 224.796 40.8708 225.61 40.87C226.738 40.8962 227.81 41.369 228.59 42.1846C229.37 43.0001 229.794 44.0918 229.77 45.22Z" fill="white"/>
<path d="M245.44 42.28C245.995 42.8811 246.362 43.6324 246.493 44.4402C246.625 45.2479 246.515 46.0766 246.179 46.8228C245.843 47.569 245.295 48.1997 244.603 48.6365C243.911 49.0733 243.105 49.2967 242.287 49.279C241.469 49.2612 240.674 49.0031 240.001 48.5368C239.329 48.0705 238.808 47.4165 238.505 46.6565C238.201 45.8964 238.128 45.0639 238.294 44.2625C238.461 43.4612 238.859 42.7265 239.44 42.15C240.255 41.3756 241.343 40.9547 242.467 40.9791C243.591 41.0034 244.659 41.4711 245.44 42.28Z" fill="white"/>
<path d="M263.55 45.22C263.513 46.0336 263.238 46.8185 262.758 47.4771C262.279 48.1358 261.617 48.6393 260.855 48.9252C260.092 49.2112 259.262 49.2669 258.468 49.0856C257.674 48.9043 256.951 48.4938 256.388 47.9052C255.825 47.3165 255.447 46.5756 255.301 45.7742C255.156 44.9729 255.248 44.1464 255.568 43.3972C255.888 42.6481 256.42 42.0093 257.1 41.56C257.779 41.1108 258.575 40.8708 259.39 40.87C260.518 40.8962 261.59 41.369 262.37 42.1846C263.15 43.0001 263.574 44.0918 263.55 45.22Z" fill="white"/>
<path d="M364.16 419.08C364.16 419.22 294.72 419.34 209.08 419.34C123.44 419.34 53.99 419.22 53.99 419.08C53.99 418.94 123.42 418.82 209.08 418.82C294.74 418.82 364.16 418.93 364.16 419.08Z" fill="#263238"/>
<path d="M296.5 296.66C281.05 285.86 277.5 265.83 278.15 247.82C278.26 244.82 277.93 241.65 279.36 239.01C280.79 236.37 284.12 234.57 286.81 235.84C289.05 236.84 290.02 239.49 291.27 241.63C292.938 244.496 295.382 246.833 298.32 248.37C300.23 249.37 302.6 249.97 304.49 248.93C307.08 247.49 307.39 243.93 307.37 240.93C307.33 235.363 307.297 229.793 307.27 224.22C307.09 221.231 307.394 218.232 308.17 215.34C309.1 212.5 311.17 209.86 314 209.07C316.83 208.28 320.36 209.91 321 212.84C321.112 214.077 321.139 215.32 321.08 216.56C321.17 217.8 321.74 219.17 322.92 219.56C324.1 219.95 325.31 219.06 326.21 218.19C329.29 215.19 331.39 211.28 333.34 207.41C335.29 203.54 337.2 199.59 340 196.29C342.8 192.99 346.67 190.39 350.95 190.15C355.23 189.91 359.8 192.55 360.88 196.75C361.96 200.95 359.5 205.24 356.83 208.66C352.858 213.719 348.176 218.178 342.93 221.9C341.911 222.466 341.098 223.342 340.61 224.4C339.96 226.4 341.85 228.4 343.82 229.03C346.05 229.77 348.46 229.54 350.82 229.81C353.18 230.08 355.68 231.12 356.56 233.32C357.79 236.37 355.23 239.58 352.72 241.68C347.68 245.877 341.957 249.178 335.8 251.44C333.6 252.25 331.28 252.95 329.51 254.5C327.74 256.05 326.67 258.73 327.74 260.84C328.81 262.95 331.56 263.62 333.86 263.19C336.16 262.76 338.23 261.51 340.42 260.68C344.53 259.13 349.84 259.42 352.47 262.97C353.271 264.192 353.778 265.582 353.951 267.033C354.125 268.483 353.96 269.954 353.47 271.33C352.468 274.071 350.928 276.583 348.94 278.72C342.409 286.532 333.919 292.468 324.34 295.92C314.81 299.23 305.98 300.12 296.51 296.66" fill="url(#paint0_linear)"/>
<path d="M356.52 192.6C356.52 192.6 356.43 192.71 356.23 192.89L355.34 193.68C354.56 194.37 353.4 195.39 351.95 196.75C347.844 200.568 344.027 204.686 340.53 209.07C338.31 211.84 336 214.98 333.58 218.39C331.16 221.8 328.58 225.48 326.06 229.39C323.372 233.514 320.908 237.78 318.68 242.17C317.53 244.45 316.5 246.84 315.46 249.28C314.42 251.72 313.35 254.19 312.28 256.7C308.199 266.092 304.643 275.703 301.63 285.49C299.197 293.495 297.523 301.711 296.63 310.03C296.048 315.638 295.955 321.286 296.35 326.91C296.5 328.91 296.66 330.45 296.8 331.49C296.8 331.99 296.9 332.38 296.93 332.68C296.943 332.816 296.943 332.954 296.93 333.09C296.89 332.96 296.863 332.826 296.85 332.69C296.8 332.39 296.74 332 296.66 331.5C296.48 330.5 296.29 328.92 296.1 326.93C295.627 321.292 295.664 315.622 296.21 309.99C297.047 301.64 298.681 293.389 301.09 285.35C304.102 275.535 307.671 265.899 311.78 256.49L314.95 249.07C316 246.64 317.04 244.23 318.2 241.93C320.442 237.526 322.926 233.25 325.64 229.12C328.2 225.12 330.77 221.49 333.21 218.12C335.65 214.75 337.98 211.59 340.21 208.82C343.742 204.445 347.614 200.356 351.79 196.59C353.26 195.25 354.44 194.26 355.25 193.59L356.17 192.84L356.52 192.6Z" fill="#263238"/>
<path d="M318.34 241.95C318.196 241.536 318.098 241.106 318.05 240.67C317.89 239.85 317.7 238.67 317.49 237.16C317.07 234.16 316.63 230.05 316.16 225.49C315.69 220.93 315.16 216.82 314.72 213.86C314.49 212.38 314.29 211.18 314.14 210.35C314.036 209.928 313.983 209.495 313.98 209.06C314.143 209.464 314.267 209.883 314.35 210.31C314.56 211.12 314.82 212.31 315.1 213.79C315.67 216.79 316.23 220.87 316.7 225.43C317.17 229.99 317.57 234 317.88 237.11C318.03 238.51 318.16 239.69 318.26 240.64C318.338 241.072 318.365 241.512 318.34 241.95Z" fill="#263238"/>
<path d="M356.8 234.76C356.298 234.875 355.785 234.939 355.27 234.95C354.27 235.04 352.85 235.16 351.09 235.36C347.57 235.74 342.73 236.43 337.42 237.44C332.11 238.45 327.34 239.57 323.91 240.44C322.19 240.89 320.82 241.28 319.86 241.55C319.371 241.715 318.869 241.838 318.36 241.92C318.82 241.681 319.303 241.487 319.8 241.34C320.73 241.01 322.1 240.56 323.8 240.07C327.21 239.07 331.98 237.87 337.3 236.86C341.848 235.987 346.437 235.346 351.05 234.94C352.81 234.78 354.25 234.72 355.24 234.7C355.761 234.681 356.282 234.701 356.8 234.76Z" fill="#263238"/>
<path d="M301.62 284.66C301.62 284.66 301.51 284.51 301.35 284.19L300.7 282.8C300.13 281.59 299.36 279.8 298.43 277.62C296.58 273.21 294.21 267.05 291.68 260.22C289.15 253.39 286.85 247.22 285.09 242.76C284.23 240.61 283.52 238.83 282.99 237.52C282.77 236.94 282.58 236.52 282.43 236.08C282.346 235.921 282.292 235.748 282.27 235.57C282.373 235.717 282.46 235.875 282.53 236.04L283.19 237.43C283.75 238.64 284.52 240.43 285.45 242.61C287.3 247.02 289.67 253.18 292.2 260.02C294.73 266.86 297.03 273.02 298.79 277.47C299.66 279.62 300.36 281.4 300.89 282.72C301.12 283.29 301.3 283.72 301.46 284.15C301.537 284.312 301.591 284.483 301.62 284.66Z" fill="#263238"/>
<path d="M352.69 268.2C352.534 268.293 352.366 268.364 352.19 268.41L350.7 268.91L345.23 270.68C340.62 272.18 334.23 274.32 327.23 276.68C320.23 279.04 313.83 281.15 309.23 282.55C306.91 283.25 305.02 283.8 303.71 284.15L302.2 284.55C302.025 284.606 301.843 284.639 301.66 284.65C301.816 284.557 301.984 284.486 302.16 284.44L303.65 283.95L309.12 282.17C313.73 280.68 320.12 278.53 327.12 276.17C334.12 273.81 340.52 271.7 345.12 270.3C347.44 269.6 349.33 269.05 350.64 268.7L352.16 268.3C352.332 268.244 352.51 268.21 352.69 268.2Z" fill="#263238"/>
<path d="M331.86 25.62L326.7 27.49L324.5 20.76C320.44 8.35 307.5 1.7 295.6 5.95C283.7 10.2 277.39 23.75 281.45 36.16L283.65 42.89L278.48 44.74C276.509 45.5045 274.909 47 274.013 48.915C273.117 50.83 272.994 53.0168 273.67 55.02L288 98.81C288.297 99.8023 288.791 100.725 289.452 101.522C290.113 102.32 290.928 102.977 291.848 103.453C292.767 103.93 293.774 104.217 294.806 104.297C295.839 104.377 296.878 104.249 297.86 103.92L351.23 84.82C353.225 84.0567 354.847 82.5501 355.755 80.6165C356.663 78.683 356.787 76.4728 356.1 74.45L341.76 30.64C341.455 29.6504 340.953 28.7323 340.286 27.9404C339.618 27.1485 338.798 26.499 337.875 26.0306C336.951 25.5623 335.942 25.2845 334.909 25.214C333.876 25.1434 332.839 25.2815 331.86 25.62ZM291.18 32.62C290.084 29.3931 290.279 25.8675 291.724 22.7809C293.168 19.6944 295.75 17.2861 298.93 16.06C300.502 15.5227 302.166 15.3075 303.823 15.4273C305.48 15.5471 307.096 15.9994 308.574 16.7572C310.052 17.515 311.363 18.5628 312.427 19.8381C313.492 21.1134 314.289 22.5901 314.77 24.18L316.97 30.91L293.34 39.39L291.18 32.62ZM321.18 71.47L324.84 82.65C324.909 82.8755 324.887 83.1191 324.779 83.3286C324.671 83.5381 324.484 83.6966 324.26 83.77L319.14 85.61C318.929 85.6762 318.701 85.6567 318.504 85.5556C318.308 85.4545 318.159 85.28 318.09 85.07L314.43 73.88C312.395 73.7691 310.443 73.0394 308.835 71.7883C307.226 70.5373 306.038 68.8248 305.43 66.88C304.558 64.309 304.715 61.5001 305.869 59.0427C307.023 56.5853 309.084 54.6705 311.62 53.7C312.87 53.2709 314.194 53.0982 315.513 53.1921C316.832 53.286 318.118 53.6447 319.295 54.2467C320.472 54.8487 321.515 55.6817 322.363 56.696C323.211 57.7103 323.846 58.885 324.23 60.15C324.886 62.1305 324.948 64.2599 324.408 66.2752C323.868 68.2905 322.749 70.1034 321.19 71.49L321.18 71.47Z" fill="url(#paint1_linear)"/>
<path d="M326.48 27.35C326.53 27.48 316.93 31.08 305.04 35.35C293.15 39.62 283.48 43.02 283.43 42.89C283.38 42.76 292.97 39.16 304.87 34.89C316.77 30.62 326.43 27.21 326.48 27.35Z" fill="#263238"/>
<path d="M337.81 29.19C337.86 29.2719 337.9 29.3591 337.93 29.45L338.22 30.23C338.48 30.96 338.83 31.98 339.29 33.23L343.13 44.49C344.73 49.23 346.64 54.85 348.75 61.09C349.75 64.23 350.94 67.48 352.03 70.92C352.629 72.6851 352.884 74.5489 352.78 76.41C352.699 77.3783 352.423 78.3204 351.97 79.18C351.492 80.0373 350.85 80.7917 350.08 81.4C348.543 82.5341 346.83 83.409 345.01 83.99L339.85 85.85L330.11 89.33C323.9 91.54 318.31 93.54 313.59 95.21L302.44 99.09L299.44 100.09L298.64 100.35C298.55 100.384 298.456 100.407 298.36 100.42L298.62 100.3L299.4 99.99L302.4 98.85L313.49 94.78L329.96 88.78L339.7 85.27L344.85 83.41C346.617 82.8418 348.281 81.9944 349.78 80.9C350.501 80.3467 351.098 79.6475 351.53 78.8479C351.963 78.0483 352.222 77.1665 352.29 76.26C352.384 74.4631 352.136 72.6647 351.56 70.96C350.49 67.56 349.35 64.28 348.32 61.15C346.24 54.89 344.37 49.26 342.8 44.51C341.23 39.76 340 35.97 339.12 33.28C338.7 31.98 338.37 30.95 338.12 30.22L337.88 29.42C337.83 29.29 337.81 29.19 337.81 29.19Z" fill="#263238"/>
<path d="M309.66 15.4C309.66 15.4 309.13 15.13 308.15 14.73C306.751 14.2021 305.275 13.9081 303.78 13.86C301.569 13.7795 299.368 14.1965 297.34 15.08C294.864 16.1708 292.746 17.9387 291.23 20.18C289.698 22.4184 288.879 25.0677 288.88 27.78C288.906 29.996 289.243 32.1975 289.88 34.32C290.41 36.15 290.95 37.6 291.31 38.6C291.525 39.1109 291.696 39.6396 291.82 40.18C291.543 39.7013 291.309 39.1994 291.12 38.68C290.7 37.68 290.12 36.26 289.53 34.43C288.816 32.2803 288.432 30.0348 288.39 27.77C288.365 24.9596 289.202 22.2091 290.79 19.89C292.212 17.7834 294.159 16.0846 296.439 14.9621C298.72 13.8395 301.253 13.3321 303.79 13.49C305.319 13.5717 306.82 13.9309 308.22 14.55C308.592 14.7242 308.953 14.9212 309.3 15.14C309.55 15.3 309.67 15.38 309.66 15.4Z" fill="#263238"/>
<path d="M310.11 54.49C310.273 54.3927 310.443 54.3091 310.62 54.24C311.118 54.0141 311.633 53.8269 312.16 53.68C313.007 53.436 313.88 53.2917 314.76 53.25C315.953 53.1871 317.146 53.3639 318.27 53.77C320.82 54.67 323.18 57.28 324.34 60.77C324.896 62.6429 324.896 64.6371 324.34 66.51C323.712 68.5549 322.589 70.4132 321.07 71.92L321.14 71.66C322.47 75.3 323.91 79.27 325.42 83.39L325.51 83.65L325.26 83.73L322.97 84.5L317.97 86.16L317.73 86.25L317.65 86C316.28 81.85 314.78 77.94 313.65 74.21L313.86 74.38C311.908 74.2099 310.049 73.473 308.51 72.26C307.11 71.1896 305.963 69.8239 305.15 68.26C304.426 66.8686 304.062 65.3182 304.09 63.75C304.128 62.4223 304.412 61.1132 304.93 59.89C305.651 58.144 306.829 56.6242 308.34 55.49C308.861 55.069 309.445 54.7316 310.07 54.49C309.508 54.8254 308.964 55.1892 308.44 55.58C307.045 56.7629 305.977 58.2851 305.34 60C304.793 61.2863 304.537 62.6778 304.59 64.0747C304.644 65.4716 305.006 66.8394 305.65 68.08C306.448 69.5821 307.564 70.8925 308.92 71.92C310.391 73.0717 312.168 73.767 314.03 73.92H314.2V74.08C315.31 77.79 316.82 81.68 318.2 85.85L317.87 85.68L322.87 84.01L325.15 83.25L324.99 83.58C323.49 79.45 322.06 75.48 320.74 71.83L320.68 71.69L320.8 71.57C322.261 70.1314 323.346 68.3561 323.96 66.4C324.496 64.6092 324.496 62.7008 323.96 60.91C322.87 57.55 320.62 54.99 318.18 54.1C317.1 53.6835 315.947 53.4896 314.79 53.53C313.923 53.5456 313.06 53.663 312.22 53.88C310.83 54.23 310.13 54.57 310.11 54.49Z" fill="#263238"/>
<path d="M279.21 343.26L179.34 342.8C176.483 342.788 173.656 342.214 171.021 341.109C168.386 340.004 165.995 338.392 163.983 336.362C161.972 334.333 160.38 331.928 159.298 329.283C158.217 326.639 157.667 323.807 157.68 320.95L158.74 70.55C158.766 64.778 161.084 59.2527 165.183 55.1891C169.283 51.1254 174.828 48.8561 180.6 48.88L280.48 49.34C283.336 49.3531 286.162 49.9287 288.796 51.0338C291.43 52.139 293.82 53.7521 295.83 55.7811C297.841 57.81 299.432 60.2151 300.513 62.859C301.594 65.5029 302.143 68.3337 302.13 71.19L301.13 321.6C301.118 324.463 300.541 327.296 299.432 329.935C298.323 332.575 296.704 334.969 294.668 336.982C292.631 338.994 290.217 340.585 287.565 341.662C284.912 342.739 282.073 343.282 279.21 343.26Z" fill="#455A64"/>
<path d="M280.34 57.99L260.97 57.9C259.696 57.9237 258.483 58.4519 257.599 59.3687C256.714 60.2855 256.229 61.516 256.25 62.79V66.3C256.262 66.9317 256.149 67.5595 255.919 68.1477C255.688 68.7358 255.343 69.2728 254.905 69.7278C254.467 70.1828 253.943 70.547 253.364 70.7996C252.785 71.0522 252.162 71.1883 251.53 71.2L213.78 71.02C212.506 70.986 211.297 70.4477 210.42 69.5233C209.542 68.5989 209.068 67.3641 209.1 66.09V62.57C209.13 61.2949 208.653 60.0601 207.773 59.1361C206.894 58.212 205.685 57.6741 204.41 57.64H197.6L180.64 57.49C178.636 57.4808 176.649 57.8673 174.795 58.6273C172.94 59.3873 171.254 60.5058 169.833 61.9189C168.411 63.3319 167.283 65.0116 166.512 66.8617C165.741 68.7117 165.343 70.6957 165.34 72.7L164.34 317.11C164.331 319.111 164.716 321.094 165.473 322.946C166.231 324.798 167.346 326.482 168.755 327.903C170.164 329.324 171.839 330.454 173.684 331.227C175.529 332 177.509 332.402 179.51 332.41L279.19 332.87C281.191 332.879 283.175 332.494 285.027 331.737C286.88 330.979 288.565 329.865 289.987 328.456C291.409 327.047 292.539 325.372 293.313 323.527C294.088 321.681 294.491 319.701 294.5 317.7L295.5 73.29C295.509 71.29 295.124 69.3077 294.368 67.4564C293.611 65.6051 292.497 63.921 291.089 62.5002C289.681 61.0795 288.007 59.9499 286.163 59.1761C284.319 58.4022 282.34 57.9992 280.34 57.99Z" fill="white"/>
<path d="M266.91 300.27L192.79 299.93C192.363 299.856 191.982 299.621 191.724 299.272C191.467 298.924 191.355 298.489 191.41 298.06L191.49 278.67C191.49 277.67 192.12 276.81 192.88 276.82L267.01 277.16C267.78 277.16 268.39 278 268.39 279.03L268.34 298.42C268.34 299.49 267.68 300.27 266.91 300.27Z" fill="url(#paint2_linear)"/>
<path d="M219.824 285.716V290.989H222.32V292H218.659V285.716H219.824ZM224.258 289.675C224.258 290.639 224.631 291.121 225.378 291.121C226.125 291.121 226.499 290.639 226.499 289.675C226.499 288.735 226.125 288.265 225.378 288.265C224.631 288.265 224.258 288.735 224.258 289.675ZM223.093 289.693C223.093 288.146 223.855 287.373 225.378 287.373C226.902 287.373 227.664 288.146 227.664 289.693C227.664 291.237 226.902 292.009 225.378 292.009C223.861 292.009 223.099 291.237 223.093 289.693ZM231.496 288.432C231.305 288.361 231.034 288.326 230.683 288.326C229.877 288.326 229.474 288.77 229.474 289.658C229.474 290.516 229.821 290.945 230.516 290.945C230.85 290.945 231.176 290.866 231.496 290.708V288.432ZM232.66 291.648C232.66 292.996 231.85 293.67 230.23 293.67C229.662 293.67 229.158 293.597 228.718 293.45V292.527C229.167 292.674 229.673 292.747 230.239 292.747C231.077 292.747 231.496 292.396 231.496 291.692C231.15 291.839 230.778 291.912 230.379 291.912C229.008 291.912 228.323 291.164 228.323 289.667C228.323 288.146 229.121 287.386 230.718 287.386C231.254 287.386 231.901 287.449 232.66 287.575V291.648ZM234.928 285.716V286.639H233.763V285.716H234.928ZM234.928 287.386V292H233.763V287.386H234.928ZM236.031 292V287.386H236.932L237.077 288.062C237.519 287.611 238.023 287.386 238.588 287.386C239.681 287.386 240.228 287.954 240.228 289.091V292H239.063V289.091C239.063 288.581 238.81 288.326 238.303 288.326C237.925 288.326 237.556 288.477 237.195 288.779V292H236.031Z" fill="#E8E8E3"/>
<path d="M207.578 129.802L181.859 129.685L181.837 134.405L207.557 134.522L207.578 129.802Z" fill="url(#paint3_linear)"/>
<path opacity="0.1" d="M207.578 129.802L181.859 129.685L181.837 134.405L207.557 134.522L207.578 129.802Z" fill="black"/>
<path d="M282.97 158.77C283.172 158.75 283.37 158.703 283.56 158.63C283.835 158.523 284.075 158.34 284.252 158.103C284.429 157.866 284.535 157.585 284.56 157.29C284.56 155.69 284.56 153.37 284.56 150.4V144.02C284.628 143.564 284.528 143.099 284.28 142.71C284.146 142.522 283.969 142.369 283.763 142.263C283.558 142.157 283.331 142.101 283.1 142.1H281.53H267.09L183.45 141.79C183.235 141.79 183.024 141.841 182.833 141.938C182.642 142.035 182.476 142.177 182.35 142.35C182.108 142.741 182.015 143.206 182.09 143.66C182.09 144.66 182.09 145.66 182.09 146.66C182.09 148.66 182.09 150.66 182.09 152.66C182.09 153.66 182.09 154.66 182.09 155.66C182.07 156.131 182.086 156.602 182.14 157.07C182.191 157.27 182.288 157.456 182.424 157.612C182.559 157.768 182.729 157.891 182.92 157.97C183.116 158.051 183.328 158.085 183.54 158.07H185.73H188.63L210.84 158.19L248.44 158.42L273.79 158.62L280.68 158.7H282.47C282.88 158.7 283.08 158.7 283.08 158.7C283.08 158.7 282.88 158.7 282.47 158.7H280.68H273.79H248.44L210.83 158.58L188.63 158.49H183.53C183.253 158.494 182.978 158.443 182.72 158.34C182.457 158.23 182.223 158.061 182.036 157.846C181.848 157.631 181.713 157.376 181.64 157.1C181.584 156.837 181.561 156.569 181.57 156.3V155.56C181.57 154.56 181.57 153.56 181.57 152.56C181.57 150.56 181.57 148.56 181.57 146.56C181.57 145.56 181.57 144.56 181.57 143.56C181.551 143.294 181.551 143.026 181.57 142.76C181.641 142.318 181.868 141.917 182.209 141.627C182.55 141.338 182.983 141.179 183.43 141.18L267.07 141.64L281.52 141.75H283.08C283.354 141.755 283.623 141.824 283.866 141.95C284.109 142.077 284.319 142.258 284.48 142.48C284.755 142.918 284.869 143.438 284.8 143.95C284.8 144.43 284.8 144.89 284.8 145.35C284.8 147.17 284.8 148.83 284.8 150.35C284.8 153.35 284.73 155.65 284.71 157.25C284.686 157.557 284.574 157.85 284.388 158.095C284.202 158.339 283.949 158.525 283.66 158.63C283.449 158.745 283.209 158.793 282.97 158.77Z" fill="#696969"/>
<path d="M236.64 146.77H189.6V151.18H236.64V146.77Z" fill="url(#paint4_linear)"/>
<path opacity="0.2" d="M236.64 146.77H189.6V151.18H236.64V146.77Z" fill="white"/>
<path d="M207.393 172.861L181.673 172.744L181.652 177.464L207.372 177.58L207.393 172.861Z" fill="url(#paint5_linear)"/>
<path opacity="0.1" d="M207.393 172.861L181.673 172.744L181.652 177.464L207.372 177.58L207.393 172.861Z" fill="black"/>
<path d="M282.34 201.83C282.539 201.806 282.736 201.769 282.93 201.72C283.209 201.632 283.467 201.485 283.686 201.291C283.905 201.096 284.08 200.857 284.2 200.59C284.359 200.187 284.417 199.751 284.37 199.32V197.73C284.37 196.58 284.37 195.26 284.37 193.73V187.37C284.413 186.911 284.312 186.449 284.08 186.05C283.827 185.65 283.441 185.352 282.99 185.21C282.492 185.118 281.985 185.088 281.48 185.12H267.08L183.73 184.81C183.282 184.809 182.85 184.973 182.514 185.269C182.179 185.566 181.964 185.975 181.91 186.42C181.91 187.42 181.91 188.42 181.91 189.42C181.91 191.42 181.91 193.42 181.91 195.42C181.91 196.42 181.91 197.42 181.91 198.42C181.881 198.888 181.904 199.357 181.98 199.82C182.097 200.23 182.355 200.584 182.71 200.82C183.075 201.065 183.512 201.178 183.95 201.14H188.3L210.43 201.26L247.9 201.49L273.16 201.69L280.03 201.77H281.81C282.22 201.77 282.42 201.77 282.42 201.77C282.42 201.77 282.22 201.77 281.81 201.77H280.03H273.16H247.9L210.34 201.74L188.21 201.65H183.84C183.3 201.686 182.763 201.545 182.31 201.25C181.851 200.934 181.519 200.467 181.37 199.93C181.281 199.425 181.254 198.911 181.29 198.4C181.29 197.4 181.29 196.4 181.29 195.4C181.29 193.4 181.29 191.4 181.29 189.4C181.29 188.4 181.29 187.4 181.29 186.34C181.363 185.769 181.642 185.245 182.075 184.865C182.508 184.486 183.064 184.278 183.64 184.28L266.99 184.74L281.38 184.84C281.913 184.813 282.446 184.849 282.97 184.95C283.494 185.117 283.936 185.473 284.21 185.95C284.469 186.39 284.581 186.902 284.53 187.41C284.53 187.89 284.53 188.35 284.53 188.8C284.53 190.62 284.53 192.27 284.48 193.8C284.43 195.33 284.48 196.61 284.48 197.8C284.48 198.37 284.48 198.9 284.48 199.39C284.516 199.836 284.448 200.285 284.28 200.7C284.151 200.976 283.963 201.221 283.73 201.418C283.497 201.615 283.224 201.759 282.93 201.84C282.734 201.874 282.534 201.87 282.34 201.83Z" fill="#696969"/>
<path d="M207.199 217.779L181.479 217.663L181.458 222.382L207.178 222.499L207.199 217.779Z" fill="url(#paint6_linear)"/>
<path opacity="0.1" d="M207.199 217.779L181.479 217.663L181.458 222.382L207.178 222.499L207.199 217.779Z" fill="black"/>
<path d="M282.12 246.75C282.319 246.724 282.516 246.684 282.71 246.63C282.989 246.542 283.247 246.395 283.466 246.201C283.685 246.006 283.86 245.767 283.98 245.5C284.139 245.097 284.197 244.661 284.15 244.23V242.64C284.15 241.49 284.15 240.17 284.15 238.64V232.28C284.193 231.824 284.091 231.366 283.86 230.97C283.613 230.562 283.225 230.26 282.77 230.12C282.272 230.031 281.765 230.005 281.26 230.04H266.86L183.52 229.73C183.071 229.729 182.637 229.892 182.3 230.189C181.963 230.485 181.746 230.895 181.69 231.34C181.69 232.29 181.69 233.34 181.69 234.34C181.69 236.34 181.69 238.34 181.69 240.34C181.69 241.34 181.69 242.34 181.69 243.34C181.661 243.808 181.684 244.277 181.76 244.74C181.877 245.15 182.135 245.504 182.49 245.74C182.855 245.985 183.292 246.098 183.73 246.06H188.08L210.21 246.18L247.68 246.41L272.94 246.61L279.81 246.69H281.59C282 246.69 282.2 246.69 282.2 246.69H281.59H279.81H272.94H247.68L210.2 246.57L188.07 246.49H185.18H183.73C183.19 246.517 182.654 246.374 182.2 246.08C181.739 245.766 181.406 245.298 181.26 244.76C181.17 244.255 181.144 243.741 181.18 243.23C181.18 242.23 181.18 241.23 181.18 240.23C181.18 238.23 181.18 236.23 181.18 234.23C181.18 233.23 181.18 232.23 181.18 231.18C181.253 230.608 181.532 230.083 181.964 229.702C182.397 229.321 182.954 229.11 183.53 229.11L266.88 229.57L281.27 229.68C281.802 229.644 282.337 229.678 282.86 229.78C283.38 229.953 283.82 230.308 284.1 230.78C284.36 231.224 284.472 231.738 284.42 232.25C284.42 232.72 284.42 233.18 284.42 233.64C284.42 235.45 284.42 237.11 284.37 238.64C284.32 240.17 284.37 241.45 284.37 242.64C284.37 243.22 284.37 243.75 284.37 244.23C284.406 244.676 284.338 245.125 284.17 245.54C284.044 245.818 283.857 246.065 283.623 246.262C283.39 246.459 283.115 246.602 282.82 246.68C282.594 246.75 282.356 246.774 282.12 246.75Z" fill="#696969"/>
<path d="M235.62 191.108L188.581 190.895L188.561 195.305L235.6 195.518L235.62 191.108Z" fill="url(#paint7_linear)"/>
<path opacity="0.2" d="M235.62 191.108L188.581 190.895L188.561 195.305L235.6 195.518L235.62 191.108Z" fill="white"/>
<path d="M192.83 238.58C192.85 238.862 192.811 239.145 192.717 239.411C192.622 239.678 192.474 239.922 192.281 240.128C192.089 240.335 191.856 240.5 191.596 240.613C191.337 240.725 191.058 240.783 190.775 240.783C190.492 240.783 190.213 240.725 189.954 240.613C189.694 240.5 189.461 240.335 189.268 240.128C189.076 239.922 188.928 239.678 188.833 239.411C188.739 239.145 188.7 238.862 188.72 238.58C188.7 238.298 188.739 238.015 188.833 237.749C188.928 237.482 189.076 237.238 189.268 237.032C189.461 236.825 189.694 236.66 189.954 236.547C190.213 236.435 190.492 236.377 190.775 236.377C191.058 236.377 191.337 236.435 191.596 236.547C191.856 236.66 192.089 236.825 192.281 237.032C192.474 237.238 192.622 237.482 192.717 237.749C192.811 238.015 192.85 238.298 192.83 238.58Z" fill="url(#paint8_linear)"/>
<path d="M199.2 238.61C199.173 239.011 199.029 239.395 198.786 239.715C198.543 240.035 198.212 240.277 197.834 240.411C197.455 240.546 197.046 240.566 196.655 240.471C196.265 240.376 195.911 240.168 195.638 239.874C195.364 239.58 195.182 239.213 195.114 238.817C195.047 238.421 195.096 238.014 195.257 237.646C195.418 237.278 195.682 236.965 196.019 236.745C196.355 236.525 196.748 236.409 197.15 236.41C197.713 236.431 198.245 236.674 198.63 237.086C199.014 237.499 199.219 238.047 199.2 238.61Z" fill="url(#paint9_linear)"/>
<path d="M205.57 238.64C205.542 239.043 205.397 239.429 205.152 239.75C204.907 240.07 204.573 240.312 204.192 240.445C203.81 240.578 203.398 240.595 203.007 240.496C202.616 240.396 202.262 240.184 201.991 239.885C201.719 239.586 201.541 239.214 201.479 238.815C201.417 238.416 201.474 238.008 201.642 237.641C201.811 237.274 202.083 236.964 202.426 236.751C202.768 236.537 203.166 236.429 203.57 236.44C204.125 236.471 204.646 236.719 205.02 237.131C205.394 237.542 205.592 238.084 205.57 238.64Z" fill="url(#paint10_linear)"/>
<path d="M211.95 238.67C211.923 239.071 211.779 239.455 211.536 239.775C211.293 240.095 210.962 240.337 210.584 240.471C210.205 240.606 209.796 240.626 209.405 240.531C209.015 240.436 208.661 240.228 208.388 239.934C208.114 239.64 207.932 239.273 207.864 238.877C207.797 238.481 207.846 238.074 208.007 237.706C208.168 237.338 208.432 237.025 208.769 236.805C209.105 236.585 209.498 236.469 209.9 236.47C210.463 236.491 210.995 236.734 211.38 237.146C211.764 237.559 211.969 238.107 211.95 238.67Z" fill="url(#paint11_linear)"/>
<path d="M218.34 238.7C218.313 239.101 218.169 239.485 217.926 239.805C217.683 240.125 217.352 240.367 216.974 240.501C216.595 240.636 216.186 240.656 215.795 240.561C215.405 240.466 215.052 240.258 214.778 239.964C214.504 239.67 214.322 239.303 214.254 238.907C214.187 238.511 214.236 238.104 214.397 237.736C214.558 237.368 214.822 237.055 215.159 236.835C215.495 236.615 215.888 236.499 216.29 236.5C216.853 236.521 217.385 236.764 217.77 237.176C218.154 237.589 218.359 238.137 218.34 238.7Z" fill="url(#paint12_linear)"/>
<path d="M224.69 238.73C224.663 239.131 224.519 239.515 224.276 239.835C224.033 240.155 223.702 240.397 223.324 240.531C222.945 240.666 222.536 240.686 222.145 240.591C221.755 240.496 221.402 240.288 221.128 239.994C220.854 239.7 220.672 239.333 220.604 238.937C220.537 238.541 220.586 238.134 220.747 237.766C220.908 237.398 221.172 237.085 221.509 236.865C221.845 236.645 222.238 236.529 222.64 236.53C222.919 236.539 223.194 236.603 223.449 236.719C223.703 236.834 223.932 236.999 224.123 237.204C224.313 237.408 224.461 237.648 224.559 237.91C224.656 238.172 224.701 238.451 224.69 238.73Z" fill="url(#paint13_linear)"/>
<path d="M231.07 238.76C231.043 239.161 230.899 239.545 230.656 239.865C230.413 240.185 230.082 240.427 229.704 240.561C229.325 240.696 228.916 240.716 228.525 240.621C228.135 240.526 227.781 240.318 227.508 240.024C227.234 239.73 227.052 239.363 226.984 238.967C226.917 238.571 226.966 238.164 227.127 237.796C227.287 237.428 227.552 237.115 227.889 236.895C228.225 236.675 228.618 236.559 229.02 236.56C229.583 236.581 230.115 236.824 230.5 237.236C230.884 237.649 231.089 238.197 231.07 238.76Z" fill="url(#paint14_linear)"/>
<path d="M237.44 238.79C237.413 239.191 237.269 239.575 237.026 239.895C236.783 240.215 236.452 240.457 236.074 240.591C235.695 240.726 235.286 240.746 234.895 240.651C234.505 240.556 234.152 240.348 233.878 240.054C233.604 239.76 233.422 239.393 233.354 238.997C233.287 238.601 233.336 238.194 233.497 237.826C233.658 237.458 233.922 237.145 234.259 236.925C234.595 236.705 234.988 236.589 235.39 236.59C235.953 236.611 236.485 236.854 236.87 237.266C237.254 237.679 237.459 238.227 237.44 238.79Z" fill="url(#paint15_linear)"/>
<path d="M243.81 238.82C243.781 239.22 243.635 239.603 243.392 239.922C243.148 240.24 242.816 240.481 242.438 240.614C242.059 240.747 241.65 240.766 241.26 240.67C240.871 240.573 240.518 240.365 240.245 240.071C239.972 239.777 239.791 239.409 239.724 239.014C239.657 238.618 239.707 238.212 239.868 237.844C240.029 237.476 240.294 237.164 240.63 236.945C240.966 236.725 241.359 236.609 241.76 236.61C242.04 236.619 242.316 236.683 242.571 236.8C242.826 236.916 243.056 237.082 243.246 237.287C243.437 237.493 243.585 237.734 243.682 237.997C243.778 238.26 243.822 238.54 243.81 238.82Z" fill="url(#paint16_linear)"/>
<g opacity="0.2">
<path opacity="0.2" d="M192.83 238.58C192.85 238.862 192.811 239.145 192.717 239.411C192.622 239.678 192.474 239.922 192.281 240.128C192.089 240.335 191.856 240.5 191.596 240.613C191.337 240.725 191.058 240.783 190.775 240.783C190.492 240.783 190.213 240.725 189.954 240.613C189.694 240.5 189.461 240.335 189.268 240.128C189.076 239.922 188.928 239.678 188.833 239.411C188.739 239.145 188.7 238.862 188.72 238.58C188.7 238.298 188.739 238.015 188.833 237.749C188.928 237.482 189.076 237.238 189.268 237.032C189.461 236.825 189.694 236.66 189.954 236.547C190.213 236.435 190.492 236.377 190.775 236.377C191.058 236.377 191.337 236.435 191.596 236.547C191.856 236.66 192.089 236.825 192.281 237.032C192.474 237.238 192.622 237.482 192.717 237.749C192.811 238.015 192.85 238.298 192.83 238.58Z" fill="white"/>
<path opacity="0.2" d="M199.2 238.61C199.173 239.011 199.029 239.395 198.786 239.715C198.543 240.035 198.212 240.277 197.834 240.411C197.455 240.546 197.046 240.566 196.655 240.471C196.265 240.376 195.911 240.168 195.638 239.874C195.364 239.58 195.182 239.213 195.114 238.817C195.047 238.421 195.096 238.014 195.257 237.646C195.418 237.278 195.682 236.965 196.019 236.745C196.355 236.525 196.748 236.409 197.15 236.41C197.713 236.431 198.245 236.674 198.63 237.086C199.014 237.499 199.219 238.047 199.2 238.61Z" fill="white"/>
<path opacity="0.2" d="M205.57 238.64C205.542 239.043 205.397 239.429 205.152 239.75C204.907 240.07 204.573 240.312 204.192 240.445C203.81 240.578 203.398 240.595 203.007 240.496C202.616 240.396 202.262 240.184 201.991 239.885C201.719 239.586 201.541 239.214 201.479 238.815C201.417 238.416 201.474 238.008 201.642 237.641C201.811 237.274 202.083 236.964 202.426 236.751C202.768 236.537 203.166 236.429 203.57 236.44C204.125 236.471 204.646 236.719 205.02 237.131C205.394 237.542 205.592 238.084 205.57 238.64Z" fill="white"/>
<path opacity="0.2" d="M211.95 238.67C211.923 239.071 211.779 239.455 211.536 239.775C211.293 240.095 210.962 240.337 210.584 240.471C210.205 240.606 209.796 240.626 209.405 240.531C209.015 240.436 208.661 240.228 208.388 239.934C208.114 239.64 207.932 239.273 207.864 238.877C207.797 238.481 207.846 238.074 208.007 237.706C208.168 237.338 208.432 237.025 208.769 236.805C209.105 236.585 209.498 236.469 209.9 236.47C210.463 236.491 210.995 236.734 211.38 237.146C211.764 237.559 211.969 238.107 211.95 238.67Z" fill="white"/>
<path opacity="0.2" d="M218.34 238.7C218.313 239.101 218.169 239.485 217.926 239.805C217.683 240.125 217.352 240.367 216.974 240.501C216.595 240.636 216.186 240.656 215.795 240.561C215.405 240.466 215.052 240.258 214.778 239.964C214.504 239.67 214.322 239.303 214.254 238.907C214.187 238.511 214.236 238.104 214.397 237.736C214.558 237.368 214.822 237.055 215.159 236.835C215.495 236.615 215.888 236.499 216.29 236.5C216.853 236.521 217.385 236.764 217.77 237.176C218.154 237.589 218.359 238.137 218.34 238.7Z" fill="white"/>
<path opacity="0.2" d="M224.69 238.73C224.663 239.131 224.519 239.515 224.276 239.835C224.033 240.155 223.702 240.397 223.324 240.531C222.945 240.666 222.536 240.686 222.145 240.591C221.755 240.496 221.402 240.288 221.128 239.994C220.854 239.7 220.672 239.333 220.604 238.937C220.537 238.541 220.586 238.134 220.747 237.766C220.908 237.398 221.172 237.085 221.509 236.865C221.845 236.645 222.238 236.529 222.64 236.53C222.919 236.539 223.194 236.603 223.449 236.719C223.703 236.834 223.932 236.999 224.123 237.204C224.313 237.408 224.461 237.648 224.559 237.91C224.656 238.172 224.701 238.451 224.69 238.73Z" fill="white"/>
<path opacity="0.2" d="M231.07 238.76C231.043 239.161 230.899 239.545 230.656 239.865C230.413 240.185 230.082 240.427 229.704 240.561C229.325 240.696 228.916 240.716 228.525 240.621C228.135 240.526 227.781 240.318 227.508 240.024C227.234 239.73 227.052 239.363 226.984 238.967C226.917 238.571 226.966 238.164 227.127 237.796C227.287 237.428 227.552 237.115 227.889 236.895C228.225 236.675 228.618 236.559 229.02 236.56C229.583 236.581 230.115 236.824 230.5 237.236C230.884 237.649 231.089 238.197 231.07 238.76Z" fill="white"/>
<path opacity="0.2" d="M237.44 238.79C237.413 239.191 237.269 239.575 237.026 239.895C236.783 240.215 236.452 240.457 236.074 240.591C235.695 240.726 235.286 240.746 234.895 240.651C234.505 240.556 234.152 240.348 233.878 240.054C233.604 239.76 233.422 239.393 233.354 238.997C233.287 238.601 233.336 238.194 233.497 237.826C233.658 237.458 233.922 237.145 234.259 236.925C234.595 236.705 234.988 236.589 235.39 236.59C235.953 236.611 236.485 236.854 236.87 237.266C237.254 237.679 237.459 238.227 237.44 238.79Z" fill="white"/>
<path opacity="0.2" d="M243.81 238.82C243.781 239.22 243.635 239.603 243.392 239.922C243.148 240.24 242.816 240.481 242.438 240.614C242.059 240.747 241.65 240.766 241.26 240.67C240.871 240.573 240.518 240.365 240.245 240.071C239.972 239.777 239.791 239.409 239.724 239.014C239.657 238.618 239.707 238.212 239.868 237.844C240.029 237.476 240.294 237.164 240.63 236.945C240.966 236.725 241.359 236.609 241.76 236.61C242.04 236.619 242.316 236.683 242.571 236.8C242.826 236.916 243.056 237.082 243.246 237.287C243.437 237.493 243.585 237.734 243.682 237.997C243.778 238.26 243.822 238.54 243.81 238.82Z" fill="white"/>
</g>
<path d="M234.76 94.49C235.455 94.1841 236.044 93.6806 236.455 93.0423C236.866 92.404 237.079 91.659 237.07 90.9C237.096 90.4066 237.021 89.9131 236.85 89.4496C236.679 88.986 236.416 88.5621 236.075 88.2037C235.735 87.8453 235.326 87.5599 234.872 87.3649C234.418 87.1699 233.929 87.0693 233.435 87.0693C232.941 87.0693 232.452 87.1699 231.998 87.3649C231.544 87.5599 231.135 87.8453 230.795 88.2037C230.454 88.5621 230.191 88.986 230.02 89.4496C229.849 89.9131 229.774 90.4066 229.8 90.9C229.783 91.6643 229.994 92.4164 230.405 93.0609C230.816 93.7053 231.41 94.2132 232.11 94.52C226.52 95.36 226.77 101.45 226.77 101.45L240.01 101.51C240.01 101.51 240.34 95.29 234.76 94.49Z" fill="url(#paint17_linear)"/>
<path opacity="0.1" d="M234.76 94.49C235.455 94.1841 236.044 93.6806 236.455 93.0423C236.866 92.404 237.079 91.659 237.07 90.9C237.096 90.4066 237.021 89.9131 236.85 89.4496C236.679 88.986 236.416 88.5621 236.075 88.2037C235.735 87.8453 235.326 87.5599 234.872 87.3649C234.418 87.1699 233.929 87.0693 233.435 87.0693C232.941 87.0693 232.452 87.1699 231.998 87.3649C231.544 87.5599 231.135 87.8453 230.795 88.2037C230.454 88.5621 230.191 88.986 230.02 89.4496C229.849 89.9131 229.774 90.4066 229.8 90.9C229.783 91.6643 229.994 92.4164 230.405 93.0609C230.816 93.7053 231.41 94.2132 232.11 94.52C226.52 95.36 226.77 101.45 226.77 101.45L240.01 101.51C240.01 101.51 240.34 95.29 234.76 94.49Z" fill="black"/>
<path d="M256.279 105.393L209.089 105.179L209.064 110.819L256.253 111.033L256.279 105.393Z" fill="url(#paint18_linear)"/>
<path opacity="0.2" d="M256.279 105.393L209.089 105.179L209.064 110.819L256.253 111.033L256.279 105.393Z" fill="white"/>
<path d="M82.78 134.62C82.6286 134.651 82.4746 134.668 82.32 134.67L80.96 134.77C80.2201 134.814 79.4846 134.914 78.76 135.07C78.2957 135.132 77.8351 135.219 77.38 135.33L75.83 135.76C73.1874 136.571 70.6947 137.807 68.45 139.42C65.4917 141.573 63.0212 144.327 61.2 147.5C60.1295 149.329 59.2739 151.275 58.65 153.3C58.0065 155.506 57.637 157.783 57.55 160.08C57.4903 161.29 57.5103 162.503 57.61 163.71C57.61 164.32 57.78 164.93 57.85 165.55C57.927 166.174 58.0439 166.791 58.2 167.4C58.7695 169.945 59.7131 172.392 61 174.66C63.7477 179.574 68.0242 183.458 73.18 185.72C75.8966 186.897 78.8108 187.552 81.77 187.65C84.8257 187.818 87.8844 187.379 90.77 186.36L91.65 186.04H91.76L91.87 186.09L104.48 192.49L104.11 192.81C102.76 188.63 101.45 184.58 100.2 180.69L100.15 180.54L100.26 180.43C103.324 177.351 105.599 173.578 106.89 169.43C108.059 165.64 108.4 161.643 107.89 157.71C107.438 154.216 106.31 150.843 104.57 147.78C103.083 145.142 101.159 142.775 98.88 140.78C95.6272 137.943 91.6853 136.012 87.45 135.18L85.45 134.85L84 134.75L83.11 134.68H82.81H83.11H84L85.46 134.74L87.46 135.04C89.2761 135.384 91.0521 135.913 92.76 136.62C95.0296 137.642 97.1519 138.964 99.07 140.55C104.143 144.918 107.429 151.002 108.3 157.64C108.832 161.613 108.505 165.654 107.34 169.49C106.038 173.723 103.732 177.579 100.62 180.73L100.68 180.46L104.6 192.58L104.8 193.19L104.23 192.9L91.59 186.49H91.81L90.92 186.82C87.9811 187.864 84.864 188.313 81.75 188.14C78.7246 188.024 75.7472 187.346 72.97 186.14C67.712 183.826 63.3566 179.854 60.57 174.83C59.2623 172.519 58.3083 170.024 57.74 167.43C57.5743 166.813 57.4573 166.185 57.39 165.55C57.31 164.92 57.18 164.3 57.15 163.68C56.8808 160.119 57.2534 156.539 58.25 153.11C58.8911 151.055 59.7704 149.081 60.87 147.23C62.7388 144.028 65.2641 141.257 68.28 139.1C70.5597 137.491 73.0908 136.271 75.77 135.49L77.34 135.08C77.8019 134.974 78.2693 134.894 78.74 134.84C79.4694 134.702 80.2081 134.618 80.95 134.59H82.32L82.78 134.62Z" fill="url(#paint19_linear)"/>
<path d="M88.49 157.97H86.64L82.64 152.35V148.66C82.64 148.66 79.79 148.49 80.12 153.32C80.45 158.15 80.12 156.92 80.12 156.92C80.12 156.92 74.05 156.92 73.55 157.47C73.05 158.02 73.01 163.87 72.95 167.14C72.9112 167.93 73.137 168.71 73.5916 169.356C74.0463 170.003 74.7039 170.479 75.46 170.71C75.6729 170.761 75.891 170.788 76.11 170.79C77.62 170.79 85.35 169.56 85.35 169.56H88.55L88.49 157.97Z" fill="url(#paint20_linear)"/>
<path d="M93.78 156.96L92.64 169.6H89.48V157.21L93.78 156.96Z" fill="url(#paint21_linear)"/>
<path d="M131.47 414.29V405.73L116.14 405.63L116.01 418.55L117.01 418.62C121.24 418.9 138.53 419.3 141.36 418.42C144.47 417.49 131.47 414.29 131.47 414.29Z" fill="url(#paint22_linear)"/>
<path d="M141.68 417.62C141.68 417.76 135.94 417.88 128.87 417.88C121.8 417.88 116.06 417.76 116.06 417.62C116.06 417.48 121.79 417.36 128.87 417.36C135.95 417.36 141.68 417.49 141.68 417.62Z" fill="#263238"/>
<path d="M131.74 416.03C131.61 415.97 131.74 415.51 132.05 415.03C132.36 414.55 132.78 414.34 132.88 414.44C132.98 414.54 132.77 414.92 132.47 415.34C132.17 415.76 131.87 416.1 131.74 416.03Z" fill="#263238"/>
<path d="M132.71 416.6C132.58 416.55 132.65 416.04 132.95 415.51C133.25 414.98 133.65 414.65 133.76 414.74C133.87 414.83 133.68 415.26 133.41 415.74C133.14 416.22 132.85 416.65 132.71 416.6Z" fill="#263238"/>
<path d="M120.68 417.58C120.62 417.58 120.39 417.39 120.06 417.02C119.658 416.528 119.209 416.076 118.72 415.67C118.239 415.289 117.667 415.04 117.06 414.95C116.59 414.88 116.29 414.95 116.26 414.88C116.23 414.81 116.52 414.61 117.07 414.58C117.797 414.557 118.508 414.798 119.07 415.26C119.602 415.689 120.053 416.211 120.4 416.8C120.62 417.24 120.74 417.54 120.68 417.58Z" fill="#263238"/>
<path d="M131.78 414.42C131.86 414.55 131.6 414.84 131.16 415C130.72 415.16 130.33 415.11 130.31 415C130.29 414.89 130.59 414.69 130.98 414.54C131.37 414.39 131.71 414.3 131.78 414.42Z" fill="#263238"/>
<path d="M131.54 413.6C131.54 413.74 131.15 413.86 130.63 413.87C130.11 413.88 129.7 413.77 129.71 413.62C129.72 413.47 130.13 413.36 130.62 413.35C131.11 413.34 131.53 413.49 131.54 413.6Z" fill="#263238"/>
<path d="M169.22 414.29V405.73L153.89 405.63L153.76 418.42L154.76 418.49C158.99 418.77 176.28 419.3 179.12 418.42C182.23 417.49 169.22 414.29 169.22 414.29Z" fill="url(#paint23_linear)"/>
<path d="M179.43 417.64C179.43 417.78 173.69 417.9 166.62 417.9C159.55 417.9 153.81 417.78 153.81 417.64C153.81 417.5 159.55 417.37 166.62 417.37C173.69 417.37 179.43 417.49 179.43 417.64Z" fill="#263238"/>
<path d="M169.49 416.03C169.36 415.97 169.49 415.51 169.8 415.03C170.11 414.55 170.53 414.34 170.63 414.44C170.73 414.54 170.52 414.92 170.22 415.34C169.92 415.76 169.62 416.1 169.49 416.03Z" fill="#263238"/>
<path d="M170.47 416.6C170.33 416.55 170.4 416.04 170.7 415.51C171 414.98 171.4 414.65 171.51 414.74C171.62 414.83 171.44 415.26 171.16 415.74C170.88 416.22 170.6 416.65 170.47 416.6Z" fill="#263238"/>
<path d="M158.43 417.58C158.37 417.58 158.14 417.39 157.81 417.02C157.408 416.528 156.959 416.076 156.47 415.67C155.989 415.289 155.417 415.04 154.81 414.95C154.34 414.88 154.04 414.95 154.01 414.88C153.98 414.81 154.27 414.61 154.82 414.58C155.546 414.561 156.256 414.802 156.82 415.26C157.35 415.689 157.797 416.211 158.14 416.8C158.34 417.24 158.49 417.54 158.43 417.58Z" fill="#263238"/>
<path d="M169.54 414.42C169.61 414.55 169.35 414.84 168.91 415C168.47 415.16 168.08 415.11 168.06 415C168.04 414.89 168.35 414.69 168.73 414.54C169.11 414.39 169.46 414.3 169.54 414.42Z" fill="#263238"/>
<path d="M169.34 413.6C169.34 413.74 168.95 413.86 168.43 413.87C167.91 413.88 167.5 413.77 167.51 413.62C167.52 413.47 167.93 413.36 168.43 413.35C168.93 413.34 169.28 413.49 169.34 413.6Z" fill="#263238"/>
<path d="M225.69 160.39C225.29 159.98 224.31 160.17 224.31 160.17C224.404 159.597 224.404 159.013 224.31 158.44C224.13 157.87 222.87 157.98 222.87 157.98C222.812 157.508 222.812 157.032 222.87 156.56C222.881 156.457 222.859 156.353 222.807 156.263C222.754 156.173 222.675 156.102 222.58 156.06C221.984 155.816 221.344 155.697 220.7 155.71C219.92 155.16 223.05 150.79 224.21 149.4C225.37 148.01 225.16 146.91 224.12 146.91C223.42 146.91 219.77 151.11 218.66 152.52C217.55 153.93 214.56 157.85 214.46 154.72C214.36 151.59 213.1 149.22 212.32 148.82C211.54 148.42 210.68 149.36 211.12 150.23C211.492 151.22 211.727 152.256 211.82 153.31C211.925 154.154 211.885 155.01 211.7 155.84C211.373 157.38 210.925 158.891 210.36 160.36L210.28 160.31L186.88 182.74C185.46 184.08 157.1 181.15 151.42 180.54C149.485 180.267 147.534 180.133 145.58 180.14C143.11 180.25 142.67 180.6 140.21 180.64C133.998 180.706 127.8 181.248 121.67 182.26C118.893 182.731 116.298 183.956 114.171 185.803C112.044 187.65 110.466 190.046 109.61 192.73C103.88 210.62 90.9 252.99 88.61 276.8C86.8735 279.935 85.3112 283.163 83.93 286.47C82.32 290.85 82.71 290.99 83.25 291.1C84.7 291.36 86.37 283.51 86.99 285.4C87.61 287.29 83.84 294.78 85.37 294.99C87.37 295.28 88.96 286.99 89.14 286.33C89.32 285.67 90.33 285.89 90.14 286.5C89.85 287.38 87.04 296.71 88.99 297.01C90.08 297.18 90.2 295.2 90.2 295.2C90.2 295.2 92.2 286.28 93.1 286.45C94 286.62 93.05 291.9 92.59 293.66C92.13 295.42 92.77 296.32 93.71 295.88C94.35 295.58 95.88 290.24 96.3 288.49C96.72 286.74 97.76 281.93 99.17 284.72C100.58 287.51 102.72 289.14 103.61 289.17C103.808 289.147 103.995 289.065 104.147 288.935C104.298 288.805 104.407 288.633 104.46 288.441C104.513 288.248 104.507 288.044 104.442 287.855C104.378 287.666 104.259 287.501 104.1 287.38C103.341 286.647 102.691 285.808 102.17 284.89C101.708 284.171 101.37 283.38 101.17 282.55C100.773 280.89 100.541 279.195 100.48 277.49L100.31 276.49C102.55 265.39 109.01 232.85 118.31 212.06L122.13 219.92L123.78 225.73L113.61 250.87L157.02 250.3L150.55 225.36L158.41 199.36C166.92 199.55 188.78 199.87 192.41 198.23C196.99 196.23 220.69 166.31 220.69 166.31C222.29 165.03 223.92 163.66 225.12 162.47C225.15 162.43 226.56 161.28 225.69 160.39Z" fill="#FFBE9D"/>
<path d="M111.71 232.33C112.97 228.03 119.44 206.78 119.44 206.78C119.44 206.78 122.61 224.11 121.78 226.19C121.01 227.98 120.097 229.706 119.05 231.35C111.71 242.53 112.67 248.12 112.67 248.12L157.01 246.76C157.12 240.56 153.45 226.15 152.68 223.85C151.91 221.55 154.46 214.01 154.46 214.01C154.46 214.01 159.46 208.92 159.28 206.3C159.186 203.946 158.891 201.604 158.4 199.3L185.4 200.3L184.56 181.99L145.77 178.11C144.43 181.93 132.22 180.11 132.22 180.11C119.03 180.54 118.22 182.97 112.74 187.22C107.26 191.47 98.18 228.04 98.18 228.04L111.71 232.33Z" fill="url(#paint24_linear)"/>
<path d="M137.93 228.01C137.161 228.147 136.379 228.188 135.6 228.13C134.15 228.13 132.16 228.03 129.97 227.81C127.78 227.59 125.8 227.28 124.38 227C123.606 226.901 122.846 226.706 122.12 226.42C122.899 226.408 123.677 226.481 124.44 226.64C125.87 226.82 127.84 227.07 130.02 227.29C132.2 227.51 134.18 227.66 135.61 227.76C136.39 227.759 137.168 227.843 137.93 228.01Z" fill="#263238"/>
<path d="M140.97 224.24C140.199 224.61 139.387 224.885 138.55 225.06C136.559 225.585 134.534 225.972 132.49 226.22C130.449 226.456 128.394 226.546 126.34 226.49C125.484 226.516 124.628 226.439 123.79 226.26C124.634 226.141 125.488 226.098 126.34 226.13C127.91 226.08 130.07 225.96 132.44 225.68C134.81 225.4 136.95 225 138.44 224.68C139.268 224.458 140.115 224.311 140.97 224.24Z" fill="#263238"/>
<path d="M155.88 207.42C155.872 208.183 155.772 208.942 155.58 209.68C155.32 211.06 154.92 212.96 154.41 215.05C153.9 217.14 153.41 219 152.96 220.35C152.788 221.092 152.526 221.811 152.18 222.49C152.243 221.73 152.387 220.979 152.61 220.25C152.99 218.69 153.42 216.9 153.9 214.92C154.38 212.94 154.83 211.16 155.22 209.6C155.359 208.851 155.581 208.12 155.88 207.42Z" fill="#263238"/>
<path d="M112.17 229.79C109.859 229.418 107.576 228.883 105.34 228.19C103.062 227.658 100.826 226.959 98.65 226.1C100.963 226.457 103.247 226.989 105.48 227.69C107.76 228.221 109.996 228.923 112.17 229.79Z" fill="#263238"/>
<path d="M158.89 199.09C158.509 199.151 158.121 199.151 157.74 199.09C156.695 198.99 155.669 198.748 154.69 198.37C153.219 197.812 151.863 196.988 150.69 195.94C149.251 194.657 148.135 193.054 147.43 191.26C146.72 189.469 146.413 187.543 146.53 185.62C146.584 184.038 147.057 182.499 147.9 181.16C148.501 180.264 149.396 179.606 150.43 179.3C150.71 179.222 150.999 179.181 151.29 179.18C151.49 179.18 151.59 179.18 151.59 179.18C151.218 179.243 150.851 179.33 150.49 179.44C149.546 179.803 148.746 180.463 148.21 181.32C146.85 183.46 146.47 187.32 147.91 191.01C148.595 192.731 149.654 194.279 151.01 195.54C152.122 196.564 153.405 197.387 154.8 197.97C156.119 198.489 157.49 198.864 158.89 199.09Z" fill="#263238"/>
<path d="M182.2 199.95C181.95 196.887 181.87 193.812 181.96 190.74C181.876 187.664 181.969 184.585 182.24 181.52C182.49 184.587 182.57 187.665 182.48 190.74C182.564 193.813 182.471 196.888 182.2 199.95Z" fill="#263238"/>
<path d="M145.52 179.25C145.62 177.01 145.86 174.49 145.86 174.49C145.86 174.49 151.38 173.88 151.71 168.18C152.04 162.48 151.71 149.34 151.71 149.34L141.66 144.22L130.6 152.94L132.28 181.49L142.45 182.13C142.842 182.147 143.233 182.086 143.601 181.95C143.969 181.814 144.306 181.605 144.592 181.337C144.878 181.069 145.108 180.746 145.267 180.387C145.426 180.029 145.512 179.642 145.52 179.25Z" fill="#FFBE9D"/>
<path d="M146.51 163.67C146.51 163.67 146.51 163.78 146.42 163.92C146.343 164.011 146.246 164.083 146.137 164.131C146.028 164.18 145.909 164.203 145.79 164.2C145.15 164.2 144.53 163.46 144.3 162.6C144.201 162.183 144.201 161.747 144.3 161.33C144.311 161.145 144.372 160.967 144.478 160.815C144.584 160.663 144.73 160.544 144.9 160.47C145.018 160.418 145.152 160.414 145.273 160.459C145.394 160.504 145.494 160.594 145.55 160.71C145.62 160.88 145.55 160.98 145.55 160.97C145.55 160.96 145.55 160.88 145.45 160.77C145.396 160.698 145.317 160.648 145.229 160.629C145.141 160.611 145.048 160.625 144.97 160.67C144.851 160.75 144.752 160.857 144.68 160.982C144.609 161.107 144.568 161.246 144.56 161.39C144.498 161.766 144.515 162.151 144.61 162.52C144.81 163.29 145.35 163.92 145.82 163.98C145.915 163.994 146.013 163.987 146.106 163.961C146.199 163.936 146.285 163.891 146.36 163.83C146.45 163.74 146.49 163.66 146.51 163.67Z" fill="#EB996E"/>
<path d="M155.14 146.26C154.37 143.64 151.58 142.33 149.04 141.61C145.17 140.52 140.98 140.03 137.2 141.42C133.42 142.81 128.88 145.26 128.88 149.42C126.65 149.24 125.38 151.19 124.5 153.62C123.955 155.094 123.635 156.641 123.55 158.21C123.26 163.68 121.74 171.21 118.2 175.21C116.2 177.44 113.43 178.99 112.29 181.76C111.29 184.18 111.81 187.03 110.87 189.47C110.05 191.62 108.21 193.15 106.87 195.02C105.494 197.136 104.68 199.568 104.505 202.085C104.33 204.603 104.8 207.124 105.87 209.41C106.953 211.633 108.475 213.613 110.345 215.23C112.216 216.848 114.394 218.069 116.75 218.82C121.425 220.243 126.41 220.288 131.11 218.95C134.635 218.11 137.924 216.483 140.73 214.19C143.592 211.815 145.542 208.521 146.25 204.87C146.96 200.78 145.81 196.63 144.97 192.58C142.31 179.74 143.07 179.07 146.43 167.17C146.5 166.96 146.55 166.74 146.61 166.52C146.67 166.3 146.7 166.21 146.74 166.05C146.843 165.584 146.897 165.108 146.9 164.63C146.409 164.814 145.875 164.852 145.362 164.74C144.85 164.629 144.38 164.372 144.01 164C143.636 163.608 143.376 163.122 143.256 162.594C143.137 162.066 143.162 161.515 143.33 161C143.563 160.435 143.913 159.926 144.358 159.507C144.803 159.088 145.332 158.768 145.91 158.57C147.01 158.1 148.21 157.87 149.3 157.35C151.61 156.25 153.21 153.97 154.3 151.58C155.195 149.96 155.493 148.077 155.14 146.26Z" fill="#263238"/>
<path d="M146.9 163.92C147.123 164.227 147.302 164.563 147.43 164.92C147.73 165.55 148.13 166.44 148.57 167.46L148.65 167.66H148.44L147.44 167.75C146.74 167.8 146.16 167.88 145.44 167.87C145.381 167.859 145.326 167.834 145.28 167.795C145.235 167.756 145.2 167.706 145.18 167.65C145.156 167.558 145.156 167.462 145.18 167.37C145.18 167.21 145.25 167.09 145.28 166.96L145.45 166.25C145.54 165.776 145.681 165.314 145.87 164.87C145.865 165.353 145.798 165.834 145.67 166.3L145.53 167.02C145.53 167.26 145.39 167.62 145.53 167.59C146.03 167.59 146.74 167.49 147.4 167.44L148.4 167.36L148.28 167.57C147.85 166.57 147.49 165.64 147.28 164.98C147.114 164.642 146.986 164.287 146.9 163.92Z" fill="url(#paint25_linear)"/>
<path d="M112.67 248.12L157.01 246.76L176.34 322.1L172.75 408.49H149.28L152.18 323.91L135.03 271.49L137.68 411.86L113.98 412.21L111.49 280.21C111.38 276.55 110.17 268.27 110.62 264.63L112.67 248.12Z" fill="#263238"/>
<path d="M140.94 272.56C140.211 272.612 139.478 272.568 138.76 272.43C137.43 272.28 135.59 271.99 133.58 271.59C131.57 271.19 129.77 270.74 128.48 270.36C127.785 270.207 127.113 269.965 126.48 269.64C126.48 269.5 129.73 270.28 133.74 271.08C137.75 271.88 140.96 272.41 140.94 272.56Z" fill="#455A64"/>
<path d="M172.53 403.78C172.53 403.93 167.22 404.04 160.67 404.04C154.12 404.04 148.8 403.93 148.8 403.78C148.8 403.63 154.11 403.52 160.67 403.52C167.23 403.52 172.53 403.64 172.53 403.78Z" fill="#455A64"/>
<path d="M137.46 408.23C137.46 408.37 132.31 408.49 125.95 408.49C119.59 408.49 114.44 408.37 114.44 408.23C114.44 408.09 119.59 407.97 125.95 407.97C132.31 407.97 137.46 408.08 137.46 408.23Z" fill="#455A64"/>
<path d="M134.41 407.87C134.27 407.87 133.64 377.19 133.02 339.36C132.4 301.53 132.02 270.85 132.15 270.85C132.28 270.85 132.92 301.51 133.54 339.35C134.16 377.19 134.56 407.86 134.41 407.87Z" fill="#455A64"/>
<path d="M169.34 403.78C169.329 403.644 169.329 403.506 169.34 403.37V402.18C169.34 401.1 169.42 399.55 169.47 397.57C169.61 393.57 169.82 387.77 170.06 380.64C170.61 366.32 171.36 346.64 172.2 324.79C172.2 324.59 172.2 324.39 172.2 324.2V324.28C166.94 303.23 162.2 284.22 158.75 270.42C157.06 263.55 155.69 257.99 154.75 254.11L153.68 249.67C153.57 249.18 153.48 248.8 153.42 248.51C153.382 248.383 153.358 248.252 153.35 248.12C153.397 248.244 153.437 248.371 153.47 248.5C153.55 248.78 153.65 249.16 153.78 249.65C154.06 250.65 154.45 252.17 154.94 254.06C155.94 257.93 157.36 263.48 159.12 270.34L172.71 324.15V324.22C172.71 324.41 172.71 324.61 172.71 324.81C171.82 346.61 171.01 366.34 170.42 380.66C170.1 387.78 169.85 393.55 169.67 397.58C169.57 399.58 169.49 401.1 169.44 402.18C169.44 402.69 169.38 403.08 169.36 403.38C169.365 403.514 169.358 403.647 169.34 403.78Z" fill="#455A64"/>
<path d="M161.73 322.49C160.046 323.049 158.311 323.437 156.55 323.65C154.39 324.02 152.55 324.27 151.71 324.32V324.12C151.98 324.19 152.13 324.25 152.12 324.28C152.11 324.31 151.96 324.33 151.68 324.28H151.08L151.68 324.11C152.46 323.88 154.3 323.5 156.46 323.11C158.193 322.734 159.957 322.526 161.73 322.49Z" fill="#455A64"/>
<path d="M161.28 325.32C159.72 325.379 158.158 325.309 156.61 325.11C155.051 325.072 153.499 324.898 151.97 324.59C155.092 324.345 158.234 324.591 161.28 325.32Z" fill="#455A64"/>
<path opacity="0.2" d="M112.48 249.71C113.004 250.383 113.664 250.939 114.417 251.34C115.17 251.742 115.999 251.98 116.85 252.04C118.64 252.247 120.449 252.213 122.23 251.94C133.68 250.67 145.8 249.49 157.01 246.76C142.5 247.58 127.18 247.3 112.67 248.12L112.52 249.35" fill="black"/>
<g opacity="0.2">
<path opacity="0.2" d="M127.43 270.16L135.61 301.89L135.03 271.5L127.43 270.16Z" fill="black"/>
</g>
</g>
<defs>
<linearGradient id="paint0_linear" x1="319.609" y1="190.135" x2="319.609" y2="298.865" gradientUnits="userSpaceOnUse">
<stop stop-color="#A0388B"/>
<stop offset="0.520226" stop-color="#EC2E37"/>
<stop offset="1" stop-color="#FB7E47"/>
</linearGradient>
<linearGradient id="paint1_linear" x1="314.889" y1="4.66619" x2="314.889" y2="104.32" gradientUnits="userSpaceOnUse">
<stop stop-color="#A0388B"/>
<stop offset="0.520226" stop-color="#EC2E37"/>
<stop offset="1" stop-color="#FB7E47"/>
</linearGradient>
<linearGradient id="paint2_linear" x1="229.893" y1="276.82" x2="229.893" y2="300.27" gradientUnits="userSpaceOnUse">
<stop stop-color="#A0388B"/>
<stop offset="0.520226" stop-color="#EC2E37"/>
<stop offset="1" stop-color="#FB7E47"/>
</linearGradient>
<linearGradient id="paint3_linear" x1="194.718" y1="129.743" x2="194.697" y2="134.463" gradientUnits="userSpaceOnUse">
<stop stop-color="#A0388B"/>
<stop offset="0.520226" stop-color="#EC2E37"/>
<stop offset="1" stop-color="#FB7E47"/>
</linearGradient>
<linearGradient id="paint4_linear" x1="213.12" y1="146.77" x2="213.12" y2="151.18" gradientUnits="userSpaceOnUse">
<stop stop-color="#A0388B"/>
<stop offset="0.520226" stop-color="#EC2E37"/>
<stop offset="1" stop-color="#FB7E47"/>
</linearGradient>
<linearGradient id="paint5_linear" x1="194.533" y1="172.802" x2="194.512" y2="177.522" gradientUnits="userSpaceOnUse">
<stop stop-color="#A0388B"/>
<stop offset="0.520226" stop-color="#EC2E37"/>
<stop offset="1" stop-color="#FB7E47"/>
</linearGradient>
<linearGradient id="paint6_linear" x1="194.339" y1="217.721" x2="194.318" y2="222.441" gradientUnits="userSpaceOnUse">
<stop stop-color="#A0388B"/>
<stop offset="0.520226" stop-color="#EC2E37"/>
<stop offset="1" stop-color="#FB7E47"/>
</linearGradient>
<linearGradient id="paint7_linear" x1="212.1" y1="191.002" x2="212.08" y2="195.412" gradientUnits="userSpaceOnUse">
<stop stop-color="#A0388B"/>
<stop offset="0.520226" stop-color="#EC2E37"/>
<stop offset="1" stop-color="#FB7E47"/>
</linearGradient>
<linearGradient id="paint8_linear" x1="190.775" y1="236.377" x2="190.775" y2="240.783" gradientUnits="userSpaceOnUse">
<stop stop-color="#A0388B"/>
<stop offset="0.520226" stop-color="#EC2E37"/>
<stop offset="1" stop-color="#FB7E47"/>
</linearGradient>
<linearGradient id="paint9_linear" x1="197.143" y1="236.41" x2="197.143" y2="240.53" gradientUnits="userSpaceOnUse">
<stop stop-color="#A0388B"/>
<stop offset="0.520226" stop-color="#EC2E37"/>
<stop offset="1" stop-color="#FB7E47"/>
</linearGradient>
<linearGradient id="paint10_linear" x1="203.513" y1="236.439" x2="203.513" y2="240.559" gradientUnits="userSpaceOnUse">
<stop stop-color="#A0388B"/>
<stop offset="0.520226" stop-color="#EC2E37"/>
<stop offset="1" stop-color="#FB7E47"/>
</linearGradient>
<linearGradient id="paint11_linear" x1="209.893" y1="236.47" x2="209.893" y2="240.59" gradientUnits="userSpaceOnUse">
<stop stop-color="#A0388B"/>
<stop offset="0.520226" stop-color="#EC2E37"/>
<stop offset="1" stop-color="#FB7E47"/>
</linearGradient>
<linearGradient id="paint12_linear" x1="216.283" y1="236.5" x2="216.283" y2="240.62" gradientUnits="userSpaceOnUse">
<stop stop-color="#A0388B"/>
<stop offset="0.520226" stop-color="#EC2E37"/>
<stop offset="1" stop-color="#FB7E47"/>
</linearGradient>
<linearGradient id="paint13_linear" x1="222.633" y1="236.53" x2="222.633" y2="240.65" gradientUnits="userSpaceOnUse">
<stop stop-color="#A0388B"/>
<stop offset="0.520226" stop-color="#EC2E37"/>
<stop offset="1" stop-color="#FB7E47"/>
</linearGradient>
<linearGradient id="paint14_linear" x1="229.013" y1="236.56" x2="229.013" y2="240.68" gradientUnits="userSpaceOnUse">
<stop stop-color="#A0388B"/>
<stop offset="0.520226" stop-color="#EC2E37"/>
<stop offset="1" stop-color="#FB7E47"/>
</linearGradient>
<linearGradient id="paint15_linear" x1="235.383" y1="236.59" x2="235.383" y2="240.71" gradientUnits="userSpaceOnUse">
<stop stop-color="#A0388B"/>
<stop offset="0.520226" stop-color="#EC2E37"/>
<stop offset="1" stop-color="#FB7E47"/>
</linearGradient>
<linearGradient id="paint16_linear" x1="241.754" y1="236.61" x2="241.754" y2="240.73" gradientUnits="userSpaceOnUse">
<stop stop-color="#A0388B"/>
<stop offset="0.520226" stop-color="#EC2E37"/>
<stop offset="1" stop-color="#FB7E47"/>
</linearGradient>
<linearGradient id="paint17_linear" x1="233.391" y1="87.0693" x2="233.391" y2="101.51" gradientUnits="userSpaceOnUse">
<stop stop-color="#A0388B"/>
<stop offset="0.520226" stop-color="#EC2E37"/>
<stop offset="1" stop-color="#FB7E47"/>
</linearGradient>
<linearGradient id="paint18_linear" x1="232.684" y1="105.286" x2="232.658" y2="110.926" gradientUnits="userSpaceOnUse">
<stop stop-color="#A0388B"/>
<stop offset="0.520226" stop-color="#EC2E37"/>
<stop offset="1" stop-color="#FB7E47"/>
</linearGradient>
<linearGradient id="paint19_linear" x1="82.8064" y1="134.59" x2="82.8064" y2="193.19" gradientUnits="userSpaceOnUse">
<stop stop-color="#A0388B"/>
<stop offset="0.520226" stop-color="#EC2E37"/>
<stop offset="1" stop-color="#FB7E47"/>
</linearGradient>
<linearGradient id="paint20_linear" x1="80.7479" y1="148.659" x2="80.7479" y2="170.79" gradientUnits="userSpaceOnUse">
<stop stop-color="#A0388B"/>
<stop offset="0.520226" stop-color="#EC2E37"/>
<stop offset="1" stop-color="#FB7E47"/>
</linearGradient>
<linearGradient id="paint21_linear" x1="91.63" y1="156.96" x2="91.63" y2="169.6" gradientUnits="userSpaceOnUse">
<stop stop-color="#A0388B"/>
<stop offset="0.520226" stop-color="#EC2E37"/>
<stop offset="1" stop-color="#FB7E47"/>
</linearGradient>
<linearGradient id="paint22_linear" x1="128.925" y1="405.63" x2="128.925" y2="418.958" gradientUnits="userSpaceOnUse">
<stop stop-color="#A0388B"/>
<stop offset="0.520226" stop-color="#EC2E37"/>
<stop offset="1" stop-color="#FB7E47"/>
</linearGradient>
<linearGradient id="paint23_linear" x1="166.68" y1="405.63" x2="166.68" y2="418.906" gradientUnits="userSpaceOnUse">
<stop stop-color="#A0388B"/>
<stop offset="0.520226" stop-color="#EC2E37"/>
<stop offset="1" stop-color="#FB7E47"/>
</linearGradient>
<linearGradient id="paint24_linear" x1="141.79" y1="178.11" x2="141.79" y2="248.12" gradientUnits="userSpaceOnUse">
<stop stop-color="#A0388B"/>
<stop offset="0.520226" stop-color="#EC2E37"/>
<stop offset="1" stop-color="#FB7E47"/>
</linearGradient>
<linearGradient id="paint25_linear" x1="146.906" y1="163.92" x2="146.906" y2="167.871" gradientUnits="userSpaceOnUse">
<stop stop-color="#A0388B"/>
<stop offset="0.520226" stop-color="#EC2E37"/>
<stop offset="1" stop-color="#FB7E47"/>
</linearGradient>
<clipPath id="clip0">
<rect width="427.21" height="419.34" fill="white"/>
</clipPath>
</defs>
</svg>
