<svg width="301" height="69" viewBox="0 0 301 69" fill="none" xmlns="http://www.w3.org/2000/svg">
<path d="M0.03125 69V1.96875H12.9219L35.6562 52.8281L57.9219 1.96875H70.3438V69H58.8594V22.3125L40.6719 69H30.0781L11.5156 22.3125V69H0.03125ZM95.2906 53.6719C95.2906 43.8906 102.416 39 116.666 39C120.009 39 123.353 39.3125 126.697 39.9375V36.2344C126.697 31.8281 123.525 29.625 117.181 29.625C111.806 29.625 105.838 30.4062 99.275 31.9688V22.125C105.838 20.5625 111.806 19.7812 117.181 19.7812C131.806 19.7812 139.119 25.1875 139.119 36V69H131.9L127.494 64.5938C123.213 67.5312 118.494 69 113.338 69C101.306 69 95.2906 63.8906 95.2906 53.6719ZM126.697 48.375C123.572 47.75 120.228 47.4375 116.666 47.4375C110.697 47.4375 107.713 49.4688 107.713 53.5312C107.713 57.9062 110.213 60.0938 115.213 60.0938C119.338 60.0938 123.166 58.8125 126.697 56.25V48.375ZM165.284 69V19.7812H174.894L176.441 26.0625C180.753 21.875 185.316 19.7812 190.128 19.7812V29.8125C185.503 29.8125 181.363 31.7344 177.706 35.5781V69H165.284ZM211.559 69V1.96875H223.981V23.625C229.075 21.0625 234.434 19.7812 240.059 19.7812C252.622 19.7812 258.903 24.5156 258.903 33.9844C258.903 40.8594 254.528 46.2344 245.778 50.1094L261.059 69H245.872L233.028 51.4219V45.6562C241.997 43.75 246.481 40.625 246.481 36.2812C246.481 31.8438 243.512 29.625 237.575 29.625C233.419 29.625 228.887 30.9375 223.981 33.5625V69H211.559ZM288.35 69V12.2344H281.319V7.125L300.772 0.5625V69H288.35Z" fill="url(#paint0_linear)"/>
<defs>
<linearGradient id="paint0_linear" x1="-7" y1="36" x2="303" y2="36" gradientUnits="userSpaceOnUse">
<stop stop-color="#A0388B"/>
<stop offset="0.520226" stop-color="#EC2E37"/>
<stop offset="1" stop-color="#FB7E47"/>
</linearGradient>
</defs>
</svg>
