<svg width="135" height="40" viewBox="0 0 135 40" fill="none" xmlns="http://www.w3.org/2000/svg">
<circle cx="130" cy="27" r="5" fill="white"/>
<path d="M2.63672 32V6.86328H7.4707L15.9961 25.9355L24.3457 6.86328H29.0039V32H24.6973V14.4922L17.877 32H13.9043L6.94336 14.4922V32H2.63672ZM38.359 26.252C38.359 22.584 41.0309 20.75 46.3746 20.75C47.6285 20.75 48.8824 20.8672 50.1363 21.1016V19.7129C50.1363 18.0605 48.9469 17.2344 46.568 17.2344C44.5523 17.2344 42.3141 17.5273 39.8531 18.1133V14.4219C42.3141 13.8359 44.5523 13.543 46.568 13.543C52.0523 13.543 54.7945 15.5703 54.7945 19.625V32H52.0875L50.4352 30.3477C48.8297 31.4492 47.0602 32 45.1266 32C40.6148 32 38.359 30.084 38.359 26.252ZM50.1363 24.2656C48.9645 24.0312 47.7105 23.9141 46.3746 23.9141C44.1363 23.9141 43.0172 24.6758 43.0172 26.1992C43.0172 27.8398 43.9547 28.6602 45.8297 28.6602C47.3766 28.6602 48.8121 28.1797 50.1363 27.2188V24.2656ZM64.6066 32V13.543H68.2102L68.7902 15.8984C70.4074 14.3281 72.1184 13.543 73.923 13.543V17.3047C72.1887 17.3047 70.6359 18.0254 69.2648 19.4668V32H64.6066ZM81.9598 32V6.86328H86.618V14.9844C88.5281 14.0234 90.5379 13.543 92.6473 13.543C97.3582 13.543 99.7137 15.3184 99.7137 18.8691C99.7137 21.4473 98.073 23.4629 94.7918 24.916L100.522 32H94.827L90.0105 25.4082V23.2461C93.3738 22.5312 95.0555 21.3594 95.0555 19.7305C95.0555 18.0664 93.9422 17.2344 91.7156 17.2344C90.157 17.2344 88.4578 17.7266 86.618 18.7109V32H81.9598ZM110.756 32V10.7129H108.12V8.79688L115.414 6.33594V32H110.756Z" fill="white"/>
</svg>
