<svg width="20" height="27" viewBox="0 0 20 27" fill="none" xmlns="http://www.w3.org/2000/svg">
<path d="M14.4228 10.7875V5.47427C14.4228 4.28762 13.9514 3.14957 13.1123 2.31048C12.2732 1.4714 11.1352 1 9.94852 1C8.76186 1 7.62382 1.4714 6.78473 2.31048C5.94564 3.14957 5.47424 4.28762 5.47424 5.47427V10.7875" stroke="white" stroke-width="2" stroke-linecap="round" stroke-linejoin="round"/>
<path d="M16.2125 10.7875H3.68456C2.20192 10.7875 1 11.9894 1 13.472V23.3154C1 24.7981 2.20192 26 3.68456 26H16.2125C17.6952 26 18.8971 24.7981 18.8971 23.3154V13.472C18.8971 11.9894 17.6952 10.7875 16.2125 10.7875Z" stroke="white" stroke-width="2" stroke-linecap="round" stroke-linejoin="round"/>
</svg>
