<svg width="500" height="373" viewBox="0 0 500 373" fill="none" xmlns="http://www.w3.org/2000/svg">
<g clip-path="url(#clip0)">
<path d="M500 327.45H0V327.7H500V327.45Z" fill="#696969"/>
<path d="M124.82 342.58H91.7V342.83H124.82V342.58Z" fill="#696969"/>
<path d="M81.22 342.58H62.03V342.83H81.22V342.58Z" fill="#696969"/>
<path d="M210.55 346.26H191.36V346.51H210.55V346.26Z" fill="#696969"/>
<path d="M310.61 351.84H267.42V352.09H310.61V351.84Z" fill="#696969"/>
<path d="M258.52 351.84H252.19V352.09H258.52V351.84Z" fill="#696969"/>
<path d="M453.35 346.26H359.67V346.51H453.35V346.26Z" fill="#696969"/>
<path d="M237.02 282.85H43.92C42.4056 282.85 40.9532 282.248 39.8824 281.178C38.8115 280.107 38.21 278.654 38.21 277.14V5.71C38.21 4.19562 38.8115 2.74325 39.8824 1.67242C40.9532 0.601588 42.4056 2.38419e-07 43.92 2.38419e-07H237.02C238.533 0.00264937 239.982 0.605407 241.051 1.67595C242.12 2.7465 242.72 4.19735 242.72 5.71V277.14C242.72 278.653 242.12 280.103 241.051 281.174C239.982 282.245 238.533 282.847 237.02 282.85ZM43.92 0.25C42.4727 0.252644 41.0855 0.82874 40.0621 1.85212C39.0387 2.87549 38.4626 4.26273 38.46 5.71V277.14C38.4626 278.587 39.0387 279.975 40.0621 280.998C41.0855 282.021 42.4727 282.597 43.92 282.6H237.02C238.466 282.597 239.853 282.021 240.874 280.997C241.896 279.974 242.47 278.586 242.47 277.14V5.71C242.47 4.26365 241.896 2.87639 240.874 1.85273C239.853 0.829068 238.466 0.252649 237.02 0.25H43.92Z" fill="#696969"/>
<path d="M453.31 282.85H260.22C258.706 282.85 257.253 282.248 256.182 281.178C255.112 280.107 254.51 278.654 254.51 277.14V5.71C254.51 4.19562 255.112 2.74325 256.182 1.67242C257.253 0.601588 258.706 2.38419e-07 260.22 2.38419e-07H453.31C454.824 2.38419e-07 456.277 0.601588 457.348 1.67242C458.418 2.74325 459.02 4.19562 459.02 5.71V277.14C459.02 278.654 458.418 280.107 457.348 281.178C456.277 282.248 454.824 282.85 453.31 282.85ZM260.22 0.25C258.773 0.252644 257.386 0.82874 256.362 1.85212C255.339 2.87549 254.763 4.26273 254.76 5.71V277.14C254.763 278.587 255.339 279.975 256.362 280.998C257.386 282.021 258.773 282.597 260.22 282.6H453.31C454.757 282.597 456.145 282.021 457.168 280.998C458.191 279.975 458.767 278.587 458.77 277.14V5.71C458.767 4.26273 458.191 2.87549 457.168 1.85212C456.145 0.82874 454.757 0.252644 453.31 0.25H260.22Z" fill="#696969"/>
<path d="M267.4 242.02H245.41V329.25H267.4V242.02Z" fill="#696969"/>
<path d="M263.22 329.26H267.4V317.38H258.84L263.22 329.26Z" fill="#FAFAFA"/>
<path d="M171.04 242.02H149.05V329.25H171.04V242.02Z" fill="#696969"/>
<path d="M267.4 242.02H167.4V321.96H267.4V242.02Z" fill="#FAFAFA"/>
<path d="M263.78 245.96V267.11H171.03V245.96H263.78ZM264.16 245.57H170.65V267.5H264.17V245.57H264.16Z" fill="#696969"/>
<path d="M171.57 329.26H167.4V317.38H175.95L171.57 329.26Z" fill="#FAFAFA"/>
<path d="M215.19 256.53C215.19 256.967 215.32 257.394 215.562 257.758C215.805 258.121 216.15 258.405 216.554 258.572C216.958 258.739 217.402 258.783 217.831 258.698C218.26 258.612 218.654 258.402 218.963 258.093C219.272 257.784 219.482 257.39 219.567 256.961C219.653 256.532 219.609 256.088 219.442 255.684C219.274 255.28 218.991 254.935 218.628 254.692C218.264 254.45 217.837 254.32 217.4 254.32C216.815 254.323 216.254 254.556 215.84 254.97C215.426 255.384 215.193 255.945 215.19 256.53Z" fill="#696969"/>
<path d="M263.78 271.43V292.58H171.03V271.43H263.78ZM264.16 271.04H170.65V292.96H264.17V271.04H264.16Z" fill="#696969"/>
<path d="M215.19 282C215.19 282.437 215.32 282.864 215.562 283.228C215.805 283.591 216.15 283.875 216.554 284.042C216.958 284.209 217.402 284.253 217.831 284.168C218.26 284.082 218.654 283.872 218.963 283.563C219.272 283.254 219.482 282.86 219.567 282.431C219.653 282.002 219.609 281.558 219.442 281.154C219.274 280.75 218.991 280.405 218.628 280.162C218.264 279.92 217.837 279.79 217.4 279.79C216.814 279.79 216.252 280.023 215.837 280.437C215.423 280.852 215.19 281.414 215.19 282Z" fill="#696969"/>
<path d="M263.78 296.89V318.04H171.03V296.89H263.78ZM264.16 296.51H170.65V318.43H264.17V296.51H264.16Z" fill="#696969"/>
<path d="M215.19 307.47C215.19 307.907 215.32 308.334 215.562 308.698C215.805 309.061 216.15 309.345 216.554 309.512C216.958 309.679 217.402 309.723 217.831 309.638C218.26 309.552 218.654 309.342 218.963 309.033C219.272 308.724 219.482 308.33 219.567 307.901C219.653 307.472 219.609 307.028 219.442 306.624C219.274 306.22 218.991 305.875 218.628 305.632C218.264 305.39 217.837 305.26 217.4 305.26C216.814 305.26 216.252 305.493 215.837 305.907C215.423 306.322 215.19 306.884 215.19 307.47Z" fill="#696969"/>
<path d="M157.61 191.36H135.62V329.26H157.61V191.36Z" fill="#696969"/>
<path d="M153.43 329.26H157.61V317.38H149.06L153.43 329.26Z" fill="#FAFAFA"/>
<path d="M75.4299 191.36H53.4399V329.26H75.4299V191.36Z" fill="#696969"/>
<path d="M157.61 191.36H71.78V321.97H157.61V191.36Z" fill="#FAFAFA"/>
<path d="M153.92 195.07V224.66H75.48V195.07H153.92ZM154.37 194.61H75.03V225.09H154.37V194.66V194.61Z" fill="#696969"/>
<path d="M153.92 228.23V306.66H116.56V228.23H153.92ZM154.37 227.77H116.1V307.12H154.37V227.77Z" fill="#696969"/>
<path d="M112.84 228.23V306.66H75.48V228.23H112.84ZM113.3 227.77H75.03V307.12H113.3V227.77Z" fill="#696969"/>
<path d="M75.96 329.26H71.78V317.38H80.34L75.96 329.26Z" fill="#FAFAFA"/>
<path d="M112.49 209.85C112.49 210.287 112.62 210.714 112.862 211.078C113.105 211.441 113.45 211.725 113.854 211.892C114.258 212.059 114.702 212.103 115.131 212.018C115.56 211.932 115.954 211.722 116.263 211.413C116.572 211.104 116.782 210.71 116.868 210.281C116.953 209.852 116.909 209.408 116.742 209.004C116.574 208.6 116.291 208.255 115.928 208.012C115.564 207.77 115.137 207.64 114.7 207.64C114.114 207.64 113.552 207.873 113.137 208.287C112.723 208.702 112.49 209.264 112.49 209.85Z" fill="#696969"/>
<path d="M120.41 265.58C120.41 266.017 120.54 266.444 120.782 266.808C121.025 267.171 121.37 267.454 121.774 267.622C122.178 267.789 122.622 267.833 123.051 267.748C123.48 267.662 123.874 267.452 124.183 267.143C124.492 266.834 124.702 266.44 124.787 266.011C124.873 265.582 124.829 265.138 124.662 264.734C124.494 264.33 124.211 263.985 123.848 263.742C123.484 263.5 123.057 263.37 122.62 263.37C122.034 263.37 121.472 263.603 121.057 264.017C120.643 264.432 120.41 264.994 120.41 265.58Z" fill="#696969"/>
<path d="M104.57 265.58C104.57 266.017 104.7 266.444 104.943 266.808C105.185 267.171 105.531 267.454 105.934 267.622C106.338 267.789 106.783 267.833 107.211 267.748C107.64 267.662 108.034 267.452 108.343 267.143C108.652 266.834 108.862 266.44 108.948 266.011C109.033 265.582 108.989 265.138 108.822 264.734C108.655 264.33 108.371 263.985 108.008 263.742C107.644 263.5 107.217 263.37 106.78 263.37C106.194 263.37 105.632 263.603 105.217 264.017C104.803 264.432 104.57 264.994 104.57 265.58Z" fill="#696969"/>
<path d="M102.08 152.92H92.8001C93.6543 157.417 94.1923 161.968 94.4101 166.54C94.4101 171.59 87.3601 191.37 97.4101 191.37C107.46 191.37 100.41 171.59 100.41 166.54C100.648 161.967 101.206 157.415 102.08 152.92Z" fill="#696969"/>
<path d="M66.8101 173.2V179.2C66.8127 182.422 68.0916 185.511 70.3669 187.792C72.6421 190.073 75.7284 191.359 78.9501 191.37H84.9501C88.1665 191.359 91.2483 190.077 93.5227 187.803C95.7971 185.528 97.0795 182.446 97.0901 179.23V173.23L66.8101 173.2Z" fill="#696969"/>
<path d="M195.65 229.32C195.65 236.32 203.48 242.03 213.05 242.03H221.69C231.26 242.03 239.09 236.31 239.09 229.32H195.65Z" fill="#696969"/>
<path d="M424.65 219.08C419.41 223.36 412.18 231.19 405.55 242.21C401.14 249.55 398.48 257.21 397.31 267.39C397.31 255.9 397.37 243.54 397.41 231.88C398.74 228.88 401.78 221.96 403.96 216.5C411.24 198.27 413.96 193.79 420.49 178.06C429.22 157.06 438.17 132.2 435.61 134.19C430.39 138.24 410.39 175.69 408.23 181.05C402.34 195.354 398.697 210.483 397.43 225.9C397.43 214.95 397.51 204.9 397.56 197.14C397.69 171.83 398.12 163.66 398.33 161.14C399.14 159.86 400.1 158.37 400.65 157.57C405.35 150.77 407.16 144.99 411.59 134.85C417.86 120.5 423.26 95.01 421.68 96.29C415.11 101.65 409.92 113.16 403.1 127.82C396.28 142.48 398.24 150.92 396.89 163.44C396.6 165.9 396.39 175.18 396.23 188.03C394.46 174.34 391.14 165.31 385.09 157.11C377.65 147.02 370.45 140.21 365.17 136.65C359.89 133.09 374.29 157.87 381.17 168.65C387.3 178.28 392.95 186.77 396.17 195.15C396 212.57 395.92 234.63 395.92 255.15C394.34 245.81 391.76 235.75 388.32 227.95C384.18 218.59 377.82 204.23 372.76 199.36C371.54 198.19 378.05 226.12 382.23 233.54C386.41 240.96 389.48 247.97 392.11 252.18C392.73 253.18 394.76 256.95 395.92 259.13C395.92 284.2 396.06 306.32 396.28 313.85H397.36C397.29 311.91 397.28 299.16 397.3 282.28C399.91 273.11 405.87 262.65 410.8 253.11C416.11 242.75 429.85 214.8 424.65 219.08Z" fill="#696969"/>
<path d="M412.44 329.26H381.1L378.73 298.54H414.81L412.44 329.26Z" fill="#F0F0F0"/>
<path d="M417.14 302.12H376.39L375.23 291.75H418.31L417.14 302.12Z" fill="#696969"/>
<path d="M124.26 20.54H68.21V82.09H124.26V20.54Z" fill="#696969"/>
<path d="M130.33 20.54H72.4299V82.09H130.33V20.54Z" fill="#696969"/>
<path d="M125.48 77.24V25.39L77.28 25.39V77.24H125.48Z" fill="white"/>
<path d="M113.79 64.67V37.96H88.96V64.67H113.79Z" fill="#696969"/>
<path d="M410.05 27.72H357.98V84.9H410.05V27.72Z" fill="#696969"/>
<path d="M415.69 27.72H361.91V84.9H415.69V27.72Z" fill="#696969"/>
<path d="M411.18 80.39V32.23H366.41V80.39H411.18Z" fill="white"/>
<path d="M388.8 70.28C396.515 70.28 402.77 64.0254 402.77 56.31C402.77 48.5946 396.515 42.34 388.8 42.34C381.085 42.34 374.83 48.5946 374.83 56.31C374.83 64.0254 381.085 70.28 388.8 70.28Z" fill="#696969"/>
<path d="M182.49 57.24H140.91V102.9H182.49V57.24Z" fill="#696969"/>
<path d="M186.99 57.24H144.04V102.9H186.99V57.24Z" fill="#696969"/>
<path d="M183.4 99.3V60.84H147.65V99.3H183.4Z" fill="white"/>
<path d="M165.52 70.35L155.74 87.29H175.3L165.52 70.35Z" fill="#696969"/>
<path d="M250 372.61C357.083 372.61 443.89 367.542 443.89 361.29C443.89 355.038 357.083 349.97 250 349.97C142.918 349.97 56.1101 355.038 56.1101 361.29C56.1101 367.542 142.918 372.61 250 372.61Z" fill="#696969"/>
<path d="M349.25 108.48L339.33 104.48C339.33 104.48 326.24 128.35 322.49 129.56C317.39 131.2 306.84 135.76 300.57 136.61C299.72 137.61 298.33 140.72 298.46 141.85C306.87 144.66 325.35 140.93 329.31 137.99C338.33 131.28 349.25 108.48 349.25 108.48Z" fill="#E58A7B"/>
<path d="M352.3 103.07C354.15 109.91 344.13 123.64 344.13 123.64L330.97 116.26C330.97 116.26 333.42 110.61 336.43 104.86C341.28 95.57 350.2 95.26 352.3 103.07Z" fill="url(#paint0_linear)"/>
<path opacity="0.2" d="M352.3 103.07C354.15 109.91 344.13 123.64 344.13 123.64L330.97 116.26C330.97 116.26 333.42 110.61 336.43 104.86C341.28 95.57 350.2 95.26 352.3 103.07Z" fill="black"/>
<path opacity="0.2" d="M336.22 119.2L341.38 122.1L342.29 106.23C339.29 108.54 337.16 115.5 336.22 119.2Z" fill="black"/>
<path d="M343.65 97.91C343.65 97.91 333.45 120.66 339.4 162.99H379.65C380.29 156.81 378.18 126.65 385.85 97.53C381.432 96.6667 376.963 96.0954 372.47 95.82C366.768 95.4948 361.052 95.4948 355.35 95.82C351.403 96.2205 347.492 96.9192 343.65 97.91Z" fill="url(#paint1_linear)"/>
<path opacity="0.2" d="M343.65 97.91C343.65 97.91 333.45 120.66 339.4 162.99H379.65C380.29 156.81 378.18 126.65 385.85 97.53C381.432 96.6667 376.963 96.0954 372.47 95.82C366.768 95.4948 361.052 95.4948 355.35 95.82C351.403 96.2205 347.492 96.9192 343.65 97.91Z" fill="black"/>
<g style="mix-blend-mode:multiply">
<path d="M334.33 362.19C334.26 363.27 349.53 364.19 368.43 364.19C387.33 364.19 402.7 363.32 402.76 362.19C402.82 361.06 387.55 360.25 368.66 360.25C349.77 360.25 334.39 361.12 334.33 362.19Z" fill="#E8ECF1"/>
</g>
<path d="M361.186 333.789L354.044 336.554L360.196 352.448L367.339 349.683L361.186 333.789Z" fill="#E58A7B"/>
<path d="M393.05 354.5H385.52L382.76 337.07H390.29L393.05 354.5Z" fill="#E58A7B"/>
<path d="M385.04 353.66H393.5C393.647 353.658 393.79 353.71 393.902 353.806C394.015 353.901 394.088 354.034 394.11 354.18L395.21 360.87C395.231 361.038 395.217 361.208 395.167 361.369C395.118 361.531 395.034 361.68 394.923 361.806C394.811 361.933 394.674 362.035 394.52 362.104C394.366 362.174 394.199 362.21 394.03 362.21C391.08 362.21 389.65 361.99 385.93 361.99C383.64 361.99 378.93 362.22 375.75 362.22C372.57 362.22 372.36 359.1 373.67 358.81C379.55 357.55 381.84 355.81 383.79 354.13C384.141 353.835 384.582 353.669 385.04 353.66Z" fill="#263238"/>
<path d="M359.98 351L367.98 348.67C368.12 348.623 368.272 348.629 368.408 348.686C368.544 348.743 368.655 348.848 368.72 348.98L371.72 354.98C371.792 355.132 371.829 355.298 371.828 355.466C371.828 355.634 371.791 355.8 371.72 355.952C371.648 356.104 371.544 356.238 371.414 356.345C371.284 356.452 371.133 356.529 370.97 356.57C368.06 357.37 366.11 357.86 362.47 358.92C359.96 359.65 357.41 360.84 354.92 361.63C353.2 362.18 349.17 362.2 347.08 362.2C343.98 362.2 343.3 358.94 344.62 358.79C347.97 358.42 348.42 358.59 350.27 357.66C353.297 356.337 356.041 354.442 358.35 352.08C358.787 351.581 359.35 351.208 359.98 351Z" fill="#263238"/>
<path d="M301.84 136.52L293.55 133.03L290.14 142.21C293.534 142.727 296.986 142.727 300.38 142.21L301.84 136.52Z" fill="#E58A7B"/>
<path d="M287.39 132.81L287.17 138.91L290.14 142.21L293.55 133.03L287.39 132.81Z" fill="#E58A7B"/>
<path d="M362.183 335.157L355.018 337.923L358.191 346.142L365.356 343.376L362.183 335.157Z" fill="#CF6F64"/>
<path d="M390.29 337.07H382.76L384.19 346.06H391.72L390.29 337.07Z" fill="#CF6F64"/>
<path opacity="0.2" d="M338.13 151.54C338.27 153.353 338.447 155.207 338.66 157.1L368.65 147.38C373.327 145.981 377.39 143.033 380.17 139.02C380.28 136.35 380.43 133.54 380.66 130.62C380.76 129.19 380.88 127.73 381.02 126.25C381.16 124.77 381.33 123.14 381.51 121.55L338.13 151.54Z" fill="black"/>
<path d="M347.9 118.74L346.9 118.62C347.5 113.62 351.22 109.68 355.16 109.78V110.78C351.71 110.71 348.44 114.26 347.9 118.74Z" fill="white"/>
<path d="M353.23 127.97H353.06V126.97C356.5 127.1 359.73 123.51 360.27 119.04L361.27 119.16C360.73 124.05 357.12 127.97 353.23 127.97Z" fill="white"/>
<path d="M371.92 76.55C370.52 82.06 368.85 92.15 372.49 95.82C372.49 95.82 369.95 101.41 359.71 101.41C350.36 101.41 355.37 95.82 355.37 95.82C361.6 94.36 361.71 89.82 360.89 85.52L371.92 76.55Z" fill="#E58A7B"/>
<path d="M367.42 80.21L360.89 85.52C361.097 86.5074 361.214 87.5115 361.24 88.52C363.15 90.43 366.98 85.61 367.38 83.15C367.57 82.1804 367.584 81.1844 367.42 80.21Z" fill="#CF6F64"/>
<path d="M349.65 76.48C350.101 77.268 350.711 77.9539 351.441 78.4943C352.171 79.0348 353.005 79.4181 353.89 79.62C356.29 80.15 357.5 77.94 356.84 75.72C356.24 73.72 354.27 71.03 351.84 71.49C351.316 71.5956 350.825 71.8258 350.409 72.161C349.993 72.4962 349.663 72.9267 349.449 73.4161C349.234 73.9055 349.14 74.4394 349.175 74.9726C349.21 75.5059 349.373 76.0229 349.65 76.48Z" fill="#CF6F64"/>
<path d="M353.65 58.85C349.91 60.56 348.59 75.42 353.29 77.62C357.99 79.82 360.71 55.66 353.65 58.85Z" fill="#263238"/>
<path d="M373.06 68.26C372.17 75.72 372.06 80.11 368.06 83.93C366.822 85.1984 365.257 86.0996 363.538 86.5339C361.819 86.9682 360.014 86.9187 358.322 86.3908C356.63 85.863 355.116 84.8773 353.949 83.543C352.783 82.2086 352.007 80.5775 351.71 78.83C350.5 72.13 352.17 61.06 359.64 58.09C361.211 57.3968 362.94 57.1366 364.646 57.3363C366.352 57.536 367.974 58.1884 369.343 59.2259C370.712 60.2633 371.778 61.6481 372.432 63.2366C373.085 64.8251 373.302 66.5595 373.06 68.26Z" fill="#E58A7B"/>
<path d="M360.78 62.72C366.31 61.3 370.38 60.34 368.93 64.96C366.99 71.11 364.67 77.07 367.78 77.34C369.68 77.51 378.08 73.95 377.01 70.34C376.08 67.2 380.01 66.34 380.71 64.76C383.3 58.99 375.89 59.76 377.21 56.25C378.53 52.74 371.21 47.11 367.21 49.92C360.71 54.46 349.53 54.39 355.41 46.92C359.62 41.59 352.11 42.69 352.11 42.69C352.11 42.69 356.64 45.38 349.01 49.54C340.92 53.97 348.33 65.9 360.78 62.72Z" fill="#263238"/>
<path d="M375.95 76.48C374.858 78.0639 373.214 79.1836 371.34 79.62C368.88 80.15 367.93 77.94 368.85 75.72C369.68 73.72 371.96 71.03 374.32 71.49C376.68 71.95 377.27 74.52 375.95 76.48Z" fill="#E58A7B"/>
<path d="M339.4 162.99C339.4 162.99 332.64 223.49 332.12 246.45C331.57 270.33 355.03 344.84 355.03 344.84L367.03 339.84C367.03 339.84 353.03 271.77 354.98 248.31C357.1 222.74 365.87 163.03 365.87 163.03L339.4 162.99Z" fill="url(#paint2_linear)"/>
<path opacity="0.2" d="M356.2 179.6C350.82 190.78 354.45 212.89 357.36 225.99C358.47 216.74 359.79 206.7 361.04 197.41C360.92 183.13 359.81 172.1 356.2 179.6Z" fill="black"/>
<path d="M366.49 335.88C366.55 335.88 367.92 339.7 367.92 339.7L354.07 345.52L351.89 341.46L366.49 335.88Z" fill="url(#paint3_linear)"/>
<path d="M353.65 162.99C353.65 162.99 358.82 220.53 362.25 242.09C366 265.69 380.74 344.32 380.74 344.32H394.53C394.53 344.32 386.27 267.6 384.71 244.23C383.02 218.86 379.63 162.99 379.63 162.99H353.65Z" fill="url(#paint4_linear)"/>
<path d="M394.78 340.73C394.84 340.73 395.24 344.58 395.24 344.58H380.09L379.01 340.16L394.78 340.73Z" fill="url(#paint5_linear)"/>
<path opacity="0.2" d="M389.5 336.17C389.469 336.169 389.44 336.157 389.416 336.137C389.393 336.117 389.377 336.09 389.37 336.06C389.3 335.36 381.85 266.06 380.45 245.06C378.92 222.28 375.86 171.75 375.83 171.24C375.829 171.223 375.831 171.207 375.836 171.191C375.842 171.175 375.85 171.161 375.861 171.149C375.873 171.136 375.886 171.127 375.902 171.12C375.917 171.113 375.933 171.11 375.95 171.11C375.967 171.109 375.983 171.111 375.999 171.116C376.015 171.122 376.029 171.13 376.041 171.141C376.054 171.153 376.063 171.166 376.07 171.182C376.077 171.197 376.08 171.213 376.08 171.23C376.08 171.74 379.17 222.23 380.69 245.05C382.09 266.05 389.54 335.3 389.62 336C389.623 336.017 389.622 336.035 389.617 336.052C389.613 336.069 389.604 336.085 389.593 336.098C389.581 336.111 389.567 336.122 389.551 336.129C389.535 336.137 389.518 336.14 389.5 336.14V336.17Z" fill="black"/>
<path d="M361.65 70.34C361.65 70.95 361.26 71.44 360.86 71.44C360.46 71.44 360.17 70.95 360.21 70.34C360.25 69.73 360.6 69.24 360.99 69.24C361.38 69.24 361.65 69.74 361.65 70.34Z" fill="#263238"/>
<path d="M354.76 70.34C354.76 70.95 354.38 71.44 353.98 71.44C353.58 71.44 353.29 70.95 353.33 70.34C353.37 69.73 353.71 69.24 354.11 69.24C354.51 69.24 354.8 69.74 354.76 70.34Z" fill="#263238"/>
<path d="M356.93 70.66C356.09 72.5222 355.011 74.2669 353.72 75.85C354.129 76.1463 354.598 76.3484 355.094 76.4417C355.591 76.5351 356.101 76.5174 356.59 76.39L356.93 70.66Z" fill="#DF5753"/>
<path d="M357.1 78.93C357.077 78.93 357.054 78.9253 357.033 78.9162C357.011 78.907 356.992 78.8936 356.976 78.8767C356.96 78.8599 356.948 78.8399 356.94 78.8181C356.932 78.7963 356.929 78.7732 356.93 78.75C356.937 78.704 356.96 78.6618 356.994 78.6308C357.029 78.5998 357.073 78.5818 357.12 78.58C357.885 78.5812 358.641 78.4123 359.333 78.0854C360.025 77.7585 360.635 77.2819 361.12 76.69C361.148 76.6522 361.189 76.6261 361.235 76.6169C361.282 76.6076 361.33 76.6159 361.37 76.64C361.4 76.6746 361.417 76.719 361.417 76.765C361.417 76.811 361.4 76.8554 361.37 76.89C360.857 77.5286 360.207 78.0435 359.467 78.3967C358.728 78.7498 357.919 78.9321 357.1 78.93Z" fill="#263238"/>
<path d="M362.85 68.5C362.8 68.5247 362.745 68.5375 362.69 68.5375C362.634 68.5375 362.58 68.5247 362.53 68.5C362.158 68.2583 361.734 68.1079 361.292 68.0609C360.851 68.014 360.405 68.072 359.99 68.23C359.949 68.2519 359.904 68.2652 359.857 68.269C359.811 68.2727 359.764 68.2669 359.72 68.2519C359.676 68.2369 359.636 68.213 359.601 68.1818C359.567 68.1505 359.539 68.1124 359.52 68.07C359.486 67.9796 359.488 67.8796 359.525 67.7904C359.562 67.7013 359.632 67.6296 359.72 67.59C360.241 67.3765 360.806 67.2923 361.367 67.3445C361.927 67.3968 362.467 67.5839 362.94 67.89C362.978 67.9161 363.011 67.9495 363.036 67.9883C363.061 68.0271 363.079 68.0706 363.087 68.1162C363.096 68.1618 363.095 68.2086 363.085 68.2539C363.075 68.2992 363.056 68.342 363.03 68.38C362.981 68.4347 362.919 68.476 362.85 68.5Z" fill="#263238"/>
<path d="M352.11 66.5C352.059 66.4869 352.011 66.4631 351.97 66.43C351.936 66.3966 351.91 66.3568 351.892 66.3131C351.873 66.2693 351.864 66.2224 351.864 66.175C351.864 66.1276 351.873 66.0807 351.892 66.037C351.91 65.9932 351.936 65.9535 351.97 65.92C352.355 65.4893 352.834 65.1534 353.37 64.9383C353.906 64.7232 354.484 64.6348 355.06 64.68C355.106 64.6869 355.15 64.7034 355.189 64.7283C355.228 64.7533 355.261 64.7861 355.286 64.8248C355.312 64.8635 355.329 64.9071 355.336 64.9528C355.344 64.9985 355.342 65.0452 355.33 65.09C355.311 65.1837 355.257 65.2666 355.179 65.3223C355.101 65.3779 355.005 65.4021 354.91 65.39C354.456 65.3614 354.001 65.4365 353.58 65.6098C353.159 65.7831 352.783 66.0499 352.48 66.39C352.434 66.4406 352.376 66.4777 352.31 66.4971C352.245 66.5165 352.176 66.5175 352.11 66.5Z" fill="#263238"/>
<path d="M389.73 107.37L379.33 104.6C379.33 104.6 369.13 129.71 365.53 131.35C360.62 133.58 348.21 141.29 342.93 145.01C342.64 146.26 342.87 149.57 343.54 150.48C352.54 148.85 369.77 142.21 373.36 138.84C381.57 131.15 389.73 107.37 389.73 107.37Z" fill="#E58A7B"/>
<path d="M382.47 354.95C381.965 354.992 381.462 354.854 381.05 354.56C380.919 354.445 380.821 354.297 380.765 354.133C380.709 353.968 380.697 353.791 380.73 353.62C380.739 353.515 380.775 353.413 380.835 353.326C380.894 353.238 380.975 353.167 381.07 353.12C381.92 352.69 384.27 354.18 384.53 354.35C384.56 354.368 384.583 354.396 384.595 354.428C384.608 354.461 384.609 354.496 384.6 354.53C384.593 354.566 384.577 354.599 384.552 354.626C384.527 354.652 384.495 354.671 384.46 354.68C383.808 354.84 383.141 354.931 382.47 354.95ZM381.47 353.39C381.391 353.368 381.308 353.368 381.23 353.39C381.18 353.39 381.13 353.46 381.11 353.59C381.083 353.706 381.088 353.828 381.123 353.942C381.158 354.056 381.222 354.159 381.31 354.24C381.7 354.59 382.68 354.63 383.98 354.38C383.211 353.885 382.351 353.548 381.45 353.39H381.47Z" fill="url(#paint6_linear)"/>
<path d="M384.42 354.66C384.391 354.669 384.359 354.669 384.33 354.66C383.58 354.24 382.17 352.59 382.38 351.75C382.413 351.618 382.489 351.5 382.595 351.415C382.702 351.33 382.834 351.283 382.97 351.28C383.104 351.266 383.24 351.279 383.368 351.318C383.497 351.358 383.617 351.423 383.72 351.51C384.55 352.23 384.61 354.4 384.61 354.51C384.61 354.542 384.601 354.574 384.586 354.602C384.57 354.63 384.547 354.653 384.52 354.67C384.486 354.676 384.452 354.672 384.42 354.66ZM383.08 351.66H383C382.76 351.66 382.74 351.79 382.73 351.84C382.6 352.33 383.49 353.58 384.23 354.17C384.23 353.325 383.968 352.5 383.48 351.81C383.371 351.71 383.228 351.656 383.08 351.66Z" fill="url(#paint7_linear)"/>
<path d="M355.92 353.66C355.309 353.878 354.641 353.878 354.03 353.66C353.892 353.584 353.776 353.475 353.692 353.342C353.608 353.209 353.559 353.057 353.55 352.9C353.539 352.802 353.551 352.703 353.586 352.611C353.621 352.519 353.677 352.436 353.75 352.37C354.56 351.65 357.82 352.42 358.19 352.51C358.225 352.52 358.257 352.541 358.28 352.57C358.303 352.598 358.317 352.633 358.32 352.67C358.318 352.708 358.306 352.745 358.285 352.777C358.264 352.808 358.234 352.834 358.2 352.85C357.467 353.19 356.703 353.461 355.92 353.66ZM354.3 352.48C354.183 352.5 354.074 352.548 353.98 352.62C353.95 352.645 353.927 352.678 353.913 352.715C353.898 352.751 353.894 352.791 353.9 352.83C353.905 352.935 353.936 353.038 353.993 353.127C354.049 353.217 354.127 353.29 354.22 353.34C354.75 353.63 355.98 353.4 357.57 352.73C356.5 352.476 355.394 352.405 354.3 352.52V352.48Z" fill="url(#paint8_linear)"/>
<path d="M358.17 352.89H358.09C357.09 352.71 355.09 351.56 355.04 350.7C355.04 350.5 355.13 350.22 355.6 350.06C355.762 350.002 355.934 349.978 356.106 349.988C356.278 349.998 356.446 350.043 356.6 350.12C357.69 350.66 358.26 352.58 358.28 352.66C358.294 352.686 358.301 352.715 358.301 352.745C358.301 352.775 358.294 352.804 358.28 352.83C358.25 352.861 358.212 352.882 358.17 352.89ZM355.81 350.36H355.7C355.39 350.47 355.39 350.6 355.39 350.64C355.39 351.16 356.84 352.11 357.86 352.43C357.621 351.63 357.13 350.928 356.46 350.43C356.257 350.335 356.028 350.31 355.81 350.36Z" fill="url(#paint9_linear)"/>
<path d="M343.78 144.42L333.35 149.22L332.14 152.17L336 154.76C336 154.76 343.19 153.98 345.24 149.36L343.78 144.42Z" fill="#E58A7B"/>
<path d="M344.23 150.66C343.983 148.659 343.322 146.732 342.29 145L343.93 143.77C344 143.85 345.51 145.89 346.25 150.32L344.23 150.66Z" fill="#263238"/>
<path d="M346 145.84C346.222 146.186 346.332 146.592 346.316 147.003C346.299 147.413 346.156 147.809 345.906 148.136C345.657 148.462 345.312 148.704 344.92 148.828C344.528 148.952 344.108 148.952 343.715 148.828C343.323 148.705 342.979 148.463 342.729 148.137C342.479 147.81 342.336 147.415 342.319 147.004C342.302 146.593 342.412 146.187 342.634 145.841C342.856 145.495 343.18 145.226 343.56 145.07C343.986 144.849 344.482 144.806 344.939 144.95C345.397 145.094 345.778 145.414 346 145.84Z" fill="#263238"/>
<path d="M326.3 153.1L327.69 154.5L337.05 150.5L333.35 149.22L326.3 153.1Z" fill="#E58A7B"/>
<path opacity="0.2" d="M366.49 335.88C366.55 335.88 367.92 339.7 367.92 339.7L354.07 345.52L351.89 341.46L366.49 335.88Z" fill="black"/>
<path opacity="0.2" d="M394.78 340.73C394.84 340.73 395.24 344.58 395.24 344.58H380.09L379.01 340.16L394.78 340.73Z" fill="black"/>
<path d="M392.45 104.49C395.2 113.36 384.45 125.49 384.45 125.49L369.65 119.41C371.404 114.282 373.43 109.252 375.72 104.34C380.24 94.53 389.65 95.54 392.45 104.49Z" fill="url(#paint10_linear)"/>
<path opacity="0.2" d="M392.45 104.49C395.2 113.36 384.45 125.49 384.45 125.49L369.65 119.41C371.404 114.282 373.43 109.252 375.72 104.34C380.24 94.53 389.65 95.54 392.45 104.49Z" fill="black"/>
<path d="M244.88 15.62H238.49V16.65H244.88V15.62Z" fill="url(#paint11_linear)"/>
<path d="M327.603 56.3796L326.829 73.5422L327.858 73.5885L328.632 56.4259L327.603 56.3796Z" fill="url(#paint12_linear)"/>
<path d="M325.61 20.24H207.61L196.63 265.96H314.63L325.61 20.24Z" fill="url(#paint13_linear)"/>
<path opacity="0.56" d="M322.09 23.61H204.09L193.11 269.33H311.11L322.09 23.61Z" fill="#FAFAFA"/>
<path opacity="0.07" d="M318.57 26.98H200.57L189.58 272.7H307.58L318.57 26.98Z" fill="url(#paint14_linear)"/>
<path d="M305.14 134.15H204.42L203.58 152.96H304.3L305.14 134.15Z" fill="white"/>
<path d="M259.81 120.44H205.03L204.66 128.85H259.44L259.81 120.44Z" fill="url(#paint15_linear)"/>
<path d="M302.87 184.9H202.15L201.31 203.7H302.03L302.87 184.9Z" fill="white"/>
<path opacity="0.47" d="M284.4 229.08H216.67L215.66 251.62H283.39L284.4 229.08Z" fill="url(#paint16_linear)"/>
<path d="M279.87 255.12H212.14C212.114 255.129 212.086 255.129 212.06 255.12C212.053 255.106 212.049 255.091 212.049 255.075C212.049 255.059 212.053 255.044 212.06 255.03L213.06 232.49C213.063 232.46 213.076 232.432 213.099 232.412C213.121 232.391 213.15 232.38 213.18 232.38H280.91C280.939 232.368 280.971 232.368 281 232.38C281.01 232.406 281.01 232.434 281 232.46L280 255C280 255.017 279.997 255.033 279.99 255.048C279.983 255.064 279.974 255.077 279.961 255.089C279.949 255.1 279.935 255.109 279.919 255.114C279.903 255.119 279.887 255.121 279.87 255.12ZM212.27 254.88H279.76L280.76 232.58H213.26L212.27 254.88Z" fill="white"/>
<path d="M247.98 171.18H202.76L202.39 179.59H247.6L247.98 171.18Z" fill="url(#paint17_linear)"/>
<path d="M283.11 73.43C282.851 78.886 280.904 84.1269 277.54 88.43C275.05 91.6934 271.846 94.3429 268.172 96.1751C264.499 98.0074 260.455 98.9738 256.35 99C252.367 99.0337 248.436 98.0872 244.905 96.2439C241.374 94.4007 238.35 91.7172 236.1 88.43C233.102 84.0209 231.621 78.7556 231.88 73.43C232.246 66.5556 235.219 60.0791 240.192 55.3192C245.166 50.5594 251.766 47.874 258.65 47.81C261.97 47.7803 265.26 48.4317 268.318 49.7239C271.376 51.016 274.136 52.9215 276.429 55.3227C278.721 57.7238 280.497 60.5695 281.646 63.6839C282.795 66.7983 283.294 70.1154 283.11 73.43Z" fill="white"/>
<path d="M285.52 53.17C285.455 54.6248 284.938 56.0231 284.04 57.17C283.38 58.0384 282.529 58.7435 281.552 59.2307C280.576 59.7179 279.501 59.9743 278.41 59.98C277.528 59.9868 276.654 59.8128 275.842 59.469C275.03 59.1251 274.297 58.6185 273.688 57.9805C273.079 57.3425 272.607 56.5865 272.301 55.7592C271.995 54.9319 271.862 54.0507 271.91 53.17C272.007 51.3444 272.796 49.6244 274.117 48.3609C275.439 47.0973 277.192 46.3853 279.02 46.37C279.902 46.3604 280.777 46.5321 281.589 46.8743C282.402 47.2166 283.136 47.7222 283.746 48.3597C284.355 48.9972 284.827 49.7532 285.132 50.5806C285.437 51.4081 285.569 52.2894 285.52 53.17Z" fill="url(#paint18_linear)"/>
<path d="M215.27 143.56C215.222 144.366 214.87 145.123 214.286 145.68C213.701 146.237 212.927 146.551 212.12 146.56C211.731 146.563 211.345 146.487 210.986 146.336C210.627 146.184 210.303 145.962 210.033 145.681C209.764 145.4 209.554 145.067 209.418 144.702C209.281 144.338 209.221 143.949 209.24 143.56C209.288 142.754 209.64 141.997 210.224 141.44C210.809 140.883 211.583 140.569 212.39 140.56C212.779 140.557 213.165 140.633 213.524 140.784C213.883 140.936 214.207 141.158 214.477 141.439C214.746 141.72 214.956 142.053 215.092 142.418C215.229 142.782 215.289 143.171 215.27 143.56Z" fill="#263238"/>
<path d="M228.76 143.56C228.712 144.366 228.36 145.123 227.776 145.68C227.191 146.237 226.417 146.551 225.61 146.56C225.22 146.565 224.834 146.489 224.474 146.339C224.115 146.188 223.79 145.965 223.52 145.684C223.25 145.403 223.041 145.069 222.905 144.704C222.769 144.339 222.709 143.949 222.73 143.56C222.776 142.753 223.127 141.994 223.712 141.437C224.297 140.88 225.072 140.566 225.88 140.56C226.269 140.557 226.655 140.633 227.014 140.784C227.373 140.936 227.697 141.158 227.967 141.439C228.236 141.72 228.446 142.053 228.582 142.418C228.719 142.782 228.779 143.171 228.76 143.56Z" fill="#263238"/>
<path d="M242.24 143.56C242.197 144.366 241.848 145.125 241.264 145.682C240.681 146.24 239.907 146.554 239.1 146.56C238.71 146.565 238.324 146.489 237.964 146.339C237.605 146.188 237.28 145.965 237.01 145.684C236.74 145.403 236.531 145.069 236.395 144.704C236.259 144.339 236.199 143.949 236.22 143.56C236.263 142.754 236.612 141.995 237.196 141.438C237.779 140.88 238.553 140.566 239.36 140.56C239.75 140.555 240.136 140.631 240.496 140.781C240.855 140.932 241.18 141.155 241.45 141.436C241.72 141.717 241.929 142.051 242.065 142.416C242.201 142.781 242.261 143.171 242.24 143.56Z" fill="#263238"/>
<path d="M213 194.3C212.954 195.107 212.603 195.866 212.018 196.423C211.433 196.98 210.658 197.294 209.85 197.3C209.461 197.302 209.076 197.224 208.718 197.073C208.36 196.921 208.036 196.698 207.767 196.418C207.497 196.137 207.288 195.805 207.151 195.441C207.014 195.077 206.952 194.689 206.97 194.3C207.018 193.494 207.37 192.737 207.954 192.18C208.539 191.623 209.313 191.309 210.12 191.3C210.509 191.297 210.895 191.373 211.254 191.524C211.613 191.676 211.937 191.898 212.207 192.179C212.476 192.46 212.686 192.793 212.822 193.158C212.959 193.522 213.019 193.911 213 194.3Z" fill="#263238"/>
<path d="M226.49 194.3C226.442 195.106 226.09 195.863 225.506 196.42C224.921 196.977 224.147 197.291 223.34 197.3C222.951 197.302 222.566 197.224 222.208 197.073C221.85 196.921 221.526 196.698 221.257 196.418C220.987 196.137 220.778 195.805 220.641 195.441C220.504 195.077 220.442 194.689 220.46 194.3C220.506 193.493 220.857 192.734 221.442 192.177C222.027 191.62 222.802 191.306 223.61 191.3C223.999 191.297 224.385 191.373 224.744 191.524C225.103 191.676 225.427 191.898 225.697 192.179C225.966 192.46 226.176 192.793 226.312 193.158C226.449 193.522 226.509 193.911 226.49 194.3Z" fill="#263238"/>
<path d="M239.97 194.3C239.924 195.105 239.575 195.863 238.992 196.419C238.409 196.976 237.636 197.291 236.83 197.3C236.44 197.305 236.054 197.229 235.694 197.079C235.335 196.928 235.01 196.705 234.74 196.424C234.47 196.143 234.261 195.809 234.125 195.444C233.989 195.079 233.929 194.689 233.95 194.3C233.996 193.493 234.347 192.734 234.932 192.177C235.517 191.62 236.292 191.306 237.1 191.3C237.489 191.297 237.874 191.373 238.233 191.524C238.591 191.676 238.914 191.899 239.183 192.18C239.452 192.461 239.661 192.794 239.796 193.159C239.931 193.523 239.99 193.912 239.97 194.3Z" fill="#263238"/>
<path d="M253.46 194.3C253.414 195.107 253.063 195.866 252.478 196.423C251.893 196.98 251.118 197.294 250.31 197.3C249.921 197.303 249.536 197.227 249.177 197.076C248.819 196.924 248.496 196.701 248.227 196.42C247.958 196.139 247.749 195.806 247.614 195.442C247.479 195.077 247.42 194.688 247.44 194.3C247.483 193.494 247.832 192.735 248.416 192.178C248.999 191.62 249.773 191.306 250.58 191.3C250.97 191.295 251.356 191.371 251.716 191.521C252.075 191.672 252.4 191.895 252.67 192.176C252.94 192.457 253.149 192.791 253.285 193.156C253.421 193.521 253.481 193.911 253.46 194.3Z" fill="#263238"/>
<path d="M266.95 194.3C266.904 195.107 266.553 195.866 265.968 196.423C265.383 196.98 264.608 197.294 263.8 197.3C263.411 197.302 263.026 197.224 262.668 197.073C262.31 196.921 261.986 196.698 261.717 196.418C261.447 196.137 261.238 195.805 261.101 195.441C260.964 195.077 260.902 194.689 260.92 194.3C260.968 193.494 261.32 192.737 261.904 192.18C262.489 191.623 263.263 191.309 264.07 191.3C264.459 191.297 264.845 191.373 265.204 191.524C265.563 191.676 265.887 191.898 266.157 192.179C266.426 192.46 266.636 192.793 266.772 193.158C266.908 193.522 266.969 193.911 266.95 194.3Z" fill="#263238"/>
<path d="M264.953 72.0867C269.139 67.9937 269.361 61.433 265.449 57.4331C261.538 53.4331 254.974 53.5086 250.788 57.6016C246.603 61.6947 246.381 68.2554 250.292 72.2553C254.204 76.2553 260.768 76.1798 264.953 72.0867Z" fill="url(#paint19_linear)"/>
<path d="M277.54 88.48C275.05 91.7434 271.845 94.3929 268.172 96.2251C264.499 98.0574 260.455 99.0238 256.35 99.05C252.367 99.0837 248.436 98.1372 244.905 96.2939C241.374 94.4507 238.35 91.7672 236.1 88.48C240.96 83.64 248.66 80.48 257.17 80.48C265.68 80.48 273.12 83.66 277.54 88.48Z" fill="url(#paint20_linear)"/>
<path opacity="0.1" d="M264.953 72.0867C269.139 67.9937 269.361 61.433 265.449 57.4331C261.538 53.4331 254.974 53.5086 250.788 57.6016C246.603 61.6947 246.381 68.2554 250.292 72.2553C254.204 76.2553 260.768 76.1798 264.953 72.0867Z" fill="white"/>
<path opacity="0.1" d="M277.54 88.48C275.05 91.7434 271.845 94.3929 268.172 96.2251C264.499 98.0574 260.455 99.0238 256.35 99.05C252.367 99.0837 248.436 98.1372 244.905 96.2939C241.374 94.4507 238.35 91.7672 236.1 88.48C240.96 83.64 248.66 80.48 257.17 80.48C265.68 80.48 273.12 83.66 277.54 88.48Z" fill="white"/>
<path d="M130.41 157.49C129.46 159.57 128.47 161.86 127.59 164.09C126.71 166.32 125.83 168.59 125.06 170.87C123.491 175.364 122.297 179.979 121.49 184.67L121.26 186.14C121.244 186.392 121.268 186.645 121.33 186.89C121.57 187.717 121.942 188.5 122.43 189.21C123.718 191.041 125.211 192.718 126.88 194.21C128.635 195.846 130.477 197.385 132.4 198.82C134.31 200.3 136.34 201.75 138.32 203.1L136.46 206.61C131.697 204.546 127.173 201.967 122.97 198.92C120.736 197.291 118.719 195.382 116.97 193.24C115.933 191.965 115.125 190.52 114.58 188.97C114.269 188.017 114.107 187.022 114.1 186.02C114.1 185.78 114.1 185.43 114.1 185.26V184.77L114.2 183.77C114.769 178.564 115.862 173.428 117.46 168.44C118.24 165.97 119.08 163.53 120.03 161.13C120.98 158.73 121.95 156.4 123.17 153.97L130.41 157.49Z" fill="#E58A7B"/>
<path d="M136.92 202.48L143.98 198.9L142.16 206.66C142.16 206.66 137.31 208.01 135.05 205.66L136.92 202.48Z" fill="#E58A7B"/>
<path d="M150.45 200.17L148.57 206.59L142.15 206.66L143.98 198.9L150.45 200.17Z" fill="#E58A7B"/>
<path d="M160.44 120.05C160.82 121.437 161.35 122.778 162.02 124.05C161.827 124.27 161.578 124.432 161.3 124.521C161.021 124.609 160.724 124.619 160.44 124.55V120.05Z" fill="#DF5753"/>
<path d="M160.22 120.11C160.634 120.11 160.97 119.595 160.97 118.96C160.97 118.325 160.634 117.81 160.22 117.81C159.806 117.81 159.47 118.325 159.47 118.96C159.47 119.595 159.806 120.11 160.22 120.11Z" fill="#263238"/>
<path d="M160.04 117.85L161.56 117.42C161.56 117.42 160.78 118.6 160.04 117.85Z" fill="#263238"/>
<path d="M140.9 127.39C141.81 132.04 142.72 140.57 139.47 143.68C139.47 143.68 140.74 148.4 149.39 148.4C158.9 148.4 153.94 143.68 153.94 143.68C148.74 142.44 148.88 138.59 149.78 134.97L140.9 127.39Z" fill="#E58A7B"/>
<path d="M138.38 116.79C138.85 124.56 138.89 127.86 142.81 131.85C148.72 137.85 158.16 135.57 160.01 127.85C161.68 120.85 160.62 109.33 153.01 106.24C151.34 105.554 149.523 105.305 147.73 105.517C145.937 105.729 144.228 106.394 142.764 107.45C141.299 108.506 140.128 109.917 139.361 111.552C138.594 113.186 138.257 114.989 138.38 116.79Z" fill="#E58A7B"/>
<path d="M139.14 108C135.25 109.42 130.05 108.36 132.09 120.39C134.25 133.13 130.92 137.32 130.92 137.32C130.92 137.32 145.71 140.47 160.81 137.13C160.81 137.13 156.2 129.07 157.5 123.19C159.15 115.68 157.84 112.91 157.84 112.91C157.84 112.91 144.65 106 139.14 108Z" fill="#263238"/>
<path d="M155.65 120.84C155.662 122.318 156.088 123.762 156.88 125.01C157.93 126.63 159.18 126.01 159.49 124.29C159.78 122.78 159.57 120.11 158.22 119.07C156.87 118.03 155.65 119.08 155.65 120.84Z" fill="#E58A7B"/>
<path d="M135.76 109.36C134.63 106.22 139.98 101.36 151.27 103.36C162.56 105.36 163.07 114.77 163.07 114.77L160.78 112.05L160.88 114.91L149.27 117.14L135.76 109.36Z" fill="#263238"/>
<path d="M136.72 144.21C136.651 143.753 136.764 143.287 137.035 142.913C137.307 142.539 137.714 142.286 138.17 142.21C141.68 141.63 149.68 140.46 153.7 141.01C156.7 141.43 157.48 143.17 157.61 144.6C157.632 144.85 157.6 145.102 157.516 145.338C157.432 145.574 157.298 145.79 157.124 145.97C156.949 146.15 156.738 146.291 156.505 146.382C156.271 146.474 156.021 146.514 155.77 146.5L138.38 145.66C137.98 145.643 137.597 145.491 137.295 145.227C136.993 144.963 136.79 144.605 136.72 144.21Z" fill="url(#paint21_linear)"/>
<path opacity="0.6" d="M136.72 144.21C136.651 143.753 136.764 143.287 137.035 142.913C137.307 142.539 137.714 142.286 138.17 142.21C141.68 141.63 149.68 140.46 153.7 141.01C156.7 141.43 157.48 143.17 157.61 144.6C157.632 144.85 157.6 145.102 157.516 145.338C157.432 145.574 157.298 145.79 157.124 145.97C156.949 146.15 156.738 146.291 156.505 146.382C156.271 146.474 156.021 146.514 155.77 146.5L138.38 145.66C137.98 145.643 137.597 145.491 137.295 145.227C136.993 144.963 136.79 144.605 136.72 144.21Z" fill="black"/>
<path d="M146.76 318.91L153.21 323.38L164 308.76L157.55 304.28L146.76 318.91Z" fill="#E58A7B"/>
<path d="M131.72 318.61L138.53 322.5L148.08 307.03L141.27 303.14L131.72 318.61Z" fill="#E58A7B"/>
<path d="M163.99 308.76L158.43 316.3L151.98 311.82L157.54 304.29L163.99 308.76Z" fill="#CF6F64"/>
<path d="M141.26 303.15L148.08 307.03L143.16 315L136.34 311.12L141.26 303.15Z" fill="#CF6F64"/>
<path d="M152.2 193.04C152.2 193.04 177.38 224.77 172.66 255.12C168.84 279.63 146.75 312.82 146.75 312.82L136.36 307.66C143.679 292.983 149.928 277.797 155.06 262.22C156.64 257.383 157.101 252.251 156.408 247.21C155.716 242.169 153.887 237.351 151.06 233.12C138.3 214.49 117.87 225.58 131.61 193.04H152.2Z" fill="url(#paint22_linear)"/>
<path opacity="0.6" d="M152.2 193.04C152.2 193.04 177.38 224.77 172.66 255.12C168.84 279.63 146.75 312.82 146.75 312.82L136.36 307.66C143.679 292.983 149.928 277.797 155.06 262.22C156.64 257.383 157.101 252.251 156.408 247.21C155.716 242.169 153.887 237.351 151.06 233.12C138.3 214.49 117.87 225.58 131.61 193.04H152.2Z" fill="black"/>
<path opacity="0.4" d="M164.55 213.43L160.89 209.79C160.89 210.08 167.99 253.85 169.98 266.15C171.151 262.557 172.047 258.879 172.66 255.15C174.97 240.26 170.11 225.06 164.55 213.43Z" fill="black"/>
<path d="M163.45 193.04C163.45 193.04 193.77 232.92 194.62 256.83C195.33 276.83 161.62 315.58 161.62 315.58L151.83 309.24C151.83 309.24 171.56 281.73 176.52 259.24C174.63 236.98 133.98 193.05 133.98 193.05L163.45 193.04Z" fill="url(#paint23_linear)"/>
<path opacity="0.6" d="M163.45 193.04C163.45 193.04 193.77 232.92 194.62 256.83C195.33 276.83 161.62 315.58 161.62 315.58L151.83 309.24C151.83 309.24 171.56 281.73 176.52 259.24C174.63 236.98 133.98 193.05 133.98 193.05L163.45 193.04Z" fill="black"/>
<path d="M125.94 145.46C122.69 146.23 119.59 158.01 119.59 158.01L132.25 166.47C132.25 166.47 136.47 157.15 135 153.07C133.46 148.82 130.04 144.49 125.94 145.46Z" fill="url(#paint24_linear)"/>
<path opacity="0.2" d="M128.41 153.05L127.53 163.31L132.24 166.47C133.541 163.542 134.503 160.476 135.11 157.33L128.41 153.05Z" fill="black"/>
<path d="M167.2 145.66C167.2 145.66 170.93 146.98 163.45 193.01H131.58C132.12 180.01 132.13 172.01 125.94 145.43C130.401 144.513 134.923 143.921 139.47 143.66C144.287 143.315 149.123 143.315 153.94 143.66C160.15 144.25 167.2 145.66 167.2 145.66Z" fill="url(#paint25_linear)"/>
<path d="M170.43 153C171.15 155 171.92 157.15 172.71 159.22C173.5 161.29 174.27 163.43 175.09 165.52L177.54 171.8L178.16 173.37L178.47 174.15L178.62 174.54C178.62 174.61 178.62 174.61 178.62 174.6C178.433 174.346 178.195 174.135 177.92 173.98C177.521 173.748 177.071 173.617 176.61 173.6C176.23 173.582 175.85 173.65 175.5 173.8C175.05 174.01 175.04 174.11 175.05 174.09C175.137 174.025 175.215 173.947 175.28 173.86C175.826 173.13 176.302 172.35 176.7 171.53C177.18 170.62 177.62 169.64 178.07 168.64C178.95 166.64 179.76 164.57 180.58 162.49C181.4 160.41 182.15 158.28 182.91 156.15L185.18 149.77L189.04 150.77C188.27 155.34 187.29 159.77 186.11 164.29C185.54 166.54 184.88 168.77 184.11 171.02C183.73 172.15 183.31 173.27 182.82 174.42C182.3 175.683 181.664 176.895 180.92 178.04C180.655 178.416 180.364 178.774 180.05 179.11C179.535 179.657 178.917 180.095 178.23 180.4C177.58 180.679 176.873 180.801 176.168 180.754C175.462 180.707 174.777 180.493 174.17 180.13C173.415 179.663 172.789 179.013 172.35 178.24C172.2 177.99 172.07 177.72 171.98 177.53L171.79 177.15L171.41 176.37L170.66 174.82C169.66 172.74 168.66 170.65 167.78 168.53C166.9 166.41 165.99 164.28 165.13 162.13C164.27 159.98 163.5 157.84 162.78 155.52L170.43 153Z" fill="#E58A7B"/>
<path d="M167.2 145.66C171.03 146.57 175.33 157.89 175.33 157.89L163.95 167.66C163.95 167.66 156.57 155.32 158.06 151.24C159.65 146.96 162.19 144.5 167.2 145.66Z" fill="url(#paint26_linear)"/>
<path d="M186.98 146.24L190.98 142.9L193.76 147.23L191.76 150.84C191.76 150.84 188.5 153.84 185.61 152.31C185.152 151.286 185.037 150.141 185.284 149.047C185.531 147.953 186.126 146.968 186.98 146.24Z" fill="#E58A7B"/>
<path d="M198.22 142.91L197.92 143.99L191.59 145.06L190.97 142.9L198.22 142.91Z" fill="#E58A7B"/>
<path d="M162.4 316.1L150.98 308.71L153.03 305.16L165.86 313.05L162.4 316.1Z" fill="url(#paint27_linear)"/>
<path d="M142.99 321.98C141.985 321.859 141.018 321.518 140.16 320.98C140.128 320.963 140.102 320.937 140.086 320.905C140.069 320.872 140.064 320.836 140.07 320.8C140.069 320.764 140.08 320.728 140.102 320.699C140.124 320.67 140.155 320.649 140.19 320.64C140.5 320.54 143.19 319.71 143.98 320.36C144.064 320.433 144.128 320.527 144.165 320.632C144.202 320.737 144.21 320.85 144.19 320.96C144.183 321.141 144.127 321.316 144.029 321.467C143.93 321.619 143.792 321.741 143.63 321.82C143.433 321.925 143.213 321.98 142.99 321.98ZM140.74 320.89C141.98 321.52 142.98 321.75 143.46 321.51C143.566 321.454 143.655 321.37 143.718 321.268C143.781 321.167 143.817 321.05 143.82 320.93C143.833 320.882 143.832 320.831 143.818 320.784C143.804 320.736 143.777 320.693 143.74 320.66C143.34 320.32 141.83 320.58 140.74 320.89Z" fill="#263238"/>
<path d="M140.25 321.02C140.202 321.02 140.155 321.003 140.12 320.97C140.096 320.947 140.079 320.919 140.07 320.887C140.061 320.855 140.061 320.822 140.07 320.79C140.07 320.69 140.72 318.52 141.75 318.03C141.879 317.972 142.019 317.942 142.16 317.942C142.301 317.942 142.441 317.972 142.57 318.03C142.713 318.069 142.838 318.158 142.922 318.281C143.007 318.404 143.045 318.552 143.03 318.7C142.96 319.6 141.13 320.84 140.29 321.05L140.25 321.02ZM142.19 318.29C142.093 318.294 141.998 318.318 141.91 318.36C141.239 318.928 140.76 319.689 140.54 320.54C141.42 320.17 142.62 319.19 142.66 318.64C142.66 318.55 142.66 318.44 142.43 318.34C142.354 318.309 142.272 318.292 142.19 318.29Z" fill="#263238"/>
<path d="M157.27 326.3C156.15 326.3 154.58 324.85 153.72 323.96C153.699 323.929 153.688 323.892 153.688 323.855C153.688 323.818 153.699 323.781 153.72 323.75C153.74 323.718 153.768 323.691 153.801 323.674C153.835 323.656 153.872 323.648 153.91 323.65C154.31 323.7 157.79 324.17 158.28 325.15C158.326 325.241 158.351 325.342 158.351 325.445C158.351 325.548 158.326 325.649 158.28 325.74C158.201 325.889 158.087 326.017 157.947 326.113C157.808 326.209 157.648 326.269 157.48 326.29L157.27 326.3ZM154.37 324.1C155.64 325.32 156.74 326 157.37 325.92C157.479 325.906 157.583 325.864 157.672 325.8C157.761 325.735 157.832 325.649 157.88 325.55C157.899 325.515 157.909 325.475 157.909 325.435C157.909 325.395 157.899 325.355 157.88 325.32C157.65 324.78 155.78 324.32 154.37 324.1Z" fill="#263238"/>
<path d="M154.48 324.07C154.258 324.073 154.037 324.053 153.82 324.01C153.788 324.008 153.758 323.996 153.733 323.976C153.708 323.957 153.69 323.93 153.68 323.9C153.661 323.872 153.651 323.839 153.651 323.805C153.651 323.771 153.661 323.738 153.68 323.71C153.73 323.64 155.09 322.01 156.37 321.9C156.549 321.885 156.73 321.905 156.902 321.96C157.073 322.015 157.232 322.104 157.37 322.22C157.77 322.56 157.74 322.86 157.65 323.05C157.38 323.72 155.65 324.07 154.48 324.07ZM154.23 323.69C155.34 323.75 157.13 323.38 157.36 322.89C157.36 322.89 157.44 322.73 157.18 322.51C157.078 322.421 156.958 322.354 156.83 322.313C156.701 322.272 156.565 322.257 156.43 322.27C155.572 322.497 154.804 322.983 154.23 323.66V323.69Z" fill="#263238"/>
<path d="M140.52 319.97L132.04 317.57C131.895 317.526 131.739 317.538 131.603 317.602C131.466 317.667 131.358 317.78 131.3 317.92L128.43 324.35C128.364 324.515 128.334 324.692 128.341 324.869C128.348 325.046 128.392 325.22 128.47 325.379C128.548 325.538 128.659 325.679 128.795 325.793C128.931 325.907 129.089 325.991 129.26 326.04C132.26 326.82 133.71 327.04 137.44 328.11C139.73 328.76 143.02 329.94 146.19 330.84C149.36 331.74 150.41 328.65 149.19 327.99C143.63 325.05 143.19 322.99 141.68 320.79C141.401 320.39 140.99 320.1 140.52 319.97Z" fill="url(#paint28_linear)"/>
<path d="M153.95 322.79L146.71 317.79C146.588 317.698 146.436 317.656 146.285 317.671C146.133 317.685 145.992 317.757 145.89 317.87L141.09 323.03C140.974 323.163 140.888 323.32 140.836 323.489C140.784 323.658 140.769 323.836 140.791 324.011C140.812 324.187 140.871 324.356 140.962 324.507C141.053 324.658 141.175 324.789 141.32 324.89C143.88 326.6 145.2 327.29 148.38 329.51C150.38 330.87 154.25 333.88 156.95 335.76C159.65 337.64 161.66 335.06 160.7 334.04C156.41 329.45 155.46 326.57 154.7 323.96C154.589 323.497 154.325 323.084 153.95 322.79Z" fill="url(#paint29_linear)"/>
<path d="M148.07 313.48L135.02 306.99L136.37 303.46L150.31 310.29L148.07 313.48Z" fill="url(#paint30_linear)"/>
<path d="M131.11 191.17L130 194.02C129.89 194.24 130.15 194.47 130.52 194.47H163.65C163.93 194.47 164.17 194.33 164.19 194.15L164.48 191.3C164.48 191.1 164.25 190.93 163.93 190.93H131.65C131.547 190.918 131.442 190.934 131.347 190.976C131.252 191.018 131.17 191.085 131.11 191.17Z" fill="url(#paint31_linear)"/>
<path opacity="0.4" d="M131.11 191.17L130 194.02C129.89 194.24 130.15 194.47 130.52 194.47H163.65C163.93 194.47 164.17 194.33 164.19 194.15L164.48 191.3C164.48 191.1 164.25 190.93 163.93 190.93H131.65C131.547 190.918 131.442 190.934 131.347 190.976C131.252 191.018 131.17 191.085 131.11 191.17Z" fill="white"/>
<path d="M136.31 194.78H135.45C135.27 194.78 135.14 194.69 135.16 194.58L135.56 190.87C135.56 190.77 135.72 190.68 135.9 190.68H136.76C136.93 190.68 137.06 190.77 137.05 190.87L136.65 194.58C136.65 194.66 136.48 194.78 136.31 194.78Z" fill="url(#paint32_linear)"/>
<path d="M156.72 194.78H155.85C155.68 194.78 155.55 194.69 155.56 194.58L155.97 190.87C155.97 190.77 156.13 190.68 156.3 190.68H157.17C157.34 190.68 157.47 190.77 157.46 190.87L157.05 194.58C157.04 194.66 156.89 194.78 156.72 194.78Z" fill="url(#paint33_linear)"/>
<g style="mix-blend-mode:multiply">
<path d="M135.55 364.13C150.346 364.13 162.34 363.261 162.34 362.19C162.34 361.119 150.346 360.25 135.55 360.25C120.754 360.25 108.76 361.119 108.76 362.19C108.76 363.261 120.754 364.13 135.55 364.13Z" fill="#696969"/>
</g>
<path d="M151.88 359.45C147.14 358.08 141.88 356.3 138.69 354.45C138.6 354.39 138.51 354.36 138.42 354.31V332.85H147.95C148.678 332.807 149.362 332.487 149.862 331.957C150.362 331.426 150.641 330.724 150.641 329.995C150.641 329.266 150.362 328.564 149.862 328.033C149.362 327.503 148.678 327.183 147.95 327.14H138.42V229.32H132.71V327.14H123.17C122.442 327.183 121.758 327.503 121.258 328.033C120.758 328.564 120.479 329.266 120.479 329.995C120.479 330.724 120.758 331.426 121.258 331.957C121.758 332.487 122.442 332.807 123.17 332.85H132.71V354.28C132.62 354.33 132.52 354.36 132.43 354.42C129.2 356.3 123.99 358.08 119.25 359.42C118.93 359.517 118.655 359.725 118.475 360.007C118.295 360.289 118.222 360.626 118.269 360.957C118.316 361.289 118.48 361.592 118.732 361.812C118.983 362.033 119.305 362.156 119.64 362.16H151.48C151.8 362.14 152.104 362.011 152.34 361.794C152.577 361.576 152.731 361.285 152.778 360.967C152.825 360.65 152.761 360.326 152.598 360.049C152.434 359.773 152.181 359.562 151.88 359.45Z" fill="#696969"/>
<path d="M153.34 219.36H117.78C114.919 219.36 112.6 221.679 112.6 224.54V235.11C112.6 237.971 114.919 240.29 117.78 240.29H153.34C156.201 240.29 158.52 237.971 158.52 235.11V224.54C158.52 221.679 156.201 219.36 153.34 219.36Z" fill="url(#paint34_linear)"/>
<path d="M117.45 240.3V242.12C117.45 243.62 119.08 244.85 121.08 244.85H150.08C152.08 244.85 153.71 243.62 153.71 242.12V240.3H117.45Z" fill="url(#paint35_linear)"/>
<path opacity="0.3" d="M117.45 240.3V242.12C117.45 243.62 119.08 244.85 121.08 244.85H150.08C152.08 244.85 153.71 243.62 153.71 242.12V240.3H117.45Z" fill="white"/>
</g>
<defs>
<linearGradient id="paint0_linear" x1="341.749" y1="97.5283" x2="341.749" y2="123.64" gradientUnits="userSpaceOnUse">
<stop stop-color="#A0388B"/>
<stop offset="0.535851" stop-color="#EC2E37"/>
<stop offset="1" stop-color="#FB7E47"/>
</linearGradient>
<linearGradient id="paint1_linear" x1="361.693" y1="95.5761" x2="361.693" y2="162.99" gradientUnits="userSpaceOnUse">
<stop stop-color="#A0388B"/>
<stop offset="0.535851" stop-color="#EC2E37"/>
<stop offset="1" stop-color="#FB7E47"/>
</linearGradient>
<linearGradient id="paint2_linear" x1="349.57" y1="162.99" x2="349.57" y2="344.84" gradientUnits="userSpaceOnUse">
<stop stop-color="#A0388B"/>
<stop offset="0.535851" stop-color="#EC2E37"/>
<stop offset="1" stop-color="#FB7E47"/>
</linearGradient>
<linearGradient id="paint3_linear" x1="359.905" y1="335.88" x2="359.905" y2="345.52" gradientUnits="userSpaceOnUse">
<stop stop-color="#A0388B"/>
<stop offset="0.535851" stop-color="#EC2E37"/>
<stop offset="1" stop-color="#FB7E47"/>
</linearGradient>
<linearGradient id="paint4_linear" x1="374.09" y1="162.99" x2="374.09" y2="344.32" gradientUnits="userSpaceOnUse">
<stop stop-color="#A0388B"/>
<stop offset="0.535851" stop-color="#EC2E37"/>
<stop offset="1" stop-color="#FB7E47"/>
</linearGradient>
<linearGradient id="paint5_linear" x1="387.125" y1="340.16" x2="387.125" y2="344.58" gradientUnits="userSpaceOnUse">
<stop stop-color="#A0388B"/>
<stop offset="0.535851" stop-color="#EC2E37"/>
<stop offset="1" stop-color="#FB7E47"/>
</linearGradient>
<linearGradient id="paint6_linear" x1="382.659" y1="353.042" x2="382.659" y2="354.957" gradientUnits="userSpaceOnUse">
<stop stop-color="#A0388B"/>
<stop offset="0.535851" stop-color="#EC2E37"/>
<stop offset="1" stop-color="#FB7E47"/>
</linearGradient>
<linearGradient id="paint7_linear" x1="383.484" y1="351.274" x2="383.484" y2="354.673" gradientUnits="userSpaceOnUse">
<stop stop-color="#A0388B"/>
<stop offset="0.535851" stop-color="#EC2E37"/>
<stop offset="1" stop-color="#FB7E47"/>
</linearGradient>
<linearGradient id="paint8_linear" x1="355.933" y1="352.065" x2="355.933" y2="353.824" gradientUnits="userSpaceOnUse">
<stop stop-color="#A0388B"/>
<stop offset="0.535851" stop-color="#EC2E37"/>
<stop offset="1" stop-color="#FB7E47"/>
</linearGradient>
<linearGradient id="paint9_linear" x1="356.671" y1="349.986" x2="356.671" y2="352.89" gradientUnits="userSpaceOnUse">
<stop stop-color="#A0388B"/>
<stop offset="0.535851" stop-color="#EC2E37"/>
<stop offset="1" stop-color="#FB7E47"/>
</linearGradient>
<linearGradient id="paint10_linear" x1="381.275" y1="97.3733" x2="381.275" y2="125.49" gradientUnits="userSpaceOnUse">
<stop stop-color="#A0388B"/>
<stop offset="0.535851" stop-color="#EC2E37"/>
<stop offset="1" stop-color="#FB7E47"/>
</linearGradient>
<linearGradient id="paint11_linear" x1="241.685" y1="15.62" x2="241.685" y2="16.65" gradientUnits="userSpaceOnUse">
<stop stop-color="#A0388B"/>
<stop offset="0.535851" stop-color="#EC2E37"/>
<stop offset="1" stop-color="#FB7E47"/>
</linearGradient>
<linearGradient id="paint12_linear" x1="327.216" y1="64.9609" x2="328.245" y2="65.0072" gradientUnits="userSpaceOnUse">
<stop stop-color="#A0388B"/>
<stop offset="0.535851" stop-color="#EC2E37"/>
<stop offset="1" stop-color="#FB7E47"/>
</linearGradient>
<linearGradient id="paint13_linear" x1="261.12" y1="20.24" x2="261.12" y2="265.96" gradientUnits="userSpaceOnUse">
<stop stop-color="#A0388B"/>
<stop offset="0.535851" stop-color="#EC2E37"/>
<stop offset="1" stop-color="#FB7E47"/>
</linearGradient>
<linearGradient id="paint14_linear" x1="254.075" y1="26.98" x2="254.075" y2="272.7" gradientUnits="userSpaceOnUse">
<stop stop-color="#A0388B"/>
<stop offset="0.535851" stop-color="#EC2E37"/>
<stop offset="1" stop-color="#FB7E47"/>
</linearGradient>
<linearGradient id="paint15_linear" x1="232.235" y1="120.44" x2="232.235" y2="128.85" gradientUnits="userSpaceOnUse">
<stop stop-color="#A0388B"/>
<stop offset="0.535851" stop-color="#EC2E37"/>
<stop offset="1" stop-color="#FB7E47"/>
</linearGradient>
<linearGradient id="paint16_linear" x1="250.03" y1="229.08" x2="250.03" y2="251.62" gradientUnits="userSpaceOnUse">
<stop stop-color="#A0388B"/>
<stop offset="0.535851" stop-color="#EC2E37"/>
<stop offset="1" stop-color="#FB7E47"/>
</linearGradient>
<linearGradient id="paint17_linear" x1="225.185" y1="171.18" x2="225.185" y2="179.59" gradientUnits="userSpaceOnUse">
<stop stop-color="#A0388B"/>
<stop offset="0.535851" stop-color="#EC2E37"/>
<stop offset="1" stop-color="#FB7E47"/>
</linearGradient>
<linearGradient id="paint18_linear" x1="278.715" y1="46.3696" x2="278.715" y2="59.9802" gradientUnits="userSpaceOnUse">
<stop stop-color="#A0388B"/>
<stop offset="0.535851" stop-color="#EC2E37"/>
<stop offset="1" stop-color="#FB7E47"/>
</linearGradient>
<linearGradient id="paint19_linear" x1="250.788" y1="57.6016" x2="264.953" y2="72.0867" gradientUnits="userSpaceOnUse">
<stop stop-color="#A0388B"/>
<stop offset="0.535851" stop-color="#EC2E37"/>
<stop offset="1" stop-color="#FB7E47"/>
</linearGradient>
<linearGradient id="paint20_linear" x1="256.82" y1="80.48" x2="256.82" y2="99.0509" gradientUnits="userSpaceOnUse">
<stop stop-color="#A0388B"/>
<stop offset="0.535851" stop-color="#EC2E37"/>
<stop offset="1" stop-color="#FB7E47"/>
</linearGradient>
<linearGradient id="paint21_linear" x1="147.158" y1="140.867" x2="147.158" y2="146.503" gradientUnits="userSpaceOnUse">
<stop stop-color="#A0388B"/>
<stop offset="0.535851" stop-color="#EC2E37"/>
<stop offset="1" stop-color="#FB7E47"/>
</linearGradient>
<linearGradient id="paint22_linear" x1="150.145" y1="193.04" x2="150.145" y2="312.82" gradientUnits="userSpaceOnUse">
<stop stop-color="#A0388B"/>
<stop offset="0.535851" stop-color="#EC2E37"/>
<stop offset="1" stop-color="#FB7E47"/>
</linearGradient>
<linearGradient id="paint23_linear" x1="164.306" y1="193.04" x2="164.306" y2="315.58" gradientUnits="userSpaceOnUse">
<stop stop-color="#A0388B"/>
<stop offset="0.535851" stop-color="#EC2E37"/>
<stop offset="1" stop-color="#FB7E47"/>
</linearGradient>
<linearGradient id="paint24_linear" x1="127.451" y1="145.322" x2="127.451" y2="166.47" gradientUnits="userSpaceOnUse">
<stop stop-color="#A0388B"/>
<stop offset="0.535851" stop-color="#EC2E37"/>
<stop offset="1" stop-color="#FB7E47"/>
</linearGradient>
<linearGradient id="paint25_linear" x1="147.035" y1="143.401" x2="147.035" y2="193.01" gradientUnits="userSpaceOnUse">
<stop stop-color="#A0388B"/>
<stop offset="0.535851" stop-color="#EC2E37"/>
<stop offset="1" stop-color="#FB7E47"/>
</linearGradient>
<linearGradient id="paint26_linear" x1="166.596" y1="145.373" x2="166.596" y2="167.66" gradientUnits="userSpaceOnUse">
<stop stop-color="#A0388B"/>
<stop offset="0.535851" stop-color="#EC2E37"/>
<stop offset="1" stop-color="#FB7E47"/>
</linearGradient>
<linearGradient id="paint27_linear" x1="158.42" y1="305.16" x2="158.42" y2="316.1" gradientUnits="userSpaceOnUse">
<stop stop-color="#A0388B"/>
<stop offset="0.535851" stop-color="#EC2E37"/>
<stop offset="1" stop-color="#FB7E47"/>
</linearGradient>
<linearGradient id="paint28_linear" x1="139.012" y1="317.544" x2="139.012" y2="331.003" gradientUnits="userSpaceOnUse">
<stop stop-color="#A0388B"/>
<stop offset="0.535851" stop-color="#EC2E37"/>
<stop offset="1" stop-color="#FB7E47"/>
</linearGradient>
<linearGradient id="paint29_linear" x1="150.862" y1="317.668" x2="150.862" y2="336.428" gradientUnits="userSpaceOnUse">
<stop stop-color="#A0388B"/>
<stop offset="0.535851" stop-color="#EC2E37"/>
<stop offset="1" stop-color="#FB7E47"/>
</linearGradient>
<linearGradient id="paint30_linear" x1="142.665" y1="303.46" x2="142.665" y2="313.48" gradientUnits="userSpaceOnUse">
<stop stop-color="#A0388B"/>
<stop offset="0.535851" stop-color="#EC2E37"/>
<stop offset="1" stop-color="#FB7E47"/>
</linearGradient>
<linearGradient id="paint31_linear" x1="147.227" y1="190.926" x2="147.227" y2="194.47" gradientUnits="userSpaceOnUse">
<stop stop-color="#A0388B"/>
<stop offset="0.535851" stop-color="#EC2E37"/>
<stop offset="1" stop-color="#FB7E47"/>
</linearGradient>
<linearGradient id="paint32_linear" x1="136.104" y1="190.68" x2="136.104" y2="194.78" gradientUnits="userSpaceOnUse">
<stop stop-color="#A0388B"/>
<stop offset="0.535851" stop-color="#EC2E37"/>
<stop offset="1" stop-color="#FB7E47"/>
</linearGradient>
<linearGradient id="paint33_linear" x1="156.51" y1="190.68" x2="156.51" y2="194.78" gradientUnits="userSpaceOnUse">
<stop stop-color="#A0388B"/>
<stop offset="0.535851" stop-color="#EC2E37"/>
<stop offset="1" stop-color="#FB7E47"/>
</linearGradient>
<linearGradient id="paint34_linear" x1="135.56" y1="219.36" x2="135.56" y2="240.29" gradientUnits="userSpaceOnUse">
<stop stop-color="#A0388B"/>
<stop offset="0.535851" stop-color="#EC2E37"/>
<stop offset="1" stop-color="#FB7E47"/>
</linearGradient>
<linearGradient id="paint35_linear" x1="135.58" y1="240.3" x2="135.58" y2="244.85" gradientUnits="userSpaceOnUse">
<stop stop-color="#A0388B"/>
<stop offset="0.535851" stop-color="#EC2E37"/>
<stop offset="1" stop-color="#FB7E47"/>
</linearGradient>
<clipPath id="clip0">
<rect width="500" height="372.61" fill="white"/>
</clipPath>
</defs>
</svg>
