<svg width="170" height="274" viewBox="0 0 170 274" fill="none" xmlns="http://www.w3.org/2000/svg">
<path d="M338.818 256.989L338.909 257H339C402.226 257 459.151 247.783 500.322 233.302C520.9 226.063 537.62 217.483 549.226 208.019C560.812 198.571 567.5 188.069 567.5 177C567.5 165.834 560.137 156.163 547.694 147.999C535.229 139.819 517.378 132.947 495.695 127.41C452.325 116.335 393.223 110.505 330.085 110.5C270.684 103.744 215.254 109.581 174.612 122.37C154.289 128.766 137.587 136.924 125.934 146.18C114.303 155.418 107.5 165.922 107.5 177C107.5 188.152 114.67 197.727 126.796 205.987C138.938 214.258 156.33 221.414 177.447 227.699C219.702 240.276 277.309 249.488 338.818 256.989Z" stroke="#FB7E47" stroke-width="3"/>
<path d="M290 257C353.176 257 409.102 250.392 449.287 237.334C469.376 230.807 485.631 222.636 496.89 212.791C508.176 202.922 514.5 191.308 514.5 178C514.5 164.72 507.23 149.469 494.639 134.167C482.016 118.826 463.905 103.26 441.876 89.325C397.822 61.4569 337.922 40 274.5 40C211.064 40 156.138 61.4659 117.054 89.3719C97.5132 103.324 81.9029 118.908 71.165 134.26C60.4438 149.589 54.5 164.805 54.5 178C54.5 191.37 61.5737 202.991 73.8791 212.833C86.1663 222.66 103.787 230.821 125.24 237.343C168.16 250.391 226.822 257 290 257Z" stroke="#EC2E37" stroke-width="3"/>
<path d="M231.5 272C294.742 272 352.067 261.626 393.637 244.798C414.418 236.385 431.335 226.331 443.081 215.089C454.83 203.843 461.5 191.31 461.5 178C461.5 164.841 455.614 147.899 444.974 129.979C434.312 112.022 418.793 92.9393 399.326 75.476C360.482 40.6308 305.792 12.1224 242.409 12.0003C219.369 -1.45448 192.768 -0.936507 166 8.02639C139.106 17.0316 111.892 34.6034 87.5875 55.3902C63.2738 76.1847 41.7969 100.261 26.3867 122.363C18.6817 133.415 12.4763 143.997 8.1914 153.451C3.92023 162.874 1.5 171.3 1.5 178C1.5 191.31 8.16982 203.843 19.9195 215.089C31.6653 226.331 48.5823 236.385 69.3633 244.798C110.933 261.626 168.258 272 231.5 272Z" stroke="#A0388B" stroke-width="3"/>
</svg>
