<svg width="522" height="664" viewBox="0 0 522 664" fill="none" xmlns="http://www.w3.org/2000/svg">
<path d="M244.325 250.015L171.906 208.198L191.457 196.9L248.109 229.586L275.997 213.49L291.792 222.621L244.325 250.015Z" fill="url(#paint0_linear)"/>
<path d="M171.906 208.198V231.917L244.353 273.735V250.015L171.906 208.198Z" fill="url(#paint1_linear)"/>
<path d="M244.325 257.666L171.906 215.848L191.457 204.551L248.109 237.237L275.997 221.113L291.792 230.244L244.325 257.666Z" fill="#FB7E47"/>
<path d="M291.792 222.621V246.313L244.353 273.735V250.015L291.792 222.621Z" fill="#020202"/>
<path d="M292.998 221.936L275.997 212.119L248.109 228.215L191.484 195.529L170.699 207.402V232.465L244.325 274.996L292.395 247.246L292.998 246.889V221.936ZM191.539 198.271L248.164 230.985L276.052 214.861L289.461 222.621L268.648 234.632L244.325 248.534L174.291 208.198L191.539 198.271ZM173.167 231.177V210.254L243.201 250.673V271.596L173.167 231.177ZM290.64 245.6L245.587 271.623V250.701L290.64 224.678V245.6Z" fill="black"/>
<path d="M275.366 435.767L298.784 449.259L324.889 434.177L301.471 420.686L275.366 435.767Z" fill="url(#paint2_linear)"/>
<path d="M219.016 540.764L242.379 554.227V481.808L219.016 468.316V540.764Z" fill="url(#paint3_linear)"/>
<path d="M219.016 468.316L245.066 453.262L268.511 466.753L242.461 481.808L219.016 468.316Z" fill="url(#paint4_linear)"/>
<path d="M306.955 516.989L283.538 503.498L305.063 465.519L307.257 464.752L307.696 464.505L313.838 489.76L306.955 516.989Z" fill="url(#paint5_linear)"/>
<path d="M306.956 518.36L281.893 503.937L304.241 464.505L306.983 463.435L308.382 462.64L314.963 489.76L307.888 517.757L306.956 518.36ZM285.156 503.059L306.188 515.152L312.605 489.732L306.873 466.123L305.886 466.479L285.156 503.059Z" fill="black"/>
<path d="M275.394 435.767L263.164 485.839L284.635 514.22L291.599 505.609L298.839 449.259L275.394 435.767Z" fill="url(#paint6_linear)"/>
<path d="M284.607 516.139L261.847 485.976L274.352 435L275.394 434.396L300.073 448.628L292.696 506.213L284.607 516.139ZM264.452 485.564L284.662 512.245L290.448 505.088L297.687 449.889L276.299 437.577L264.452 485.564Z" fill="black"/>
<path d="M275.256 444.487L298.702 457.979L324.807 442.897L301.362 429.406L275.256 444.487Z" fill="#FB7E47"/>
<path d="M218.933 477.036L244.983 461.982L268.428 475.473L242.35 490.528L218.933 477.036Z" fill="#FB7E47"/>
<path d="M274.023 536.02L259.791 527.848L254.279 496.149L258.749 492.667L259.215 492.392L274.023 536.02Z" fill="url(#paint7_linear)"/>
<path d="M275.449 536.458L274.023 537.308L258.694 528.506L252.963 495.601L258.584 491.323L259.873 490.583L275.366 536.266L275.449 536.458ZM260.888 526.998L271.856 533.305L258.584 494.202L255.568 496.56L260.888 526.998Z" fill="black"/>
<path d="M274.023 536.02L259.297 492.392L258.859 492.639C259.544 501.14 259.901 507.831 259.901 512.766V544.219L242.57 554.227V481.808L268.621 466.753L283.73 509.448L284.114 509.229L298.949 449.259L325.054 434.177V506.597L307.065 516.989V485.235C307.065 483.59 307.065 481.725 307.065 479.751C307.065 477.777 307.34 472.622 307.723 464.532L307.285 464.806L292.669 525.298L274.023 536.02Z" fill="#020202"/>
<path d="M326.151 433.491L301.471 419.287L274.324 434.972L273.995 436.343L297.413 449.834L283.702 505.856L269.58 465.931L245.148 451.864L217.891 467.631V541.422L242.57 555.626L261.162 544.904V512.766C261.162 509.348 260.997 505.07 260.668 499.933L273.008 536.815L274.023 537.391L276.161 536.157L293.684 526.038L305.914 475.007C305.914 477.173 305.914 478.736 305.749 479.669C305.749 481.698 305.749 483.563 305.749 485.153V517.593L306.956 518.278L307.998 517.675L326.151 507.2V433.491ZM277.779 435.74L301.499 422.029L322.531 434.149L301.718 446.16L298.839 447.833L277.779 435.74ZM245.066 454.633L266.098 466.753L242.461 480.464L221.401 468.371L245.066 454.633ZM241.172 552.143L220.222 540.051V470.373L241.172 482.493V552.143ZM323.737 505.911L308.162 514.905V485.235C308.162 483.59 308.162 481.753 308.162 479.751C308.162 477.749 308.436 472.594 308.848 464.587V462.393L306.106 463.984L291.49 524.503L274.571 534.265L259.764 490.637L257.378 492.008V492.776C258.063 501.195 258.392 507.913 258.392 512.794V543.561L243.448 552.171V482.521L267.661 468.536L282.77 511.231L284.854 510.024L299.689 450.054L302.705 448.299L323.546 436.288L323.737 505.911Z" fill="black"/>
<path d="M293.849 575.753V599.527L365.254 640.742V616.967L293.849 575.753Z" fill="url(#paint8_linear)"/>
<path d="M341.068 590.89L320.42 575.918L332.567 563.331L351.762 558.944L352.777 559.52V573.559L341.068 590.89ZM324.039 575.589L340.492 587.489L350.501 572.819V561.713L333.801 565.498L324.039 575.589Z" fill="black"/>
<path d="M372.438 603.504L371.561 603.312L355.382 600.323C354.587 600.323 354.642 600.323 348.5 590.533L348.061 589.848L357.987 576.877L376.99 575.397L377.923 575.918V592.371L372.438 603.504ZM356.177 598.019L371.095 600.761L375.51 591.877V577.892L359.221 579.153L350.995 589.957C353.106 593.385 355.437 596.977 356.177 598.047V598.019Z" fill="black"/>
<path d="M407.62 592.48L365.226 616.967L293.931 575.835L336.324 551.348L351.79 560.288L328.701 573.614L339.916 580.113L361.333 567.774L376.798 576.713L355.409 589.052L368.901 596.84L391.99 583.486L407.62 592.48Z" fill="url(#paint9_linear)"/>
<path d="M407.373 599.253L364.98 623.74L293.684 582.608L336.077 558.039L351.543 566.978L328.4 580.333L339.615 586.831L361.003 574.464L376.496 583.404L355.108 595.771L368.572 603.531L391.688 590.204L407.373 599.253Z" fill="#FB7E47"/>
<path d="M376.716 576.631V592.179L371.561 595.497C371.561 595.497 368.819 596.566 368.572 596.566C368.325 596.566 355.492 588.531 355.492 588.531L359.742 586.091L376.716 576.631Z" fill="#020202"/>
<path d="M351.735 560.233V573.203L339.862 580.031L327.961 573.45L333.911 569.995L351.735 560.233Z" fill="#020202"/>
<path d="M408.826 591.795L391.907 582.033L368.819 595.359L357.713 588.97L377.21 577.59L377.84 577.234V575.835L361.168 566.211L339.752 578.578L330.922 573.45L352.859 560.809V559.437L336.187 549.813L292.587 574.958V600.131L365.199 642.031L408.772 616.885L408.826 591.795ZM336.242 552.664L349.322 560.205L326.206 573.532L339.917 581.402L361.333 569.062L374.413 576.631L353.024 588.97L368.901 598.129L391.99 584.802L405.316 592.48L365.336 615.596L296.317 575.753L336.242 552.664ZM295.11 598.814V577.81L364.13 617.653V638.658L295.11 598.814ZM406.523 615.569L366.515 638.658V617.653L406.523 594.564V615.569Z" fill="black"/>
<path d="M365.254 617.324V641.098L407.647 616.638V592.864L365.254 617.324Z" fill="#020202"/>
<path d="M207.531 110.179L223.654 100.417L223.819 65.6467L217.786 66.7984L207.531 110.179Z" fill="#020202"/>
<path d="M206.132 110.755L216.771 65.7563L224.998 64.1933L224.833 101.075L207.53 111.577L206.132 110.755ZM218.746 67.8404L209.34 107.656L222.448 99.7314L222.612 67.1L218.746 67.8404Z" fill="black"/>
<path d="M226.78 48.8922L248.992 35.8945L259.165 86.3498L238.38 111.056L226.78 48.8922Z" fill="url(#paint10_linear)"/>
<path d="M237.667 113.744L225.464 48.2615L248.964 34.5509L250.034 35.1816L260.454 86.7337L237.667 113.744ZM228.124 49.6052L239.093 108.479L257.876 86.1578L248.032 37.7592L228.124 49.6052Z" fill="black"/>
<path d="M185.319 24.926L207.503 11.9557L215.647 55.2266L196.863 87.0902L185.319 24.926Z" fill="url(#paint11_linear)"/>
<path d="M196.26 90.4355L183.975 24.3227L207.503 10.612L208.572 11.2427L216.799 55.5008L196.26 90.4355ZM186.663 25.5293L197.467 83.7173L214.386 55.0895L206.625 13.9575L186.663 25.5293Z" fill="black"/>
<path d="M250.966 135.269L227.822 121.888L220.885 86.2401C220.556 84.7045 220.035 81.7978 219.322 77.4378C218.609 73.0779 218.088 69.5131 217.759 66.6887C217.512 68.6904 217.073 71.1035 216.47 73.9553C215.867 76.8071 215.291 79.4396 214.715 81.7156C214.139 83.9915 211.753 93.5068 207.503 110.069L184.387 96.715L166.453 13.9575L185.319 24.926L193.189 65.7838C194.972 74.8328 196.37 80.7284 197.028 85.8562C197.467 82.7302 198.07 79.8235 199.167 74.6957C200.264 69.5679 201.306 65.345 202.266 62.1093L208.655 38.3899L226.78 48.8648L232.978 79.7687C234.047 84.7593 235.116 90.463 236.186 96.8247C237.255 103.186 237.859 106.587 238.215 109.63C238.626 106.23 239.97 101.87 241.889 93.9181L249.924 62.1367L268.79 73.1053L250.966 135.269Z" fill="url(#paint12_linear)"/>
<path d="M166.453 14.0397L188.637 1.06943L207.503 11.9557L185.319 24.926L166.453 14.0397Z" fill="url(#paint13_linear)"/>
<path d="M208.655 38.4173L230.838 25.4196L248.991 35.8945L226.78 48.8922L208.655 38.4173Z" fill="url(#paint14_linear)"/>
<path d="M249.924 62.2464L272.107 49.2487L291.001 60.1624L268.817 73.1327L249.924 62.2464Z" fill="url(#paint15_linear)"/>
<path d="M167.002 21.6903L189.186 8.71999L207.695 19.3869L207.75 19.7982L185.895 32.604L167.002 21.6903Z" fill="#FB7E47"/>
<path d="M208.079 46.0678L230.262 33.0701L248.388 43.5451L226.204 56.5428L208.079 46.0678Z" fill="#FB7E47"/>
<path d="M249.348 69.897L271.532 56.8993L290.398 67.8129L268.214 80.7832L249.348 69.897Z" fill="#FB7E47"/>
<path d="M292.399 59.5591L272.108 47.8502L248.882 61.5609L240.655 93.8358C239.76 97.5834 239.019 100.847 238.434 103.625C238.105 101.623 237.721 99.3749 237.31 96.8247C236.213 90.4081 235.116 84.6497 234.074 79.7138L228.042 49.5504L250.225 36.5801L249.951 35.209L230.756 24.2405L207.531 37.9511L201.032 62.0819C200.072 65.345 199.03 69.6228 197.906 74.7505C197.522 76.5878 197.165 78.2879 196.864 79.8783C196.205 75.8748 195.328 71.1858 194.286 65.8935L186.581 25.8583L208.764 12.888L208.49 11.517L188.527 0L165 13.7107L183.317 97.5925L207.531 111.577L208.545 110.947C212.795 94.4939 215.318 84.4577 215.894 82.1269C216.47 79.7961 217.046 77.2459 217.622 74.4489C217.786 75.4909 217.951 76.5878 218.143 77.7395C218.883 82.1817 219.377 85.061 219.706 86.5692L226.753 122.656L250.966 136.641L274.164 123.067L292.399 59.5591ZM252.31 62.3013L272.108 50.702L288.561 60.2447L284.118 62.8223L268.762 71.8165L257.547 65.345L252.31 62.3013ZM211.04 38.4721L230.839 26.8729L246.578 35.8945L226.78 47.4938L213.399 39.7609L211.04 38.4721ZM168.839 13.9575L188.637 2.38565L205.09 11.9009L185.292 23.4727L168.839 13.9575ZM228.837 121.147L222.064 86.0756C221.735 84.6222 221.214 81.6882 220.501 77.3556C219.788 73.023 219.294 69.4582 218.965 66.6613H216.58C216.333 68.6356 215.894 71.0487 215.318 73.8456C214.742 76.6426 214.139 79.3299 213.563 81.5785C212.987 83.827 210.821 92.7664 206.735 108.369L185.429 96.0569L168.181 16.5351L184.25 25.8035L192.01 66.058C193.792 75.0248 194.752 80.701 195.493 85.8013L198.043 87.2547C198.481 84.1835 199.249 80.0429 200.346 74.9699C201.443 69.897 202.458 65.6741 203.417 62.4384L209.395 40.2545L210.739 41.0223L225.711 49.6052L231.798 80.0703C232.84 84.9787 233.937 90.7098 235.007 97.0715C236.076 103.433 236.652 106.696 237.008 109.713L239.559 111.166C239.997 107.821 241.149 102.117 243.069 94.2746L250.692 64.1111L267.391 73.736L250.225 133.514L228.837 121.147ZM252.885 132.719L269.969 73.9279L283.104 66.2225L289.136 62.6852L272.272 121.477L252.885 132.719Z" fill="black"/>
<path d="M250.966 135.269L273.15 122.272L291.001 60.1624L268.817 73.1327L250.966 135.269Z" fill="#020202"/>
<path d="M336.68 340.067C326.059 333.961 320.757 323.907 320.776 309.903C320.774 308.52 320.847 307.138 320.995 305.763L337.174 311.713L346.99 305.818C347.63 305.958 348.293 305.958 348.932 305.816C349.572 305.673 350.172 305.393 350.692 304.995L358.233 299.072C351.661 292.005 344.107 285.919 335.802 281.001C330.196 277.36 323.746 275.225 317.074 274.804C314.562 274.751 312.076 275.316 309.834 276.449L309.122 276.861L308.546 277.19L288.089 289.666L300.676 297.344V298.386C300.673 301.136 300.838 303.883 301.169 306.613L300.155 305.9L295.685 308.395L295.301 334.912C295.301 334.912 313.728 357.26 314.003 357.452C314.277 357.644 334.02 362.306 334.02 362.306L341.287 358.22C345.614 360.342 350.236 361.802 354.997 362.552V346.1C351.945 345.596 348.924 344.919 345.948 344.07C342.699 343.141 339.584 341.796 336.68 340.067Z" fill="url(#paint16_linear)"/>
<path d="M335.803 345.88C325.218 339.738 319.898 329.729 319.898 315.717C319.898 314.334 319.971 312.951 320.118 311.576L336.324 317.527L346.141 311.658C346.776 311.799 347.434 311.798 348.069 311.656C348.704 311.513 349.3 311.234 349.815 310.836L353.736 307.737C354.201 307.371 354.581 306.909 354.851 306.383C355.12 305.857 355.274 305.278 355.3 304.688C355.326 304.097 355.224 303.507 355.001 302.959C354.779 302.411 354.441 301.918 354.011 301.512C348.248 295.842 341.8 290.914 334.816 286.842C329.218 283.199 322.778 281.055 316.114 280.617C313.594 280.561 311.098 281.126 308.848 282.263L308.135 282.674L307.559 283.03L287.103 295.288L299.716 302.966C299.716 303.322 299.716 303.651 299.716 304.008C299.713 306.757 299.877 309.505 300.21 312.234L299.223 311.549L294.726 314.017L294.342 340.56C294.342 340.56 312.769 362.909 313.043 363.101C313.317 363.293 333.061 367.954 333.061 367.954L340.327 364.088C345.318 366.391 349.568 361.346 353.791 361.922L354.12 351.858C351.059 351.364 348.029 350.696 345.044 349.856C341.814 348.91 338.711 347.575 335.803 345.88Z" fill="#FB7E47"/>
<path d="M356.259 363.348L355.327 363.923H354.915C350.168 363.188 345.551 361.775 341.205 359.728L334.075 363.54H333.636C313.701 358.823 313.454 358.659 313.235 358.494C313.016 358.329 312.796 358.22 294.259 335.734L293.985 335.405L294.369 307.737L299.661 304.803C299.452 302.689 299.351 300.566 299.36 298.441V297.893L287.103 288.679L307.833 276.257L308.217 276.011L309.615 275.188C311.902 274.138 314.394 273.614 316.91 273.652C323.751 274.095 330.362 276.296 336.104 280.042C344.52 285.006 352.176 291.156 358.837 298.304L359.413 298.907L352.886 311.933L351.762 312.591L351.104 311.905C349.733 310.452 348.225 308.971 346.552 307.381L337.037 313.084L321.763 307.6C321.763 308.395 321.763 309.218 321.763 310.068C321.763 323.779 326.754 333.157 337.064 339.107C339.891 340.796 342.923 342.114 346.086 343.028C349.028 343.852 352.012 344.52 355.025 345.03L356.04 345.195L356.259 363.348ZM341.232 357.013L341.781 357.26C345.625 359.102 349.689 360.448 353.873 361.264V347.251C351.131 346.758 348.389 346.127 345.647 345.359C342.286 344.39 339.061 342.998 336.05 341.219C325.081 334.884 319.597 324.409 319.597 310.095C319.597 308.615 319.597 307.353 319.816 305.845L319.981 304.309L337.092 310.589L347.183 304.501L347.841 305.132C349.349 306.558 350.583 307.874 351.954 309.163L356.808 299.483C350.449 292.76 343.186 286.955 335.227 282.235C329.793 278.72 323.557 276.635 317.101 276.175C314.783 276.136 312.488 276.653 310.411 277.683L309.533 278.204L309.259 278.396L290.393 289.666L301.883 296.659V298.386C301.884 301.081 302.049 303.773 302.376 306.448L302.705 309.19L300.1 307.381L296.892 309.163L296.535 334.555C303.308 342.782 313.18 354.71 314.688 356.492C316.498 356.986 326.754 359.454 333.883 361.126L341.232 357.013Z" fill="black"/>
<path d="M320.391 309.986C320.391 308.669 320.391 307.435 320.556 306.311L305.529 303.377L295.246 310.836L294.89 334.939C294.89 334.939 296.151 336.529 301.526 343.001L307.476 346.045L328.399 333.541L327.878 333.102C322.677 326.551 320.018 318.342 320.391 309.986Z" fill="#020202"/>
<path d="M314.551 309.657C309.889 306.969 306.233 306.786 303.582 309.108C300.931 311.43 299.652 315.918 299.743 322.572C299.743 336.502 305.036 346.557 315.62 352.736C318.551 354.456 321.682 355.809 324.943 356.766C327.931 357.602 330.961 358.279 334.02 358.796V375.248C326.747 373.975 319.785 371.322 313.509 367.433C303.198 361.713 294.538 353.43 288.363 343.385C282.495 333.562 279.467 322.304 279.616 310.863C279.244 304.793 280.716 298.752 283.839 293.533C285.182 291.56 287.01 289.967 289.147 288.906C291.284 287.844 293.658 287.351 296.041 287.473C302.704 287.895 309.146 290.03 314.743 293.67C323.047 298.587 330.601 304.673 337.173 311.741L331.195 323.696C328.453 320.954 325.711 318.212 323.161 315.881C320.513 313.516 317.627 311.43 314.551 309.657Z" fill="url(#paint17_linear)"/>
<path d="M337.201 311.795L358.233 299.154L352.255 311.11L331.196 323.751L337.201 311.795Z" fill="#020202"/>
<path d="M334.02 358.768L355.08 346.127V362.689L334.02 375.303V358.768Z" fill="#020202"/>
<path d="M325.273 355.478C322.107 354.547 319.068 353.23 316.224 351.556C305.941 345.606 300.922 336.118 300.922 322.517C300.922 316.183 302.102 311.933 304.432 309.876C306.763 307.819 309.752 308.176 313.948 310.589C316.961 312.368 319.782 314.454 322.366 316.814C324.806 319.035 330.976 325.259 330.976 325.259L353.16 311.96L359.686 298.935L358.425 297.619L337.365 310.287C330.918 303.416 323.533 297.49 315.428 292.683C309.676 288.962 303.069 286.773 296.233 286.321C293.665 286.21 291.111 286.756 288.812 287.908C286.514 289.059 284.547 290.778 283.099 292.902C279.817 298.316 278.259 304.599 278.629 310.918C278.505 322.577 281.588 334.045 287.541 344.07C293.834 354.273 302.644 362.686 313.125 368.503C319.965 371.875 327.12 374.566 334.486 376.537L356.423 363.348V345.112L354.997 344.866L333.938 357.507C331.016 356.98 328.124 356.303 325.273 355.478ZM351.323 310.15L334.102 320.488L335.775 317.17L338.106 312.536L355.299 302.198L351.323 310.15ZM314.14 366.446C304.031 360.815 295.534 352.686 289.46 342.836C283.736 333.183 280.776 322.141 280.905 310.918C280.54 305.094 281.935 299.294 284.908 294.273C286.143 292.473 287.821 291.022 289.782 290.061C291.742 289.1 293.917 288.662 296.096 288.789C302.547 289.236 308.776 291.321 314.194 294.849C322.167 299.561 329.441 305.367 335.802 312.097L330.921 321.777C328.645 319.419 326.315 317.197 324.011 315.113C321.313 312.677 318.362 310.535 315.209 308.724C310.054 305.763 305.941 305.598 302.897 308.286C299.853 310.973 298.592 315.58 298.592 322.709C298.592 337.023 304.076 347.388 315.044 353.832C318.047 355.612 321.262 357.003 324.615 357.973C327.357 358.741 330.099 359.371 332.841 359.865V373.987C326.222 372.56 319.897 370.009 314.14 366.446ZM353.901 361.976L335.227 373.192V359.481L353.901 348.293V361.976Z" fill="black"/>
<path d="M378.115 114.28L354.752 100.788L311.728 125.605L335.09 139.096L378.115 114.28Z" fill="url(#paint18_linear)"/>
<path d="M377.703 120.916L354.34 107.424L311.344 132.241L334.707 145.732L377.703 120.916Z" fill="#FB7E47"/>
<path d="M311.728 198.052L335.09 211.543V139.096L311.728 125.605V198.052Z" fill="url(#paint19_linear)"/>
<path d="M376.359 142.386L366.707 136.546L354.669 143.511V154.918L376.359 142.386Z" fill="url(#paint20_linear)"/>
<path d="M378.114 170.768L366.104 163.994L354.669 170.603V184.286L378.114 170.768Z" fill="url(#paint21_linear)"/>
<path d="M375.756 147.871L366.104 142.057L354.066 149.022V160.402L375.756 147.871Z" fill="#FB7E47"/>
<path d="M377.484 176.252L365.501 169.506L354.066 176.115V189.798L377.484 176.252Z" fill="#FB7E47"/>
<path d="M379.294 170.055L368.517 163.994L377.566 158.757V141.591L369.065 136.463L379.294 130.54V113.567L354.614 99.3898L310.411 124.919V198.737L335.09 212.914L379.294 187.385V170.055ZM366.241 165.366L375.811 170.85L355.985 182.284V171.316L366.241 165.366ZM366.844 137.944L374.138 142.332L355.985 152.834V144.333L366.844 137.944ZM354.861 102.296L375.701 114.17L335.09 137.588L314.14 125.605L354.861 102.296ZM313.071 197.476V127.826L334.021 139.919V209.596L313.071 197.476ZM336.434 209.596V139.781L377.045 116.336V129.279L353.6 142.798V156.975L375.29 144.443V157.386L366.241 162.623L353.6 169.917V186.37L377.045 172.852V186.041L336.434 209.596Z" fill="black"/>
<path d="M378.087 186.699L335.09 211.379V139.096L378.087 114.417V130.102L354.669 143.648V155.028L376.359 142.496V158.044L354.669 170.576V184.286L378.087 170.74V186.699Z" fill="#020202"/>
<path d="M209.089 386.107C222.052 386.107 232.561 379.809 232.561 372.04C232.561 364.271 222.052 357.973 209.089 357.973C196.125 357.973 185.616 364.271 185.616 372.04C185.616 379.809 196.125 386.107 209.089 386.107Z" fill="url(#paint22_linear)"/>
<path d="M250.358 372.698C248.842 371.59 247.268 370.565 245.641 369.627L244.133 368.832C245.48 367.359 246.709 365.782 247.808 364.115C247.808 363.731 227.955 347.333 227.955 347.333L199.985 349.418L188.358 364.225L189.345 367.214C187.179 368.201 185.013 369.298 182.846 370.532C180.456 371.899 178.157 373.42 175.964 375.084L166.668 370.285V389.014C166.394 395.211 171.183 401.162 181.037 406.865C190.399 412.412 201.114 415.259 211.995 415.092C223.238 414.738 234.201 411.499 243.831 405.686C254.416 399.562 259.9 393.438 260.284 387.314V367.077L250.358 372.698ZM200.616 378.594C212.864 371.556 223.238 370.477 231.739 375.358C233.254 376.18 234.595 377.288 235.687 378.621L212.681 391.564L194.939 382.46C196.74 381.042 198.636 379.75 200.616 378.594Z" fill="url(#paint23_linear)"/>
<path d="M210.981 416.435C200.2 416.356 189.637 413.403 180.378 407.88C170.15 401.984 165.132 395.622 165.434 388.959V368.338L175.799 373.658C177.856 372.147 179.999 370.756 182.216 369.49C183.971 368.475 185.808 367.516 187.7 366.583L186.85 363.841L199.217 348.129L228.201 345.962L228.558 346.264C248.63 362.936 248.685 363.21 248.822 363.704C248.959 364.198 249.014 364.527 245.833 368.311L246.053 368.448C247.478 369.271 248.795 370.121 250.275 371.19L261.244 365.075V387.369C260.915 394.059 255.376 400.394 244.298 406.783C234.485 412.683 223.328 415.977 211.885 416.353L210.981 416.435ZM167.874 372.259V389.014C167.627 394.772 172.262 400.394 181.585 405.823C190.77 411.291 201.278 414.137 211.968 414.05C222.986 413.698 233.731 410.526 243.173 404.836C253.347 398.968 258.639 393.127 258.94 387.451V369.188L250.303 374.042L249.672 373.603C248.179 372.529 246.632 371.532 245.038 370.614L244.16 370.121L242.268 369.106L243.228 367.982C244.956 365.925 245.833 364.828 246.272 364.252C243.722 362.004 234.234 354.052 227.57 348.513L200.615 350.514L189.647 364.39L190.771 367.79L189.784 368.256C187.453 369.325 185.369 370.395 183.395 371.519C181.061 372.866 178.808 374.349 176.649 375.961L176.046 376.428L167.874 372.259ZM212.681 392.935L192.718 382.68L194.144 381.528C196.016 380.064 197.996 378.744 200.067 377.579C212.653 370.285 223.54 369.216 232.369 374.316C234.043 375.206 235.517 376.429 236.702 377.908L237.524 379.005L212.681 392.935ZM197.133 382.268L212.626 390.22L233.85 378.32C233.015 377.574 232.094 376.929 231.108 376.4C223.046 371.739 212.982 372.835 201.191 379.636C199.683 380.513 198.312 381.418 197.078 382.268H197.133Z" fill="black"/>
<path d="M243.832 384.818C234.202 390.632 223.238 393.871 211.995 394.224C201.106 394.388 190.383 391.541 181.009 385.998C171.193 380.312 166.412 374.362 166.668 368.146C166.924 361.931 172.335 355.77 182.901 349.664C192.513 343.896 203.45 340.703 214.655 340.396C225.525 340.246 236.227 343.092 245.587 348.622C255.604 354.381 260.44 360.322 260.092 366.446C259.745 372.57 254.325 378.694 243.832 384.818ZM200.67 359.892C188.55 366.876 186.722 372.817 195.186 377.716C199.412 380.171 204.313 381.208 209.171 380.678C215.159 379.813 220.902 377.712 226.035 374.508C232.315 370.888 235.879 367.625 236.757 364.664C237.634 361.702 236.016 359.18 231.848 356.657C223.311 351.739 212.919 352.818 200.67 359.892Z" fill="url(#paint24_linear)"/>
<path d="M258.996 367.982C257.049 363.814 252.634 359.755 245.696 355.697C236.33 350.087 225.6 347.165 214.683 347.251C203.473 347.556 192.533 350.759 182.929 356.547C174.922 361.154 169.904 365.815 167.82 370.505V380.404C169.712 384.681 174.099 388.849 181.037 392.853C190.395 398.447 201.12 401.342 212.023 401.216C223.268 400.875 234.234 397.635 243.859 391.811C251.775 387.241 256.82 382.67 258.996 378.1V367.982ZM236.729 371.766C235.852 374.691 232.278 377.963 226.008 381.583C220.873 384.803 215.118 386.906 209.116 387.753C204.267 388.279 199.376 387.241 195.159 384.791C186.713 379.91 188.541 373.969 200.643 366.967C212.873 359.92 223.266 358.741 231.739 363.731C235.989 366.145 237.634 368.832 236.729 371.766Z" fill="#FB7E47"/>
<path d="M211.035 395.431C200.259 395.349 189.698 392.406 180.433 386.902C170.205 381.007 165.187 374.618 165.461 367.954C165.735 361.291 171.274 354.874 182.298 348.513C192.079 342.621 203.214 339.353 214.628 339.025C225.76 338.9 236.71 341.851 246.272 347.553C256.637 353.531 261.71 359.92 261.381 366.501C261.052 373.082 255.485 379.444 244.435 385.833C234.626 391.742 223.467 395.037 212.023 395.403L211.035 395.431ZM215.423 341.438H214.573C203.569 341.757 192.832 344.901 183.395 350.569C173.276 356.437 168.011 362.306 167.764 368.064C167.518 373.822 172.152 379.416 181.475 384.818C190.647 390.295 201.149 393.141 211.831 393.045C222.87 392.695 233.635 389.512 243.091 383.804C253.264 377.936 258.557 372.095 258.858 366.419C259.16 360.743 254.471 355.176 244.956 349.692C236.018 344.368 225.825 341.519 215.423 341.438ZM206.511 381.994C202.261 382.001 198.087 380.875 194.418 378.731C190.579 376.537 188.632 373.987 188.632 371.163C188.632 367.296 192.334 363.265 199.957 358.85C212.543 351.584 223.402 350.624 232.26 355.615C236.976 358.357 238.813 361.483 237.744 365.02C236.674 368.558 233.082 371.738 226.474 375.55C221.19 378.839 215.278 380.987 209.116 381.857C208.348 381.939 207.471 381.994 206.621 381.994H206.511ZM220.222 354.847C213.401 355.162 206.782 357.261 201.027 360.934C192.8 365.761 190.908 369.161 190.908 371.163C190.908 373.164 192.444 374.919 195.487 376.647C199.499 378.944 204.138 379.904 208.732 379.389C214.575 378.557 220.179 376.511 225.185 373.384C232.616 369.106 234.837 366.062 235.385 364.252C235.632 363.375 236.427 360.743 230.998 357.616C227.774 355.782 224.123 354.827 220.413 354.847H220.222Z" fill="black"/>
<path d="M260.147 370.806C260.147 370.806 243.694 385.175 243.475 385.12L228.146 391.921L213.366 394.087V415.53C224.113 414.956 234.554 411.755 243.776 406.207C254.361 400.101 259.845 393.977 260.229 387.835L260.147 370.806Z" fill="#020202"/>
<path d="M190.58 411.033C193.537 412.598 196.678 413.786 199.93 414.571V392.935L190.58 390.412V411.033Z" fill="#020202"/>
<path d="M201.054 378.1C205.839 374.92 211.365 373.03 217.096 372.616V353.586C214.738 354.347 212.28 354.754 209.802 354.792L205.085 357.068L198.066 360.962C198.066 360.962 190.525 369.38 189.839 369.654L191.265 374.618L199.327 379.033C199.985 378.758 200.451 378.429 201.054 378.1Z" fill="#020202"/>
<path d="M477.41 511.302C485.966 516.238 485.966 524.245 477.41 529.209C472.608 531.642 467.3 532.91 461.917 532.91C456.534 532.91 451.226 531.642 446.424 529.209C437.841 524.245 437.841 516.238 446.424 511.302C451.226 508.869 456.534 507.601 461.917 507.601C467.3 507.601 472.608 508.869 477.41 511.302Z" fill="url(#paint25_linear)"/>
<path d="M461.889 533.925C456.311 534.032 450.799 532.71 445.875 530.086C441.406 527.509 438.938 524.026 438.938 520.242C438.938 516.458 441.406 513.003 445.875 510.425C450.839 507.91 456.325 506.599 461.889 506.599C467.454 506.599 472.94 507.91 477.903 510.425C482.373 513.003 484.841 516.485 484.841 520.242C484.841 523.999 482.373 527.509 477.903 530.086C472.977 532.702 467.467 534.023 461.889 533.925ZM461.889 508.615C456.665 508.517 451.503 509.754 446.89 512.207C445.182 512.751 443.691 513.824 442.633 515.27C441.575 516.717 441.005 518.463 441.005 520.256C441.005 522.048 441.575 523.794 442.633 525.241C443.691 526.687 445.182 527.76 446.89 528.304C451.535 530.655 456.669 531.881 461.876 531.881C467.082 531.881 472.216 530.655 476.861 528.304C478.584 527.775 480.091 526.708 481.162 525.26C482.233 523.811 482.811 522.057 482.811 520.256C482.811 518.454 482.233 516.7 481.162 515.251C480.091 513.803 478.584 512.736 476.861 512.207C472.259 509.751 467.105 508.515 461.889 508.615Z" fill="#020202"/>
<path d="M477.41 495.919C485.965 500.855 485.965 508.862 477.41 513.798C472.608 516.231 467.3 517.499 461.917 517.499C456.533 517.499 451.225 516.231 446.423 513.798C437.868 508.862 437.868 500.855 446.423 495.919C451.222 493.473 456.531 492.198 461.917 492.198C467.302 492.198 472.611 493.473 477.41 495.919Z" fill="url(#paint26_linear)"/>
<path d="M477.41 504.283C485.965 509.218 485.965 517.226 477.41 522.161C472.611 524.607 467.302 525.883 461.917 525.883C456.531 525.883 451.222 524.607 446.423 522.161C437.868 517.226 437.868 509.218 446.423 504.283C451.222 501.837 456.531 500.561 461.917 500.561C467.302 500.561 472.611 501.837 477.41 504.283Z" fill="#FB7E47"/>
<path d="M461.889 518.514C456.313 518.631 450.8 517.319 445.875 514.703C443.842 513.98 442.083 512.646 440.838 510.883C439.594 509.121 438.926 507.016 438.926 504.858C438.926 502.701 439.594 500.596 440.838 498.834C442.083 497.071 443.842 495.737 445.875 495.014C450.838 492.499 456.325 491.188 461.889 491.188C467.453 491.188 472.94 492.499 477.903 495.014C479.936 495.737 481.695 497.071 482.94 498.834C484.184 500.596 484.852 502.701 484.852 504.858C484.852 507.016 484.184 509.121 482.94 510.883C481.695 512.646 479.936 513.98 477.903 514.703C472.974 517.31 467.464 518.621 461.889 518.514ZM461.889 493.232C456.667 493.125 451.505 494.352 446.89 496.797C445.185 497.348 443.7 498.425 442.646 499.874C441.592 501.322 441.024 503.067 441.024 504.858C441.024 506.65 441.592 508.395 442.646 509.843C443.7 511.292 445.185 512.369 446.89 512.92C451.535 515.272 456.669 516.497 461.875 516.497C467.082 516.497 472.216 515.272 476.861 512.92C478.579 512.384 480.081 511.312 481.148 509.862C482.214 508.412 482.789 506.659 482.789 504.858C482.789 503.058 482.214 501.305 481.148 499.855C480.081 498.405 478.579 497.333 476.861 496.797C472.257 494.349 467.102 493.122 461.889 493.232Z" fill="#020202"/>
<path d="M493.671 445.656C492.643 445.659 491.622 445.483 490.654 445.135L475.381 439.651C474.272 439.266 473.25 438.666 472.373 437.885C471.497 437.104 470.784 436.158 470.274 435.1C469.765 434.043 469.469 432.895 469.404 431.723C469.339 430.551 469.507 429.378 469.897 428.271L475.381 412.997C475.76 411.887 476.355 410.863 477.133 409.985C477.91 409.107 478.854 408.392 479.911 407.882C480.967 407.372 482.114 407.076 483.285 407.013C484.456 406.95 485.628 407.119 486.733 407.513L502.007 412.997C503.113 413.382 504.132 413.981 505.006 414.76C505.88 415.539 506.592 416.483 507.101 417.537C507.611 418.591 507.907 419.735 507.974 420.904C508.041 422.073 507.877 423.244 507.491 424.349L502.007 439.623C501.382 441.344 500.246 442.834 498.751 443.892C497.257 444.951 495.475 445.528 493.643 445.546L493.671 445.656ZM483.827 409.871C482.881 409.856 481.944 410.053 481.084 410.447C480.352 410.794 479.697 411.283 479.155 411.885C478.614 412.488 478.198 413.192 477.931 413.957L472.447 429.23C471.901 430.769 471.987 432.461 472.686 433.936C473.385 435.411 474.64 436.549 476.176 437.1L491.45 442.585C492.988 443.123 494.677 443.033 496.15 442.335C497.623 441.637 498.762 440.387 499.32 438.855L504.804 423.554C505.077 422.796 505.195 421.99 505.153 421.185C505.111 420.38 504.908 419.591 504.557 418.865C503.86 417.394 502.607 416.26 501.075 415.712L485.801 410.227C485.167 410.002 484.5 409.881 483.827 409.871Z" fill="#FB7E47"/>
<path d="M470.747 475.435C468.997 475.473 467.27 475.04 465.746 474.181C464.221 473.322 462.956 472.07 462.081 470.554C461.295 468.901 460.967 467.068 461.131 465.244C461.295 463.421 461.945 461.675 463.014 460.189C463.543 459.511 463.888 458.709 464.018 457.859C464.148 457.009 464.057 456.14 463.754 455.336C463.334 454.689 462.749 454.166 462.06 453.819C461.371 453.472 460.603 453.314 459.833 453.361L456.679 453.197C454.99 453.197 453.33 452.76 451.86 451.929C450.389 451.098 449.159 449.9 448.288 448.453C447.51 446.911 447.144 445.194 447.226 443.469C447.308 441.744 447.834 440.07 448.755 438.609L449.989 436.415C450.435 435.753 450.708 434.989 450.785 434.194C450.862 433.4 450.739 432.598 450.427 431.863C449.96 431.23 449.34 430.725 448.626 430.394C447.912 430.064 447.127 429.918 446.342 429.971H445.437C443.666 430.038 441.911 429.625 440.356 428.775C438.802 427.925 437.506 426.671 436.607 425.145C435.81 423.492 435.472 421.656 435.626 419.828C435.78 418.001 436.422 416.248 437.484 414.752L442.146 417.659C441.61 418.338 441.261 419.147 441.136 420.004C441.011 420.86 441.113 421.735 441.433 422.54C441.884 423.201 442.502 423.73 443.225 424.072C443.948 424.414 444.75 424.557 445.546 424.487H446.533C448.28 424.381 450.021 424.769 451.557 425.606C453.093 426.443 454.363 427.695 455.221 429.22C456.079 430.744 456.491 432.48 456.409 434.227C456.328 435.975 455.756 437.664 454.76 439.102L453.553 441.268C453.096 441.92 452.813 442.678 452.731 443.47C452.649 444.262 452.772 445.062 453.087 445.793C453.51 446.421 454.088 446.928 454.766 447.265C455.444 447.601 456.198 447.756 456.954 447.712L460.107 447.877C461.836 447.866 463.536 448.318 465.031 449.186C466.525 450.054 467.761 451.306 468.608 452.813C469.377 454.462 469.693 456.286 469.525 458.098C469.356 459.91 468.708 461.644 467.648 463.123C467.116 463.8 466.771 464.604 466.646 465.455C466.521 466.307 466.62 467.176 466.935 467.977C467.365 468.635 467.963 469.167 468.666 469.519C469.37 469.87 470.154 470.029 470.938 469.979L470.747 475.435Z" fill="#FB7E47"/>
<path d="M441.104 482.62C439.303 482.62 437.543 482.086 436.046 481.085C434.549 480.085 433.382 478.663 432.693 477C432.004 475.336 431.824 473.506 432.175 471.74C432.526 469.974 433.393 468.352 434.667 467.078C435.94 465.805 437.562 464.938 439.328 464.587C441.094 464.236 442.924 464.416 444.588 465.105C446.251 465.794 447.673 466.961 448.674 468.458C449.674 469.955 450.208 471.715 450.208 473.516C450.208 475.93 449.249 478.246 447.541 479.953C445.834 481.661 443.518 482.62 441.104 482.62ZM441.104 467.154C439.846 467.154 438.616 467.527 437.569 468.226C436.523 468.925 435.708 469.919 435.226 471.081C434.745 472.244 434.619 473.523 434.864 474.757C435.11 475.991 435.716 477.125 436.605 478.014C437.495 478.904 438.629 479.51 439.863 479.755C441.097 480.001 442.376 479.875 443.538 479.393C444.701 478.912 445.694 478.096 446.393 477.05C447.093 476.004 447.466 474.774 447.466 473.516C447.466 471.829 446.795 470.211 445.602 469.017C444.409 467.824 442.791 467.154 441.104 467.154Z" fill="#FB7E47"/>
<path d="M54.0717 159.043L33.5605 147.197C31.0652 145.743 31.3668 143.248 34.2461 141.712L53.441 130.744C54.9089 129.92 56.5501 129.454 58.2318 129.383C59.9134 129.311 61.5882 129.637 63.1207 130.333L83.6594 142.179C86.1273 143.632 85.8256 146.127 82.9464 147.663L63.7514 158.631C62.2835 159.455 60.6423 159.921 58.9607 159.993C57.279 160.064 55.6042 159.739 54.0717 159.043Z" fill="url(#paint27_linear)"/>
<path d="M58.2945 161.099C56.6372 161.14 54.9962 160.763 53.5231 160.002L32.9845 148.129C32.345 147.819 31.8011 147.342 31.4101 146.748C31.0192 146.154 30.7958 145.466 30.7634 144.756C30.8478 143.873 31.1634 143.028 31.6785 142.306C32.1936 141.584 32.8901 141.01 33.6975 140.643L52.8925 129.674C54.5273 128.754 56.359 128.238 58.2341 128.172C60.1091 128.105 61.9729 128.488 63.669 129.291L84.2076 141.137C84.8471 141.447 85.3911 141.924 85.782 142.518C86.1729 143.111 86.3963 143.799 86.4287 144.509C86.3444 145.392 86.0287 146.238 85.5136 146.96C84.9985 147.682 84.3021 148.255 83.4946 148.623L64.2997 159.591C62.4622 160.605 60.393 161.125 58.2945 161.099ZM58.8703 130.278C57.15 130.261 55.4529 130.675 53.9344 131.484L34.7395 142.453C33.5878 143.111 32.9023 143.961 32.9023 144.674C32.9023 145.387 33.5329 145.853 34.0539 146.155L54.5651 158.001C55.9293 158.6 57.413 158.877 58.9013 158.81C60.3897 158.743 61.8428 158.335 63.148 157.617L82.3429 146.648C83.4946 145.99 84.1801 145.14 84.1801 144.427C84.136 144.104 84.0094 143.799 83.8124 143.539C83.6155 143.28 83.3549 143.076 83.0559 142.946L62.5173 131.1C61.3912 130.521 60.1361 130.238 58.8703 130.278Z" fill="#020202"/>
<path d="M54.0717 145.826L33.5605 133.952C31.0652 132.526 31.3668 130.031 34.2461 128.468L53.441 117.499C54.9089 116.676 56.5501 116.209 58.2318 116.138C59.9134 116.067 61.5882 116.392 63.1207 117.088L83.6594 128.934C86.1273 130.36 85.8256 132.883 82.9464 134.418L63.7514 145.387C62.2835 146.209 60.644 146.676 58.9635 146.752C57.283 146.828 55.6079 146.511 54.0717 145.826Z" fill="url(#paint28_linear)"/>
<path d="M54.0717 152.05L33.5605 140.341C31.0652 138.888 31.3668 136.393 34.2461 134.857L53.441 123.889C54.9111 123.071 56.5517 122.608 58.2322 122.537C59.9127 122.466 61.5866 122.788 63.1207 123.477L83.6594 135.323C86.1273 136.777 85.8256 139.272 82.9464 140.807L63.7514 151.776C62.2726 152.578 60.6258 153.021 58.9443 153.068C57.2627 153.116 55.5936 152.767 54.0717 152.05Z" fill="#FB7E47"/>
<path d="M58.2945 147.745C56.6335 147.79 54.9894 147.402 53.5231 146.621L32.9845 134.857C32.345 134.547 31.8011 134.07 31.4101 133.476C31.0192 132.882 30.7958 132.194 30.7634 131.484C30.8478 130.601 31.1634 129.756 31.6785 129.034C32.1936 128.312 32.8901 127.738 33.6975 127.371L52.8925 116.403C54.5273 115.484 56.3572 114.968 58.231 114.896C60.1049 114.824 61.9689 115.2 63.669 115.991L84.2076 127.865C84.8489 128.172 85.3945 128.649 85.7858 129.243C86.177 129.837 86.3993 130.527 86.4287 131.237C86.3444 132.12 86.0287 132.966 85.5136 133.688C84.9985 134.41 84.3021 134.983 83.4946 135.351L64.2997 146.319C62.4498 147.292 60.3843 147.783 58.2945 147.745ZM58.8703 116.924C57.15 116.906 55.4529 117.321 53.9344 118.13L34.7395 129.099C33.5878 129.757 32.9023 130.579 32.9023 131.32C32.9023 132.06 33.5329 132.499 34.0539 132.8L54.5651 144.646C55.9298 145.247 57.4155 145.523 58.905 145.452C60.3945 145.38 61.847 144.964 63.148 144.235L82.3429 133.267C83.4946 132.609 84.1801 131.786 84.1801 131.073C84.136 130.75 84.0094 130.444 83.8124 130.185C83.6155 129.926 83.3549 129.721 83.0559 129.592L62.5173 117.746C61.3912 117.167 60.1361 116.884 58.8703 116.924Z" fill="#020202"/>
<path d="M37.3994 84.2647C36.4118 84.268 35.4333 84.0759 34.5203 83.6994C33.6073 83.3229 32.7778 82.7695 32.0796 82.071L27.1986 77.2723C25.7903 75.8544 25 73.9372 25 71.9388C25 69.9405 25.7903 68.0232 27.1986 66.6054L32.0796 61.7518C33.4928 60.3452 35.4055 59.5556 37.3994 59.5556C39.3932 59.5556 41.3059 60.3452 42.7191 61.7518L47.5727 66.6054C48.981 68.0232 49.7713 69.9405 49.7713 71.9388C49.7713 73.9372 48.981 75.8544 47.5727 77.2723L42.7191 82.1258C41.2966 83.5114 39.385 84.28 37.3994 84.2647ZM37.3994 62.3277C36.7685 62.3258 36.1434 62.4484 35.56 62.6883C34.9765 62.9283 34.4461 63.281 33.9991 63.7261L29.1456 68.5797C28.2497 69.4791 27.7467 70.6968 27.7467 71.9663C27.7467 73.2357 28.2497 74.4534 29.1456 75.3528L33.9991 80.0144C34.8985 80.9103 36.1163 81.4133 37.3857 81.4133C38.6551 81.4133 39.8728 80.9103 40.7722 80.0144L45.6257 75.1608C46.076 74.7192 46.4336 74.1922 46.6777 73.6108C46.9219 73.0293 47.0476 72.405 47.0476 71.7743C47.0476 71.1437 46.9219 70.5193 46.6777 69.9378C46.4336 69.3564 46.076 68.8294 45.6257 68.3878L40.7722 63.5616C39.8661 62.6942 38.6534 62.221 37.3994 62.2454V62.3277Z" fill="#FB7E47"/>
<path d="M81.1092 72.0074C79.913 72.012 78.7252 71.8078 77.5993 71.4041L60.5706 65.3166C57.9642 64.381 55.8358 62.4489 54.6531 59.9449C53.4705 57.4408 53.3305 54.5697 54.2638 51.9624L60.3513 34.9337C61.2816 32.3288 63.2069 30.1991 65.7052 29.0116C68.2034 27.8242 71.0706 27.676 73.678 28.5994L90.7341 34.6869C93.336 35.6285 95.4597 37.5614 96.6414 40.0635C97.8231 42.5655 97.9667 45.4335 97.041 48.0411L90.9534 65.0698C90.2306 67.0963 88.8998 68.8502 87.1428 70.0919C85.3857 71.3336 83.2882 72.0025 81.1366 72.0074H81.1092ZM70.1407 32.1093C68.8359 32.1038 67.5617 32.5048 66.4953 33.2566C65.4289 34.0085 64.6233 35.0739 64.1903 36.3048L58.1027 53.3334C57.8163 54.1177 57.6905 54.9515 57.7329 55.7853C57.7753 56.6191 57.985 57.4359 58.3495 58.187C58.6983 58.9413 59.1964 59.617 59.8139 60.1732C60.4313 60.7293 61.1552 61.1544 61.9417 61.4227L78.9703 67.5103C79.7494 67.7942 80.577 67.9209 81.4053 67.8833C82.2337 67.8456 83.0464 67.6443 83.7965 67.2909C85.3162 66.5717 86.4893 65.2803 87.0597 63.6987L93.1472 46.6426C93.4471 45.8514 93.5854 45.008 93.5539 44.1624C93.5224 43.3167 93.3219 42.486 92.964 41.7192C92.6062 40.9523 92.0983 40.265 91.4704 39.6977C90.8425 39.1304 90.1073 38.6947 89.3082 38.4162L72.2795 32.3287C71.5838 32.1368 70.8609 32.0627 70.1407 32.1093Z" fill="#FB7E47"/>
<path d="M58.6783 98.1399C57.3508 98.1345 56.0546 97.7359 54.9534 96.9944C53.8522 96.2529 52.9954 95.2018 52.4911 93.9737C51.9868 92.7456 51.8577 91.3957 52.12 90.0943C52.3823 88.7929 53.0243 87.5984 53.965 86.6616C54.9056 85.7248 56.1027 85.0876 57.4052 84.8306C58.7076 84.5736 60.057 84.7082 61.283 85.2175C62.509 85.7268 63.5566 86.5879 64.2937 87.6921C65.0307 88.7963 65.424 90.0941 65.424 91.4217C65.424 92.3063 65.2493 93.1821 64.91 93.999C64.5706 94.8159 64.0734 95.5577 63.4466 96.1819C62.8199 96.8061 62.076 97.3004 61.2577 97.6364C60.4394 97.9724 59.5629 98.1435 58.6783 98.1399ZM58.6783 87.4456C57.8931 87.451 57.1271 87.6888 56.4769 88.129C55.8266 88.5691 55.3213 89.192 55.0246 89.919C54.7278 90.646 54.6529 91.4446 54.8094 92.2141C54.9659 92.9835 55.3468 93.6894 55.9039 94.2428C56.461 94.7961 57.1696 95.1721 57.9401 95.3233C58.7106 95.4745 59.5086 95.3942 60.2336 95.0924C60.9585 94.7907 61.5779 94.2811 62.0136 93.6278C62.4493 92.9746 62.6818 92.2069 62.6818 91.4217C62.6818 90.8972 62.5782 90.3779 62.3766 89.8937C62.1751 89.4095 61.8797 88.97 61.5076 88.6004C61.1355 88.2308 60.6939 87.9385 60.2083 87.7403C59.7227 87.5421 59.2028 87.442 58.6783 87.4456Z" fill="#FB7E47"/>
<path d="M68.087 491.217V433.057H46.3967V492.369C46.6024 493.207 46.9921 493.989 47.5376 494.658C48.083 495.327 48.7706 495.866 49.5502 496.236C51.9358 497.438 54.5702 498.065 57.2419 498.065C59.9136 498.065 62.548 497.438 64.9336 496.236C65.9189 495.835 66.7534 495.135 67.3193 494.235C67.8852 493.334 68.1537 492.279 68.087 491.217Z" fill="url(#paint29_linear)"/>
<path d="M49.989 446.713V496.071L59.2301 498.182V448.276C56.0637 448.646 52.8575 448.104 49.989 446.713Z" fill="#FB7E47"/>
<path d="M57.2558 499.115C54.386 499.177 51.55 498.487 49.0294 497.113C47.4858 496.322 46.2717 495.011 45.6017 493.411H45.3823V492.369V432.042H69.1567V491.163C69.238 492.413 68.9314 493.659 68.2787 494.728C67.6259 495.798 66.6589 496.641 65.5096 497.141C62.9756 498.502 60.1316 499.182 57.2558 499.115ZM47.4116 492.04V492.205C47.6031 492.899 47.9492 493.541 48.4241 494.082C48.899 494.623 49.4903 495.05 50.1537 495.331C52.3733 496.467 54.831 497.059 57.3243 497.059C59.8177 497.059 62.2754 496.467 64.495 495.331C66.4145 494.234 67.3742 492.808 67.2371 491.382V434.071H47.5761L47.4116 492.04Z" fill="#020202"/>
<path d="M64.961 428.615C69.2113 431.055 69.2113 435.031 64.961 437.499C62.5755 438.702 59.9411 439.329 57.2694 439.329C54.5977 439.329 51.9632 438.702 49.5776 437.499C45.3273 435.031 45.3273 431.055 49.5776 428.615C51.9632 427.412 54.5977 426.785 57.2694 426.785C59.9411 426.785 62.5755 427.412 64.961 428.615Z" fill="url(#paint30_linear)"/>
<path d="M67.0727 435.58C66.4893 434.856 65.7726 434.251 64.9613 433.797C62.5757 432.594 59.9413 431.968 57.2696 431.968C54.5979 431.968 51.9634 432.594 49.5778 433.797C48.7485 434.271 48.0141 434.894 47.4116 435.634V441.064C48.0141 441.805 48.7485 442.428 49.5778 442.901C51.9634 444.104 54.5979 444.731 57.2696 444.731C59.9413 444.731 62.5757 444.104 64.9613 442.901C65.7726 442.447 66.4893 441.842 67.0727 441.119V435.58Z" fill="#FB7E47"/>
<path d="M57.2558 440.378C54.386 440.44 51.5499 439.75 49.0294 438.377C47.9442 437.973 47.0085 437.247 46.3478 436.296C45.6871 435.345 45.333 434.215 45.333 433.057C45.333 431.899 45.6871 430.769 46.3478 429.818C47.0085 428.867 47.9442 428.141 49.0294 427.737C51.5721 426.422 54.3931 425.736 57.2558 425.736C60.1185 425.736 62.9395 426.422 65.4822 427.737C66.5673 428.141 67.503 428.867 68.1637 429.818C68.8244 430.769 69.1786 431.899 69.1786 433.057C69.1786 434.215 68.8244 435.345 68.1637 436.296C67.503 437.247 66.5673 437.973 65.4822 438.377C62.9589 439.743 60.1248 440.433 57.2558 440.378ZM57.2558 427.792C54.7652 427.749 52.3039 428.334 50.0988 429.492C49.3706 429.796 48.7344 430.284 48.2534 430.91C47.7724 431.535 47.4632 432.275 47.3566 433.057C47.4597 433.836 47.7679 434.575 48.2497 435.196C48.7315 435.818 49.3695 436.3 50.0988 436.594C52.3184 437.73 54.7761 438.322 57.2695 438.322C59.7629 438.322 62.2206 437.73 64.4402 436.594C65.1694 436.3 65.8075 435.818 66.2892 435.196C66.771 434.575 67.0792 433.836 67.1823 433.057C67.0757 432.275 66.7666 431.535 66.2855 430.91C65.8045 430.284 65.1683 429.796 64.4402 429.492C62.2265 428.33 59.7555 427.745 57.2558 427.792Z" fill="#020202"/>
<path d="M37.9784 512.359V483.21H16.2881V513.511C16.4908 514.347 16.8763 515.127 17.4169 515.795C17.9574 516.464 18.6395 517.004 19.4141 517.377C21.7996 518.58 24.4341 519.207 27.1058 519.207C29.7775 519.207 32.4119 518.58 34.7975 517.377C35.7806 516.971 36.614 516.271 37.1835 515.373C37.7529 514.474 38.0306 513.422 37.9784 512.359Z" fill="url(#paint31_linear)"/>
<path d="M19.8804 496.894V517.103L29.1213 519.215V498.429C25.9576 498.81 22.7511 498.277 19.8804 496.894Z" fill="#FB7E47"/>
<path d="M27.1467 520.257C24.2778 520.311 21.4436 519.621 18.9203 518.255C17.3748 517.462 16.1674 516.138 15.5201 514.526H15.4104V513.511V482.196H39.1847V512.359C39.2702 513.611 38.9652 514.858 38.312 515.928C37.6588 516.999 36.6894 517.841 35.5376 518.337C32.9606 519.71 30.0645 520.373 27.1467 520.257ZM17.275 513.182V513.346C17.4628 514.042 17.8076 514.686 18.283 515.228C18.7584 515.77 19.3516 516.196 20.0172 516.473C22.2368 517.608 24.6945 518.201 27.1879 518.201C29.6813 518.201 32.139 517.608 34.3586 516.473C36.278 515.376 37.2378 513.922 37.1007 512.496V484.252H17.4396L17.275 513.182Z" fill="#020202"/>
<path d="M34.8526 478.768C39.1029 481.236 39.1029 485.212 34.8526 487.653C32.4708 488.868 29.8349 489.502 27.1609 489.502C24.4869 489.502 21.8509 488.868 19.4692 487.653C15.2189 485.212 15.2189 481.236 19.4692 478.768C21.8548 477.565 24.4892 476.939 27.1609 476.939C29.8326 476.939 32.467 477.565 34.8526 478.768Z" fill="url(#paint32_linear)"/>
<path d="M36.964 485.816C36.3657 485.107 35.6519 484.504 34.8526 484.033C32.4671 482.83 29.8326 482.204 27.161 482.204C24.4893 482.204 21.8549 482.83 19.4693 484.033C18.6399 484.507 17.9054 485.129 17.303 485.87V491.108C17.8993 491.847 18.6354 492.462 19.4693 492.918C21.851 494.133 24.4869 494.767 27.161 494.767C29.835 494.767 32.4709 494.133 34.8526 492.918C35.6565 492.465 36.3718 491.87 36.964 491.163V485.816Z" fill="#FB7E47"/>
<path d="M27.147 490.559C24.2794 490.601 21.4483 489.912 18.9206 488.558C17.8381 488.147 16.9061 487.417 16.2483 486.465C15.5906 485.512 15.2383 484.382 15.2383 483.224C15.2383 482.067 15.5906 480.936 16.2483 479.984C16.9061 479.031 17.8381 478.301 18.9206 477.891C21.4633 476.576 24.2843 475.889 27.147 475.889C30.0097 475.889 32.8307 476.576 35.3734 477.891C36.4559 478.301 37.388 479.031 38.0457 479.984C38.7035 480.936 39.0557 482.067 39.0557 483.224C39.0557 484.382 38.7035 485.512 38.0457 486.465C37.388 487.417 36.4559 488.147 35.3734 488.558C32.8452 489.911 30.0145 490.6 27.147 490.559ZM27.147 477.946C24.6527 477.899 22.1883 478.494 19.9901 479.673C19.2233 479.899 18.5502 480.367 18.0715 481.007C17.5927 481.647 17.334 482.425 17.334 483.224C17.334 484.024 17.5927 484.801 18.0715 485.441C18.5502 486.082 19.2233 486.549 19.9901 486.775C22.2135 487.898 24.6697 488.483 27.1607 488.483C29.6517 488.483 32.1079 487.898 34.3314 486.775C35.0981 486.549 35.7712 486.082 36.2499 485.441C36.7286 484.801 36.9874 484.024 36.9874 483.224C36.9874 482.425 36.7286 481.647 36.2499 481.007C35.7712 480.367 35.0981 479.899 34.3314 479.673C32.1245 478.49 29.6504 477.895 27.147 477.946Z" fill="#020202"/>
<path d="M73.8184 419.127C73.34 418.423 73.0596 417.604 73.0066 416.755C72.9535 415.906 73.1298 415.058 73.5169 414.301C73.9835 413.553 74.6411 412.942 75.4218 412.533C76.2026 412.123 77.0784 411.929 77.9591 411.97C78.3567 412.001 78.7558 411.932 79.1199 411.769C79.4839 411.606 79.8014 411.355 80.0431 411.038C80.1863 410.709 80.2414 410.35 80.2029 409.994C80.1644 409.638 80.0337 409.298 79.8237 409.008L79.0559 407.72C78.6121 407.032 78.3536 406.242 78.3055 405.425C78.2575 404.608 78.4215 403.793 78.7817 403.058C79.2037 402.337 79.8034 401.737 80.5236 401.315C81.2437 400.892 82.0602 400.662 82.8949 400.645H84.1014C84.4685 400.658 84.8329 400.577 85.1595 400.409C85.4861 400.241 85.7639 399.992 85.9662 399.685C86.106 399.347 86.1517 398.977 86.0986 398.615C86.0455 398.253 85.8955 397.912 85.6645 397.629L85.4177 397.217C84.9309 396.513 84.6412 395.692 84.5785 394.839C84.5158 393.986 84.6825 393.131 85.0612 392.364C85.5223 391.608 86.178 390.991 86.9595 390.576C87.741 390.161 88.6196 389.964 89.5035 390.005V392.748C89.1047 392.706 88.7021 392.77 88.3362 392.933C87.9702 393.097 87.654 393.355 87.4195 393.68C87.2819 394.021 87.2349 394.393 87.2829 394.758C87.331 395.123 87.4724 395.469 87.6936 395.764L87.9679 396.175C88.4715 396.857 88.7737 397.666 88.8398 398.511C88.9059 399.356 88.7333 400.203 88.3418 400.954C87.9502 401.706 87.3554 402.332 86.6251 402.763C85.8948 403.193 85.0584 403.409 84.2112 403.387H83.0321C82.6617 403.376 82.2945 403.459 81.964 403.626C81.6335 403.794 81.3503 404.042 81.14 404.347C81.0107 404.67 80.9655 405.02 81.0087 405.366C81.0518 405.711 81.182 406.04 81.3868 406.321L82.1271 407.637C82.5925 408.332 82.8612 409.14 82.9046 409.975C82.9481 410.81 82.7647 411.642 82.374 412.381C81.9073 413.129 81.2497 413.739 80.4689 414.149C79.6882 414.559 78.8124 414.753 77.9316 414.712C77.5332 414.673 77.1315 414.738 76.766 414.902C76.4006 415.065 76.0841 415.321 75.8477 415.644C75.7098 415.981 75.6625 416.348 75.7106 416.709C75.7587 417.07 75.9006 417.412 76.1219 417.701L73.8184 419.127Z" fill="#FB7E47"/>
<path d="M89.4486 443.175C87.6468 443.175 85.8856 442.641 84.3879 441.639C82.8902 440.638 81.7233 439.214 81.0351 437.549C80.3468 435.884 80.1682 434.052 80.5217 432.285C80.8752 430.519 81.745 428.896 83.021 427.624C84.2969 426.352 85.9216 425.487 87.6894 425.139C89.4572 424.791 91.2885 424.975 92.9516 425.668C94.6146 426.362 96.0345 427.533 97.0316 429.034C98.0286 430.534 98.5579 432.297 98.5525 434.099C98.5452 436.509 97.5828 438.817 95.8763 440.519C94.1698 442.22 91.8583 443.175 89.4486 443.175ZM89.4486 427.737C88.1904 427.737 86.9604 428.11 85.9142 428.809C84.868 429.508 84.0526 430.502 83.5711 431.664C83.0896 432.827 82.9636 434.106 83.2091 435.34C83.4546 436.574 84.0604 437.708 84.9501 438.597C85.8398 439.487 86.9734 440.093 88.2075 440.338C89.4415 440.584 90.7206 440.458 91.8831 439.976C93.0456 439.495 94.0392 438.679 94.7382 437.633C95.4373 436.587 95.8104 435.357 95.8104 434.099C95.8104 432.412 95.1401 430.794 93.9471 429.6C92.754 428.407 91.1358 427.737 89.4486 427.737Z" fill="#FB7E47"/>
<path d="M108.287 451.347C106.992 451.341 105.727 450.952 104.653 450.229C103.579 449.506 102.743 448.48 102.251 447.282C101.759 446.084 101.634 444.767 101.89 443.498C102.146 442.228 102.772 441.063 103.689 440.149C104.607 439.236 105.775 438.614 107.045 438.363C108.316 438.113 109.632 438.244 110.828 438.741C112.024 439.238 113.046 440.078 113.765 441.155C114.484 442.232 114.868 443.498 114.868 444.793C114.86 446.534 114.164 448.201 112.93 449.429C111.697 450.657 110.027 451.347 108.287 451.347ZM108.287 440.982C107.534 440.987 106.8 441.215 106.176 441.637C105.553 442.059 105.069 442.657 104.785 443.353C104.5 444.05 104.429 444.816 104.579 445.553C104.729 446.291 105.094 446.968 105.629 447.498C106.163 448.028 106.842 448.389 107.58 448.533C108.319 448.678 109.084 448.601 109.779 448.312C110.474 448.023 111.067 447.534 111.485 446.908C111.903 446.282 112.125 445.546 112.126 444.793C112.104 443.792 111.689 442.839 110.971 442.141C110.252 441.444 109.288 441.056 108.287 441.064V440.982Z" fill="#FB7E47"/>
<path d="M6.60848 532.925C5.30454 532.931 4.02835 532.549 2.9419 531.828C1.85545 531.107 1.00772 530.079 0.506217 528.875C0.00471258 527.672 -0.127935 526.346 0.125124 525.067C0.378183 523.788 1.00554 522.613 1.92758 521.691C2.84961 520.769 4.0247 520.141 5.30386 519.888C6.58302 519.635 7.90855 519.768 9.1122 520.269C10.3159 520.771 11.3434 521.619 12.0645 522.705C12.7855 523.792 13.1676 525.068 13.1621 526.372C13.1621 528.11 12.4717 529.777 11.2426 531.006C10.0136 532.235 8.34663 532.925 6.60848 532.925ZM6.60848 522.533C5.84806 522.527 5.10312 522.748 4.4682 523.166C3.83329 523.585 3.33701 524.183 3.04224 524.883C2.74747 525.584 2.66751 526.357 2.81253 527.104C2.95755 527.85 3.32094 528.537 3.85673 529.076C4.39251 529.616 5.07652 529.984 5.82195 530.135C6.56738 530.285 7.34065 530.211 8.04374 529.921C8.74682 529.631 9.34807 529.139 9.77113 528.507C10.1942 527.875 10.42 527.132 10.42 526.372C10.42 525.358 10.0194 524.386 9.30535 523.667C8.59132 522.948 7.62189 522.54 6.60848 522.533Z" fill="#FB7E47"/>
<path d="M442.283 98.8792V65.2057H417.165V100.223C417.414 101.195 417.875 102.1 418.515 102.872C419.155 103.645 419.958 104.267 420.867 104.692C423.626 106.086 426.674 106.811 429.765 106.811C432.856 106.811 435.904 106.086 438.663 104.692C439.794 104.218 440.75 103.403 441.398 102.362C442.047 101.321 442.356 100.104 442.283 98.8792Z" fill="url(#paint33_linear)"/>
<path d="M421.36 81.0004V104.363L432.055 106.804V82.7828C428.393 83.2087 424.686 82.5908 421.36 81.0004Z" fill="#FB7E47"/>
<path d="M429.751 108.038C426.444 108.093 423.178 107.3 420.264 105.734C418.483 104.807 417.085 103.283 416.315 101.429H416.041V100.25V63.9992H443.462V98.7969C443.558 100.244 443.204 101.685 442.448 102.922C441.691 104.16 440.571 105.132 439.239 105.707C436.331 107.289 433.062 108.092 429.751 108.038ZM418.372 99.8115V100.003C418.592 100.793 418.981 101.525 419.511 102.15C420.041 102.775 420.7 103.277 421.443 103.623C423.993 104.912 426.811 105.584 429.669 105.584C432.527 105.584 435.345 104.912 437.896 103.623C440.089 102.362 441.214 100.689 440.939 99.0437V66.3849H418.399L418.372 99.8115Z" fill="#020202"/>
<path d="M429.806 72.4724C436.757 72.4724 442.392 69.219 442.392 65.2058C442.392 61.1925 436.757 57.9391 429.806 57.9391C422.855 57.9391 417.22 61.1925 417.22 65.2058C417.22 69.219 422.855 72.4724 429.806 72.4724Z" fill="url(#paint34_linear)"/>
<path d="M441.131 68.1947C440.442 67.3736 439.616 66.6778 438.69 66.1381C435.931 64.745 432.883 64.0192 429.792 64.0192C426.701 64.0192 423.653 64.745 420.894 66.1381C419.939 66.6815 419.093 67.3974 418.399 68.2495V74.3096C419.085 75.1692 419.933 75.8865 420.894 76.4211C423.649 77.827 426.699 78.5599 429.792 78.5599C432.886 78.5599 435.935 77.827 438.69 76.4211C439.622 75.89 440.45 75.193 441.131 74.3645V68.1947Z" fill="#FB7E47"/>
<path d="M429.779 73.679C426.471 73.7343 423.205 72.9413 420.291 71.3756C419.032 70.9081 417.945 70.0663 417.178 68.9634C416.411 67.8605 416 66.5492 416 65.2058C416 63.8623 416.411 62.5511 417.178 61.4481C417.945 60.3452 419.032 59.5035 420.291 59.036C423.225 57.5232 426.478 56.734 429.779 56.734C433.08 56.734 436.333 57.5232 439.267 59.036C440.526 59.5035 441.612 60.3452 442.379 61.4481C443.146 62.5511 443.558 63.8623 443.558 65.2058C443.558 66.5492 443.146 67.8605 442.379 68.9634C441.612 70.0663 440.526 70.9081 439.267 71.3756C436.355 72.9483 433.087 73.7418 429.779 73.679ZM429.779 59.1182C426.914 59.0715 424.084 59.7507 421.552 61.0926C420.642 61.3296 419.836 61.862 419.26 62.6064C418.685 63.3507 418.373 64.2649 418.373 65.2058C418.373 66.1466 418.685 67.0608 419.26 67.8052C419.836 68.5495 420.642 69.0819 421.552 69.319C424.103 70.6082 426.921 71.28 429.779 71.28C432.637 71.28 435.455 70.6082 438.005 69.319C438.916 69.0819 439.722 68.5495 440.297 67.8052C440.872 67.0608 441.185 66.1466 441.185 65.2058C441.185 64.2649 440.872 63.3507 440.297 62.6064C439.722 61.862 438.916 61.3296 438.005 61.0926C435.473 59.7518 432.643 59.0727 429.779 59.1182Z" fill="#020202"/>
<path d="M441.762 39.8959C441.231 39.1168 440.92 38.2087 440.862 37.2676C440.804 36.3264 441.001 35.3871 441.433 34.5487C441.929 33.687 442.651 32.9767 443.52 32.4936C444.39 32.0106 445.374 31.7731 446.368 31.8066C446.869 31.8687 447.377 31.7915 447.837 31.5835C448.296 31.3754 448.69 31.0446 448.973 30.6275C449.158 30.2178 449.233 29.7669 449.189 29.3195C449.146 28.8722 448.987 28.4439 448.727 28.0773L447.849 26.5691C447.351 25.8126 447.058 24.9392 447.001 24.0352C446.943 23.1311 447.122 22.2276 447.52 21.4139C447.987 20.6047 448.652 19.928 449.454 19.4481C450.255 18.9682 451.166 18.701 452.1 18.6718H453.471C453.936 18.6832 454.397 18.576 454.809 18.3601C455.222 18.1442 455.573 17.8268 455.829 17.4378C456.018 16.9901 456.084 16.5003 456.022 16.0185C455.959 15.5367 455.769 15.0802 455.472 14.6957L455.198 14.2295C454.631 13.4421 454.292 12.5132 454.219 11.5453C454.147 10.5775 454.343 9.60847 454.787 8.74524C455.284 7.88356 456.005 7.17318 456.875 6.69016C457.744 6.20713 458.729 5.96964 459.723 6.00311V8.74524C459.221 8.69409 458.715 8.7822 458.26 8.9999C457.806 9.21759 457.42 9.55644 457.145 9.9792C456.952 10.4245 456.881 10.913 456.939 11.3947C456.997 11.8765 457.182 12.3342 457.474 12.7213L457.748 13.1875C458.291 13.9479 458.62 14.8396 458.702 15.7702C458.784 16.7007 458.616 17.6363 458.214 18.4798C457.745 19.2929 457.076 19.972 456.269 20.4522C455.462 20.9323 454.546 21.1973 453.608 21.2219H452.237C451.771 21.2105 451.31 21.3177 450.898 21.5336C450.485 21.7495 450.134 22.0669 449.878 22.4559C449.705 22.8602 449.639 23.3024 449.687 23.7397C449.735 24.1769 449.896 24.5943 450.153 24.9512L451.03 26.4594C451.54 27.2333 451.834 28.1292 451.882 29.0546C451.93 29.9801 451.731 30.9017 451.304 31.7243C450.787 32.5555 450.056 33.2329 449.188 33.6861C448.32 34.1394 447.346 34.352 446.368 34.3019C445.867 34.263 445.364 34.3535 444.908 34.5648C444.452 34.7761 444.058 35.101 443.763 35.5085C443.567 35.9514 443.491 36.4385 443.544 36.9202C443.597 37.4019 443.777 37.8609 444.065 38.2506L441.762 39.8959Z" fill="#FB7E47"/>
<path d="M459.75 67.7559C457.711 67.7559 455.718 67.1512 454.022 66.0183C452.327 64.8854 451.005 63.2751 450.225 61.3912C449.444 59.5072 449.24 57.4341 449.638 55.4341C450.036 53.434 451.018 51.5969 452.46 50.155C453.902 48.713 455.739 47.731 457.739 47.3332C459.739 46.9354 461.812 47.1396 463.696 47.9199C465.58 48.7003 467.19 50.0218 468.323 51.7174C469.456 53.4129 470.061 55.4063 470.061 57.4455C470.054 60.1778 468.965 62.7961 467.033 64.7281C465.101 66.6601 462.483 67.7487 459.75 67.7559ZM459.75 49.8772C458.253 49.8772 456.79 50.3211 455.546 51.1527C454.301 51.9843 453.331 53.1663 452.758 54.5493C452.185 55.9322 452.035 57.4539 452.327 58.922C452.619 60.3901 453.34 61.7387 454.399 62.7971C455.457 63.8556 456.806 64.5764 458.274 64.8684C459.742 65.1604 461.264 65.0105 462.647 64.4377C464.03 63.8649 465.212 62.8948 466.043 61.6502C466.875 60.4056 467.319 58.9424 467.319 57.4455C467.311 55.4405 466.512 53.5197 465.094 52.1019C463.676 50.6842 461.755 49.8845 459.75 49.8772Z" fill="#FB7E47"/>
<path d="M233.466 618.722C231.563 618.722 229.702 618.158 228.119 617.1C226.536 616.043 225.302 614.54 224.574 612.781C223.845 611.022 223.655 609.087 224.026 607.22C224.398 605.353 225.314 603.638 226.66 602.292C228.006 600.946 229.721 600.029 231.588 599.658C233.456 599.286 235.391 599.477 237.149 600.205C238.908 600.934 240.411 602.167 241.469 603.75C242.527 605.333 243.091 607.194 243.091 609.097C243.091 611.65 242.077 614.098 240.272 615.903C238.467 617.708 236.019 618.722 233.466 618.722ZM233.466 602.27C232.104 602.27 230.772 602.674 229.639 603.431C228.507 604.189 227.625 605.266 227.105 606.525C226.585 607.784 226.45 609.169 226.718 610.505C226.986 611.841 227.644 613.067 228.609 614.029C229.574 614.99 230.803 615.644 232.14 615.906C233.477 616.169 234.862 616.028 236.119 615.503C237.376 614.978 238.449 614.092 239.202 612.956C239.955 611.821 240.354 610.487 240.349 609.125C240.349 608.222 240.171 607.329 239.824 606.495C239.478 605.662 238.971 604.905 238.331 604.268C237.692 603.631 236.933 603.126 236.098 602.784C235.263 602.441 234.369 602.266 233.466 602.27Z" fill="#FB7E47"/>
<path d="M223.238 654.37V623.11C223.242 622.96 223.216 622.811 223.161 622.671C223.106 622.532 223.024 622.404 222.919 622.297C222.814 622.19 222.689 622.104 222.551 622.046C222.412 621.988 222.264 621.958 222.114 621.958H194.089C193.873 621.965 193.668 622.054 193.515 622.207C193.363 622.359 193.274 622.565 193.267 622.781V654.507C193.301 654.787 193.404 655.053 193.567 655.283C193.73 655.513 193.947 655.698 194.199 655.823L205.744 662.487C206.612 662.878 207.56 663.062 208.512 663.024C209.463 662.986 210.393 662.727 211.228 662.267L221.977 656.043C222.772 655.631 223.238 655.138 223.238 654.37Z" fill="url(#paint35_linear)"/>
<path d="M205.744 640.303L196.036 634.819V657.606L208.266 663.611V640.934C207.384 640.958 206.511 640.74 205.744 640.303Z" fill="#FB7E47"/>
<path d="M208.102 663.858C207.146 663.881 206.201 663.654 205.36 663.2L193.815 656.564C193.471 656.387 193.174 656.131 192.95 655.816C192.726 655.501 192.58 655.137 192.526 654.754V654.562V622.836C192.526 622.414 192.694 622.009 192.992 621.711C193.29 621.413 193.695 621.245 194.117 621.245H222.141C222.651 621.245 223.139 621.447 223.499 621.807C223.859 622.167 224.061 622.656 224.061 623.165V654.37C224.025 654.886 223.843 655.381 223.538 655.799C223.232 656.216 222.814 656.538 222.333 656.728L211.584 662.926C210.524 663.534 209.324 663.856 208.102 663.858ZM194.089 622.726V654.37C194.227 654.891 194.227 654.919 194.638 655.138L206.155 661.801C206.897 662.123 207.703 662.271 208.511 662.233C209.319 662.195 210.108 661.972 210.816 661.582L221.566 655.385C222.416 654.891 222.498 654.589 222.498 654.37V623.11C222.498 623.015 222.46 622.925 222.394 622.858C222.327 622.791 222.236 622.753 222.141 622.753L194.089 622.726Z" fill="#020202"/>
<path d="M205.743 630.13L194.199 623.466C192.8 622.671 192.992 621.273 194.61 620.34L205.359 614.143C206.189 613.673 207.119 613.406 208.072 613.363C209.025 613.32 209.974 613.503 210.843 613.896L222.36 620.56C223.759 621.382 223.594 622.781 221.977 623.713L211.227 629.91C210.398 630.384 209.467 630.652 208.512 630.69C207.557 630.728 206.608 630.536 205.743 630.13Z" fill="url(#paint36_linear)"/>
<path d="M222.47 626.592C222.47 626.592 222.47 626.592 222.306 626.592L210.789 619.929C209.923 619.529 208.974 619.341 208.02 619.379C207.067 619.417 206.136 619.681 205.305 620.148L194.556 626.373C194.361 626.473 194.177 626.592 194.007 626.729V629.472H194.144L205.689 636.135C206.557 636.526 207.505 636.71 208.457 636.672C209.408 636.634 210.338 636.375 211.173 635.916L221.922 629.691C222.12 629.586 222.304 629.457 222.47 629.307V626.592Z" fill="#FB7E47"/>
<path d="M208.102 631.473C207.146 631.497 206.2 631.27 205.359 630.815L193.815 624.207C193.43 624.02 193.101 623.733 192.865 623.376C192.629 623.019 192.493 622.605 192.471 622.178C192.515 621.65 192.698 621.144 193.002 620.71C193.305 620.276 193.718 619.931 194.199 619.71L204.948 613.512C205.892 612.98 206.951 612.683 208.034 612.645C209.117 612.607 210.193 612.829 211.173 613.293L222.717 619.929C223.1 620.124 223.423 620.417 223.655 620.778C223.886 621.14 224.017 621.557 224.033 621.986C223.988 622.509 223.804 623.011 223.5 623.44C223.197 623.869 222.784 624.209 222.306 624.426L211.557 630.651C210.495 631.217 209.305 631.5 208.102 631.473ZM208.431 614.143C207.475 614.12 206.53 614.347 205.689 614.801L194.939 621.026C194.254 621.41 194.007 621.848 194.007 622.123C194.007 622.397 194.336 622.671 194.555 622.808L206.072 629.444C206.813 629.773 207.62 629.924 208.429 629.886C209.238 629.848 210.028 629.621 210.734 629.225L221.483 623.028C222.169 622.616 222.415 622.205 222.415 621.931C222.415 621.657 222.086 621.355 221.867 621.245L210.35 614.582C209.756 614.279 209.097 614.128 208.431 614.143Z" fill="#020202"/>
<path d="M88.2392 262.478C86.8074 262.478 85.4078 262.054 84.2173 261.258C83.0268 260.463 82.099 259.332 81.5511 258.01C81.0032 256.687 80.8598 255.231 81.1391 253.827C81.4184 252.423 82.1079 251.133 83.1203 250.12C84.1327 249.108 85.4226 248.418 86.8269 248.139C88.2312 247.86 89.6867 248.003 91.0095 248.551C92.3323 249.099 93.4629 250.027 94.2584 251.217C95.0538 252.408 95.4785 253.807 95.4785 255.239C95.4785 257.159 94.7157 259.001 93.3581 260.358C92.0005 261.716 90.1592 262.478 88.2392 262.478ZM88.2392 250.742C87.3498 250.742 86.4803 251.006 85.7408 251.5C85.0012 251.994 84.4248 252.697 84.0844 253.518C83.744 254.34 83.655 255.244 83.8285 256.117C84.002 256.989 84.4304 257.79 85.0593 258.419C85.6883 259.048 86.4895 259.476 87.3619 259.65C88.2342 259.823 89.1384 259.734 89.9602 259.394C90.7819 259.054 91.4843 258.477 91.9784 257.738C92.4726 256.998 92.7363 256.129 92.7363 255.239C92.7292 254.049 92.253 252.909 91.4112 252.067C90.5694 251.225 89.4297 250.749 88.2392 250.742Z" fill="#FB7E47"/>
<path d="M118.458 311.288V276.546C118.458 276.211 118.325 275.89 118.088 275.654C117.852 275.417 117.531 275.284 117.196 275.284H86.0181C85.7782 275.284 85.548 275.38 85.3783 275.549C85.2086 275.719 85.1133 275.949 85.1133 276.189V311.426C85.154 311.738 85.2701 312.036 85.4516 312.294C85.6331 312.552 85.8746 312.762 86.1552 312.906L98.961 320.283C99.9144 320.722 100.958 320.928 102.007 320.885C103.056 320.842 104.079 320.551 104.994 320.036L116.949 313.153C117.937 312.605 118.458 312.084 118.458 311.288Z" fill="url(#paint37_linear)"/>
<path d="M99.0156 295.603L88.239 289.379V314.689L101.813 321.352V296.207C100.843 296.257 99.8781 296.048 99.0156 295.603Z" fill="#FB7E47"/>
<path d="M101.648 321.681C100.581 321.703 99.5254 321.458 98.5769 320.968L85.7712 313.564C85.3924 313.371 85.0638 313.091 84.8116 312.749C84.5594 312.406 84.3903 312.009 84.3179 311.59V276.189C84.3179 275.724 84.5027 275.277 84.8319 274.948C85.161 274.619 85.6073 274.434 86.0728 274.434H117.196C117.759 274.434 118.298 274.656 118.699 275.051C119.099 275.446 119.328 275.983 119.335 276.546V311.288C119.291 311.855 119.092 312.399 118.758 312.859C118.424 313.319 117.968 313.677 117.443 313.893L105.487 320.804C104.302 321.416 102.981 321.717 101.648 321.681ZM86.018 276.162V311.288C86.1825 311.864 86.1825 311.892 86.6213 312.138L99.4271 319.542C100.247 319.901 101.139 320.065 102.034 320.022C102.928 319.979 103.8 319.731 104.582 319.295L116.538 312.385C117.498 311.837 117.553 311.535 117.553 311.288V276.546C117.553 276.444 117.512 276.346 117.44 276.274C117.368 276.202 117.27 276.162 117.169 276.162H86.018Z" fill="#020202"/>
<path d="M99.0159 284.306L86.2102 276.902C84.6746 276.025 84.8665 274.462 86.6489 273.42L98.5771 266.537C99.4964 266.021 100.525 265.73 101.578 265.687C102.631 265.644 103.679 265.851 104.637 266.29L117.416 273.666C118.979 274.571 118.787 276.134 117.004 277.176L105.049 284.059C104.134 284.574 103.111 284.865 102.062 284.908C101.013 284.951 99.9693 284.745 99.0159 284.306Z" fill="url(#paint38_linear)"/>
<path d="M117.608 280.385C117.556 280.324 117.49 280.277 117.416 280.247L104.638 272.844C103.676 272.417 102.63 272.218 101.579 272.26C100.528 272.303 99.5009 272.587 98.5774 273.09L86.6492 280.001C86.4354 280.118 86.2334 280.256 86.0459 280.412V283.291H86.2104L99.0161 290.695C99.9733 291.123 101.017 291.322 102.065 291.274C103.113 291.226 104.134 290.934 105.049 290.421L117.005 283.538L117.608 283.127V280.385Z" fill="#FB7E47"/>
<path d="M101.648 285.787C100.581 285.808 99.5255 285.563 98.577 285.074L85.7713 277.67C85.3481 277.452 84.9891 277.127 84.7294 276.728C84.4698 276.329 84.3185 275.869 84.2905 275.394C84.3387 274.808 84.5419 274.245 84.8792 273.763C85.2164 273.281 85.6758 272.898 86.2101 272.652L98.1384 265.769C99.1848 265.175 100.358 264.841 101.56 264.793C102.762 264.745 103.958 264.986 105.048 265.495L117.854 272.899C118.277 273.117 118.636 273.441 118.896 273.84C119.156 274.239 119.307 274.699 119.335 275.174C119.289 275.758 119.09 276.319 118.758 276.8C118.426 277.282 117.972 277.667 117.443 277.917L105.487 284.799C104.317 285.461 102.993 285.802 101.648 285.787ZM102.005 266.592C100.963 266.592 99.9372 266.846 99.0158 267.332L87.0876 274.242C86.3198 274.681 86.0455 275.147 86.0455 275.449C86.0455 275.75 86.4294 276.079 86.6488 276.217L99.4545 283.62C100.277 283.971 101.168 284.131 102.06 284.088C102.953 284.045 103.825 283.801 104.61 283.373L116.565 276.463C117.333 276.025 117.607 275.558 117.607 275.257C117.607 274.955 117.224 274.626 117.004 274.489L104.198 267.085C103.525 266.721 102.77 266.532 102.005 266.537V266.592Z" fill="#020202"/>
<path d="M476.866 231.36C475.454 231.358 474.068 230.981 472.849 230.268C471.63 229.555 470.623 228.532 469.929 227.302L463.018 214.935C462.504 214.027 462.177 213.026 462.054 211.99C461.932 210.954 462.017 209.904 462.306 208.902C462.88 206.879 464.23 205.164 466.062 204.131L478.429 197.221C480.266 196.196 482.435 195.94 484.46 196.511C486.485 197.081 488.201 198.431 489.233 200.264L496.143 212.631C496.657 213.539 496.985 214.54 497.108 215.576C497.23 216.612 497.145 217.662 496.856 218.664C496.282 220.687 494.932 222.402 493.1 223.435L480.733 230.346C479.553 231.012 478.221 231.362 476.866 231.36ZM482.35 198.948C481.46 198.957 480.584 199.183 479.8 199.606L467.461 206.544C466.864 206.873 466.339 207.316 465.915 207.85C465.491 208.383 465.176 208.995 464.99 209.65C464.804 210.305 464.75 210.991 464.83 211.667C464.911 212.344 465.124 212.998 465.459 213.591L472.369 225.958C473.044 227.159 474.167 228.045 475.493 228.42C476.819 228.795 478.24 228.63 479.444 227.96L491.811 221.022C492.406 220.694 492.931 220.251 493.354 219.719C493.778 219.188 494.092 218.577 494.279 217.924C494.623 216.595 494.456 215.187 493.813 213.975L486.82 201.608C486.373 200.8 485.718 200.127 484.922 199.659C484.126 199.191 483.219 198.946 482.296 198.948H482.35Z" fill="#FB7E47"/>
<path d="M504.452 245.29C503.973 244.592 503.692 243.777 503.639 242.932C503.586 242.088 503.763 241.244 504.15 240.491C504.612 239.736 505.267 239.119 506.049 238.704C506.83 238.289 507.709 238.092 508.593 238.133C508.991 238.172 509.393 238.107 509.758 237.943C510.124 237.78 510.44 237.524 510.677 237.201C510.82 236.878 510.876 236.522 510.837 236.17C510.799 235.819 510.667 235.484 510.457 235.199L509.717 233.883C509.263 233.205 508.997 232.42 508.944 231.606C508.891 230.793 509.053 229.979 509.415 229.249C509.829 228.521 510.427 227.915 511.149 227.491C511.871 227.068 512.691 226.842 513.528 226.836H514.735C515.105 226.879 515.479 226.81 515.809 226.636C516.138 226.462 516.407 226.192 516.579 225.862C516.752 225.532 516.82 225.157 516.775 224.787C516.729 224.418 516.573 224.07 516.325 223.792L516.051 223.408C515.569 222.702 515.284 221.879 515.226 221.026C515.168 220.173 515.34 219.319 515.722 218.554C516.173 217.794 516.822 217.171 517.6 216.751C518.377 216.331 519.254 216.129 520.137 216.169V218.911C519.736 218.877 519.334 218.948 518.969 219.117C518.604 219.285 518.288 219.544 518.053 219.871C517.914 220.213 517.868 220.587 517.921 220.953C517.974 221.32 518.124 221.665 518.355 221.955L518.601 222.366C519.078 223.053 519.364 223.853 519.431 224.686C519.499 225.519 519.345 226.355 518.985 227.11C518.572 227.848 517.972 228.465 517.245 228.898C516.518 229.331 515.691 229.565 514.845 229.578H513.666C513.295 229.567 512.928 229.649 512.598 229.817C512.267 229.985 511.984 230.232 511.774 230.537C511.644 230.861 511.599 231.211 511.642 231.556C511.685 231.902 511.816 232.23 512.02 232.512L512.788 233.801C513.244 234.5 513.504 235.309 513.543 236.143C513.581 236.977 513.397 237.806 513.007 238.544C512.545 239.29 511.892 239.9 511.116 240.309C510.34 240.719 509.469 240.914 508.593 240.875C508.191 240.833 507.786 240.9 507.419 241.069C507.052 241.238 506.738 241.503 506.509 241.835C506.358 242.168 506.302 242.535 506.345 242.898C506.389 243.26 506.531 243.604 506.755 243.892L504.452 245.29Z" fill="#FB7E47"/>
<path d="M512.596 193.162C511.291 193.168 510.014 192.785 508.927 192.063C507.84 191.34 506.992 190.311 506.492 189.106C505.991 187.901 505.86 186.574 506.115 185.294C506.37 184.014 507.001 182.839 507.925 181.918C508.85 180.997 510.028 180.372 511.309 180.122C512.59 179.872 513.916 180.008 515.119 180.514C516.322 181.02 517.348 181.872 518.066 182.962C518.784 184.052 519.161 185.331 519.15 186.636C519.136 188.367 518.44 190.023 517.213 191.244C515.986 192.466 514.328 193.155 512.596 193.162ZM512.596 182.769C511.836 182.764 511.091 182.985 510.456 183.403C509.821 183.822 509.325 184.419 509.03 185.12C508.735 185.821 508.655 186.594 508.8 187.34C508.945 188.087 509.309 188.774 509.845 189.313C510.38 189.853 511.064 190.221 511.81 190.372C512.555 190.522 513.329 190.448 514.032 190.158C514.735 189.868 515.336 189.376 515.759 188.744C516.182 188.112 516.408 187.369 516.408 186.608C516.408 185.595 516.007 184.623 515.293 183.904C514.579 183.184 513.61 182.777 512.596 182.769Z" fill="#FB7E47"/>
<path d="M504.891 302.518V264.979C504.891 264.622 504.749 264.281 504.497 264.029C504.245 263.777 503.904 263.635 503.547 263.635H469.901C469.647 263.635 469.403 263.736 469.223 263.916C469.043 264.096 468.942 264.34 468.942 264.595V302.656C469.188 303.478 469.271 303.807 470.066 304.246L483.914 312.253C484.947 312.722 486.076 312.942 487.209 312.894C488.343 312.846 489.45 312.533 490.44 311.979L503.273 304.548C504.315 303.944 504.891 303.369 504.891 302.518Z" fill="url(#paint39_linear)"/>
<path d="M483.886 285.572L472.26 278.854V306.275L486.903 313.487V286.285C485.851 286.323 484.809 286.077 483.886 285.572Z" fill="#FB7E47"/>
<path d="M486.82 313.843C485.664 313.867 484.522 313.593 483.502 313.048L469.655 305.069C469.247 304.856 468.894 304.553 468.623 304.182C468.352 303.811 468.17 303.382 468.092 302.93V264.54C468.099 264.036 468.304 263.554 468.663 263.2C469.023 262.846 469.507 262.648 470.011 262.648H503.547C504.151 262.648 504.73 262.888 505.157 263.314C505.583 263.741 505.823 264.32 505.823 264.924V302.464C505.76 303.064 505.535 303.635 505.173 304.118C504.811 304.601 504.325 304.977 503.767 305.206L490.879 312.664C489.645 313.39 488.25 313.795 486.82 313.843ZM469.984 264.485V302.436C470.175 303.067 470.175 303.094 470.669 303.369L484.38 311.348C485.256 311.717 486.204 311.884 487.153 311.836C488.103 311.789 489.029 311.528 489.864 311.074L502.752 303.643C503.794 303.039 503.876 302.71 503.876 302.436V264.979C503.876 264.87 503.833 264.765 503.756 264.688C503.679 264.611 503.574 264.567 503.465 264.567L469.984 264.485Z" fill="#020202"/>
<path d="M483.886 273.37L470.039 265.39C468.366 264.403 468.585 262.648 470.505 261.606L483.42 254.175C484.41 253.621 485.517 253.307 486.651 253.26C487.784 253.212 488.913 253.432 489.947 253.9L503.657 261.88C505.33 262.84 505.138 264.622 503.191 265.664L490.303 273.095C489.327 273.632 488.24 273.935 487.127 273.983C486.014 274.031 484.905 273.821 483.886 273.37Z" fill="url(#paint40_linear)"/>
<path d="M503.958 269.119C503.895 269.107 503.83 269.107 503.767 269.119L490.056 261.14C489.025 260.667 487.897 260.442 486.763 260.485C485.63 260.528 484.522 260.837 483.53 261.386L470.614 268.845C470.38 268.978 470.159 269.134 469.956 269.311V272.465L470.148 272.602L483.996 280.609C485.031 281.071 486.159 281.287 487.291 281.24C488.424 281.192 489.53 280.882 490.522 280.335L503.41 272.876C503.638 272.743 503.857 272.596 504.068 272.437L503.958 269.119Z" fill="#FB7E47"/>
<path d="M486.82 274.96C485.667 274.992 484.524 274.728 483.502 274.192L469.572 266.158C469.104 265.941 468.707 265.598 468.426 265.166C468.145 264.735 467.991 264.232 467.982 263.717C468.029 263.089 468.245 262.484 468.607 261.968C468.969 261.452 469.464 261.042 470.038 260.783L482.954 253.325C484.087 252.694 485.354 252.341 486.65 252.293C487.946 252.245 489.236 252.505 490.412 253.05L504.123 261.03C504.6 261.244 505.006 261.591 505.292 262.028C505.579 262.465 505.735 262.975 505.741 263.498C505.68 264.126 505.455 264.728 505.089 265.242C504.724 265.757 504.23 266.167 503.657 266.432L490.769 273.891C489.558 274.56 488.203 274.927 486.82 274.96ZM487.204 254.175C486.076 254.164 484.963 254.437 483.968 254.97L471.08 262.428C470.23 262.895 469.929 263.416 469.929 263.745C469.929 264.074 470.34 264.43 470.587 264.567L484.434 272.547C485.311 272.916 486.258 273.082 487.208 273.035C488.157 272.988 489.084 272.727 489.919 272.273L502.807 264.842C503.657 264.348 503.931 263.854 503.931 263.525C503.931 263.196 503.52 262.84 503.273 262.703L489.562 254.696C488.807 254.315 487.967 254.135 487.122 254.175H487.204Z" fill="#020202"/>
<path d="M520.932 323.743V296.321C520.932 296.059 520.828 295.808 520.643 295.623C520.458 295.438 520.207 295.334 519.945 295.334H495.513C495.324 295.334 495.142 295.409 495.009 295.543C494.875 295.677 494.8 295.858 494.8 296.047V323.743C494.825 323.99 494.914 324.226 495.058 324.428C495.202 324.63 495.397 324.791 495.622 324.894L505.659 330.708C506.41 331.047 507.23 331.207 508.053 331.173C508.877 331.14 509.681 330.915 510.403 330.516L519.781 325.031C520.521 324.648 520.932 324.236 520.932 323.743Z" fill="url(#paint41_linear)"/>
<path d="M505.658 311.293L497.213 306.412V326.293L507.852 331.503V311.759C507.094 311.784 506.341 311.624 505.658 311.293Z" fill="#FB7E47"/>
<path d="M507.743 331.969C506.902 331.991 506.07 331.792 505.33 331.393L495.266 325.607C494.968 325.454 494.711 325.233 494.515 324.961C494.32 324.69 494.192 324.375 494.142 324.044V296.047C494.142 295.676 494.289 295.32 494.551 295.058C494.814 294.796 495.169 294.649 495.54 294.649H519.973C520.416 294.649 520.842 294.825 521.155 295.138C521.469 295.452 521.645 295.878 521.645 296.321V323.743C521.611 324.188 521.454 324.616 521.193 324.978C520.932 325.341 520.576 325.625 520.165 325.799L510.787 331.283C509.85 331.775 508.8 332.011 507.743 331.969ZM495.513 296.157V323.743C495.513 324.209 495.513 324.209 495.979 324.428L506.043 330.214C506.687 330.501 507.39 330.633 508.095 330.599C508.799 330.566 509.486 330.368 510.101 330.022L519.479 324.538C520.22 324.099 520.274 323.852 520.274 323.66V296.321C520.274 296.282 520.267 296.242 520.251 296.206C520.236 296.169 520.214 296.136 520.186 296.108C520.158 296.08 520.125 296.058 520.088 296.043C520.051 296.027 520.012 296.02 519.973 296.02L495.513 296.157Z" fill="#020202"/>
<path d="M505.659 302.409L495.623 296.595C494.389 295.91 494.553 294.676 495.952 293.853L505.33 288.369C506.051 287.97 506.855 287.745 507.679 287.711C508.503 287.678 509.323 287.837 510.074 288.177L520.137 293.99C521.344 294.676 521.179 295.91 519.781 296.733L510.403 302.217C509.684 302.622 508.879 302.851 508.054 302.885C507.229 302.918 506.408 302.755 505.659 302.409Z" fill="url(#paint42_linear)"/>
<path d="M520.274 299.338H520.137L510.074 293.524C509.322 293.185 508.502 293.025 507.679 293.058C506.855 293.092 506.051 293.317 505.33 293.716L495.951 299.201L495.485 299.53V301.806L505.522 307.591C506.271 307.938 507.092 308.101 507.917 308.067C508.741 308.034 509.546 307.805 510.265 307.399L519.644 301.915L520.137 301.586L520.274 299.338Z" fill="#FB7E47"/>
<path d="M507.743 303.56C506.904 303.59 506.073 303.401 505.33 303.012L495.266 297.199C494.932 297.032 494.649 296.779 494.446 296.465C494.244 296.152 494.129 295.789 494.114 295.416C494.167 294.962 494.333 294.529 494.597 294.155C494.86 293.782 495.213 293.48 495.622 293.277L504.973 287.793C505.802 287.319 506.734 287.052 507.688 287.013C508.643 286.975 509.593 287.167 510.457 287.574L520.521 293.387C520.858 293.552 521.145 293.805 521.353 294.118C521.56 294.431 521.68 294.794 521.7 295.17C521.663 295.628 521.503 296.068 521.238 296.445C520.972 296.821 520.611 297.119 520.192 297.308L510.814 302.793C509.872 303.306 508.815 303.57 507.743 303.56ZM508.017 288.479C507.195 288.47 506.384 288.668 505.659 289.055L496.281 294.539C495.677 294.895 495.485 295.279 495.485 295.499C495.485 295.718 495.759 295.992 495.951 296.102L506.015 301.805C506.662 302.084 507.363 302.211 508.066 302.178C508.77 302.145 509.456 301.952 510.073 301.614L519.452 296.129C520.055 295.773 520.274 295.416 520.274 295.17C520.274 294.923 519.973 294.676 519.781 294.566L509.717 288.78C509.188 288.529 508.6 288.425 508.017 288.479Z" fill="#020202"/>
<defs>
<linearGradient id="paint0_linear" x1="231.849" y1="196.9" x2="231.849" y2="250.015" gradientUnits="userSpaceOnUse">
<stop stop-color="#A0388B"/>
<stop offset="1" stop-color="#EC2E37"/>
</linearGradient>
<linearGradient id="paint1_linear" x1="208.129" y1="208.198" x2="208.129" y2="273.735" gradientUnits="userSpaceOnUse">
<stop stop-color="#A0388B"/>
<stop offset="1" stop-color="#EC2E37"/>
</linearGradient>
<linearGradient id="paint2_linear" x1="300.127" y1="420.686" x2="300.127" y2="449.259" gradientUnits="userSpaceOnUse">
<stop stop-color="#A0388B"/>
<stop offset="1" stop-color="#EC2E37"/>
</linearGradient>
<linearGradient id="paint3_linear" x1="230.697" y1="468.316" x2="230.697" y2="554.227" gradientUnits="userSpaceOnUse">
<stop stop-color="#A0388B"/>
<stop offset="1" stop-color="#EC2E37"/>
</linearGradient>
<linearGradient id="paint4_linear" x1="243.763" y1="453.262" x2="243.763" y2="481.808" gradientUnits="userSpaceOnUse">
<stop stop-color="#A0388B"/>
<stop offset="1" stop-color="#EC2E37"/>
</linearGradient>
<linearGradient id="paint5_linear" x1="298.688" y1="464.505" x2="298.688" y2="516.989" gradientUnits="userSpaceOnUse">
<stop stop-color="#A0388B"/>
<stop offset="1" stop-color="#EC2E37"/>
</linearGradient>
<linearGradient id="paint6_linear" x1="281.001" y1="435.767" x2="281.001" y2="514.22" gradientUnits="userSpaceOnUse">
<stop stop-color="#A0388B"/>
<stop offset="1" stop-color="#EC2E37"/>
</linearGradient>
<linearGradient id="paint7_linear" x1="264.151" y1="492.392" x2="264.151" y2="536.02" gradientUnits="userSpaceOnUse">
<stop stop-color="#A0388B"/>
<stop offset="1" stop-color="#EC2E37"/>
</linearGradient>
<linearGradient id="paint8_linear" x1="329.551" y1="575.753" x2="329.551" y2="640.742" gradientUnits="userSpaceOnUse">
<stop stop-color="#A0388B"/>
<stop offset="1" stop-color="#EC2E37"/>
</linearGradient>
<linearGradient id="paint9_linear" x1="350.775" y1="551.348" x2="350.775" y2="616.967" gradientUnits="userSpaceOnUse">
<stop stop-color="#A0388B"/>
<stop offset="1" stop-color="#EC2E37"/>
</linearGradient>
<linearGradient id="paint10_linear" x1="242.973" y1="35.8945" x2="242.973" y2="111.056" gradientUnits="userSpaceOnUse">
<stop stop-color="#A0388B"/>
<stop offset="1" stop-color="#EC2E37"/>
</linearGradient>
<linearGradient id="paint11_linear" x1="200.483" y1="11.9557" x2="200.483" y2="87.0902" gradientUnits="userSpaceOnUse">
<stop stop-color="#A0388B"/>
<stop offset="1" stop-color="#EC2E37"/>
</linearGradient>
<linearGradient id="paint12_linear" x1="217.622" y1="13.9575" x2="217.622" y2="135.269" gradientUnits="userSpaceOnUse">
<stop stop-color="#A0388B"/>
<stop offset="1" stop-color="#EC2E37"/>
</linearGradient>
<linearGradient id="paint13_linear" x1="186.978" y1="1.06943" x2="186.978" y2="24.926" gradientUnits="userSpaceOnUse">
<stop stop-color="#A0388B"/>
<stop offset="1" stop-color="#EC2E37"/>
</linearGradient>
<linearGradient id="paint14_linear" x1="228.823" y1="25.4196" x2="228.823" y2="48.8922" gradientUnits="userSpaceOnUse">
<stop stop-color="#A0388B"/>
<stop offset="1" stop-color="#EC2E37"/>
</linearGradient>
<linearGradient id="paint15_linear" x1="270.462" y1="49.2487" x2="270.462" y2="73.1327" gradientUnits="userSpaceOnUse">
<stop stop-color="#A0388B"/>
<stop offset="1" stop-color="#EC2E37"/>
</linearGradient>
<linearGradient id="paint16_linear" x1="323.161" y1="274.801" x2="323.161" y2="362.552" gradientUnits="userSpaceOnUse">
<stop stop-color="#A0388B"/>
<stop offset="1" stop-color="#EC2E37"/>
</linearGradient>
<linearGradient id="paint17_linear" x1="308.366" y1="287.455" x2="308.366" y2="375.248" gradientUnits="userSpaceOnUse">
<stop stop-color="#A0388B"/>
<stop offset="1" stop-color="#EC2E37"/>
</linearGradient>
<linearGradient id="paint18_linear" x1="344.921" y1="100.788" x2="344.921" y2="139.096" gradientUnits="userSpaceOnUse">
<stop stop-color="#A0388B"/>
<stop offset="1" stop-color="#EC2E37"/>
</linearGradient>
<linearGradient id="paint19_linear" x1="323.409" y1="125.605" x2="323.409" y2="211.543" gradientUnits="userSpaceOnUse">
<stop stop-color="#A0388B"/>
<stop offset="1" stop-color="#EC2E37"/>
</linearGradient>
<linearGradient id="paint20_linear" x1="365.514" y1="136.546" x2="365.514" y2="154.918" gradientUnits="userSpaceOnUse">
<stop stop-color="#A0388B"/>
<stop offset="1" stop-color="#EC2E37"/>
</linearGradient>
<linearGradient id="paint21_linear" x1="366.392" y1="163.994" x2="366.392" y2="184.286" gradientUnits="userSpaceOnUse">
<stop stop-color="#A0388B"/>
<stop offset="1" stop-color="#EC2E37"/>
</linearGradient>
<linearGradient id="paint22_linear" x1="209.089" y1="357.973" x2="209.089" y2="386.107" gradientUnits="userSpaceOnUse">
<stop stop-color="#A0388B"/>
<stop offset="1" stop-color="#EC2E37"/>
</linearGradient>
<linearGradient id="paint23_linear" x1="213.471" y1="347.333" x2="213.471" y2="415.099" gradientUnits="userSpaceOnUse">
<stop stop-color="#A0388B"/>
<stop offset="1" stop-color="#EC2E37"/>
</linearGradient>
<linearGradient id="paint24_linear" x1="213.384" y1="340.39" x2="213.384" y2="394.231" gradientUnits="userSpaceOnUse">
<stop stop-color="#A0388B"/>
<stop offset="1" stop-color="#EC2E37"/>
</linearGradient>
<linearGradient id="paint25_linear" x1="461.907" y1="507.601" x2="461.907" y2="532.91" gradientUnits="userSpaceOnUse">
<stop stop-color="#A0388B"/>
<stop offset="1" stop-color="#EC2E37"/>
</linearGradient>
<linearGradient id="paint26_linear" x1="461.917" y1="492.198" x2="461.917" y2="517.499" gradientUnits="userSpaceOnUse">
<stop stop-color="#A0388B"/>
<stop offset="1" stop-color="#EC2E37"/>
</linearGradient>
<linearGradient id="paint27_linear" x1="58.5985" y1="129.373" x2="58.5985" y2="160.002" gradientUnits="userSpaceOnUse">
<stop stop-color="#A0388B"/>
<stop offset="1" stop-color="#EC2E37"/>
</linearGradient>
<linearGradient id="paint28_linear" x1="58.5985" y1="116.128" x2="58.5985" y2="146.763" gradientUnits="userSpaceOnUse">
<stop stop-color="#A0388B"/>
<stop offset="1" stop-color="#EC2E37"/>
</linearGradient>
<linearGradient id="paint29_linear" x1="57.2469" y1="433.057" x2="57.2469" y2="498.065" gradientUnits="userSpaceOnUse">
<stop stop-color="#A0388B"/>
<stop offset="1" stop-color="#EC2E37"/>
</linearGradient>
<linearGradient id="paint30_linear" x1="57.2693" y1="426.785" x2="57.2693" y2="439.329" gradientUnits="userSpaceOnUse">
<stop stop-color="#A0388B"/>
<stop offset="1" stop-color="#EC2E37"/>
</linearGradient>
<linearGradient id="paint31_linear" x1="27.1363" y1="483.21" x2="27.1363" y2="519.207" gradientUnits="userSpaceOnUse">
<stop stop-color="#A0388B"/>
<stop offset="1" stop-color="#EC2E37"/>
</linearGradient>
<linearGradient id="paint32_linear" x1="27.1609" y1="476.939" x2="27.1609" y2="489.502" gradientUnits="userSpaceOnUse">
<stop stop-color="#A0388B"/>
<stop offset="1" stop-color="#EC2E37"/>
</linearGradient>
<linearGradient id="paint33_linear" x1="429.729" y1="65.2057" x2="429.729" y2="106.811" gradientUnits="userSpaceOnUse">
<stop stop-color="#A0388B"/>
<stop offset="1" stop-color="#EC2E37"/>
</linearGradient>
<linearGradient id="paint34_linear" x1="429.806" y1="57.9391" x2="429.806" y2="72.4724" gradientUnits="userSpaceOnUse">
<stop stop-color="#A0388B"/>
<stop offset="1" stop-color="#EC2E37"/>
</linearGradient>
<linearGradient id="paint35_linear" x1="208.253" y1="621.958" x2="208.253" y2="663.029" gradientUnits="userSpaceOnUse">
<stop stop-color="#A0388B"/>
<stop offset="1" stop-color="#EC2E37"/>
</linearGradient>
<linearGradient id="paint36_linear" x1="208.285" y1="613.357" x2="208.285" y2="630.695" gradientUnits="userSpaceOnUse">
<stop stop-color="#A0388B"/>
<stop offset="1" stop-color="#EC2E37"/>
</linearGradient>
<linearGradient id="paint37_linear" x1="101.785" y1="275.284" x2="101.785" y2="320.891" gradientUnits="userSpaceOnUse">
<stop stop-color="#A0388B"/>
<stop offset="1" stop-color="#EC2E37"/>
</linearGradient>
<linearGradient id="paint38_linear" x1="101.824" y1="265.682" x2="101.824" y2="284.914" gradientUnits="userSpaceOnUse">
<stop stop-color="#A0388B"/>
<stop offset="1" stop-color="#EC2E37"/>
</linearGradient>
<linearGradient id="paint39_linear" x1="486.916" y1="263.635" x2="486.916" y2="312.9" gradientUnits="userSpaceOnUse">
<stop stop-color="#A0388B"/>
<stop offset="1" stop-color="#EC2E37"/>
</linearGradient>
<linearGradient id="paint40_linear" x1="486.853" y1="253.253" x2="486.853" y2="273.99" gradientUnits="userSpaceOnUse">
<stop stop-color="#A0388B"/>
<stop offset="1" stop-color="#EC2E37"/>
</linearGradient>
<linearGradient id="paint41_linear" x1="507.866" y1="295.334" x2="507.866" y2="331.178" gradientUnits="userSpaceOnUse">
<stop stop-color="#A0388B"/>
<stop offset="1" stop-color="#EC2E37"/>
</linearGradient>
<linearGradient id="paint42_linear" x1="507.868" y1="287.707" x2="507.868" y2="302.889" gradientUnits="userSpaceOnUse">
<stop stop-color="#A0388B"/>
<stop offset="1" stop-color="#EC2E37"/>
</linearGradient>
</defs>
</svg>
